<mxfile host="Electron" agent="Mozilla/5.0 (Macintosh; Intel Mac OS X 10_15_7) AppleWebKit/537.36 (KHTML, like Gecko) draw.io/24.7.17 Chrome/128.0.6613.36 Electron/32.0.1 Safari/537.36" version="24.7.17">
  <diagram name="페이지-1" id="OPC3_AyUSbc9DowvAVAu">
    <mxGraphModel dx="1803" dy="1056" grid="1" gridSize="10" guides="1" tooltips="1" connect="1" arrows="1" fold="1" page="1" pageScale="1" pageWidth="827" pageHeight="1169" math="0" shadow="0">
      <root>
        <mxCell id="0" />
        <mxCell id="1" parent="0" />
        <mxCell id="Tyh3Y5dJD_zC1bOriQO7-38" style="edgeStyle=orthogonalEdgeStyle;rounded=0;orthogonalLoop=1;jettySize=auto;html=1;exitX=1;exitY=0.25;exitDx=0;exitDy=0;entryX=0;entryY=0.5;entryDx=0;entryDy=0;curved=1;dashed=1;dashPattern=12 12;" parent="1" target="Tyh3Y5dJD_zC1bOriQO7-35" edge="1">
          <mxGeometry relative="1" as="geometry">
            <Array as="points">
              <mxPoint x="260" y="784" />
            </Array>
            <mxPoint x="260" y="814.2375000000002" as="sourcePoint" />
          </mxGeometry>
        </mxCell>
        <mxCell id="Tyh3Y5dJD_zC1bOriQO7-27" value="클래스가 판별된&lt;br&gt;100개의 표본 데이터" style="text;strokeColor=none;align=center;fillColor=none;html=1;verticalAlign=middle;whiteSpace=wrap;rounded=0;" parent="1" vertex="1">
          <mxGeometry x="95" y="740" width="110" height="30" as="geometry" />
        </mxCell>
        <mxCell id="Tyh3Y5dJD_zC1bOriQO7-28" value="&lt;font color=&quot;#4d9900&quot; style=&quot;font-size: 11px;&quot;&gt;선험확률&lt;/font&gt;" style="text;strokeColor=none;align=center;fillColor=none;html=1;verticalAlign=middle;whiteSpace=wrap;rounded=0;" parent="1" vertex="1">
          <mxGeometry x="230" y="944" width="50" height="20" as="geometry" />
        </mxCell>
        <mxCell id="Tyh3Y5dJD_zC1bOriQO7-32" style="edgeStyle=orthogonalEdgeStyle;rounded=0;orthogonalLoop=1;jettySize=auto;html=1;exitX=1;exitY=0.5;exitDx=0;exitDy=0;entryX=0;entryY=0.5;entryDx=0;entryDy=0;endArrow=none;endFill=0;fillColor=#d5e8d4;strokeColor=#82b366;dashed=1;" parent="1" source="Tyh3Y5dJD_zC1bOriQO7-29" target="Tyh3Y5dJD_zC1bOriQO7-28" edge="1">
          <mxGeometry relative="1" as="geometry">
            <Array as="points">
              <mxPoint x="220" y="954" />
            </Array>
          </mxGeometry>
        </mxCell>
        <mxCell id="Tyh3Y5dJD_zC1bOriQO7-29" value="&lt;font style=&quot;font-size: 10px;&quot;&gt;클래스 C1에 속할 확률 = 75 / 100 = 75%&lt;/font&gt;" style="text;strokeColor=none;align=center;fillColor=none;html=1;verticalAlign=middle;whiteSpace=wrap;rounded=0;" parent="1" vertex="1">
          <mxGeometry x="40" y="925" width="180" height="30" as="geometry" />
        </mxCell>
        <mxCell id="Tyh3Y5dJD_zC1bOriQO7-34" style="edgeStyle=orthogonalEdgeStyle;rounded=0;orthogonalLoop=1;jettySize=auto;html=1;exitX=1;exitY=0.5;exitDx=0;exitDy=0;entryX=0;entryY=0.5;entryDx=0;entryDy=0;endArrow=none;endFill=0;fillColor=#d5e8d4;strokeColor=#82b366;dashed=1;" parent="1" source="Tyh3Y5dJD_zC1bOriQO7-30" target="Tyh3Y5dJD_zC1bOriQO7-28" edge="1">
          <mxGeometry relative="1" as="geometry">
            <Array as="points">
              <mxPoint x="220" y="954" />
            </Array>
          </mxGeometry>
        </mxCell>
        <mxCell id="Tyh3Y5dJD_zC1bOriQO7-30" value="&lt;font style=&quot;font-size: 10px;&quot;&gt;클래스 C2에 속할 확률 = 25 / 100 = 25%&lt;/font&gt;" style="text;strokeColor=none;align=center;fillColor=none;html=1;verticalAlign=middle;whiteSpace=wrap;rounded=0;" parent="1" vertex="1">
          <mxGeometry x="40" y="950" width="180" height="30" as="geometry" />
        </mxCell>
        <mxCell id="Tyh3Y5dJD_zC1bOriQO7-35" value="&lt;font style=&quot;font-size: 50px;&quot;&gt;X&lt;/font&gt;&lt;font style=&quot;font-size: 30px;&quot;&gt;1&lt;/font&gt;" style="text;strokeColor=none;align=center;fillColor=none;html=1;verticalAlign=middle;whiteSpace=wrap;rounded=0;" parent="1" vertex="1">
          <mxGeometry x="310" y="754" width="66.02" height="60" as="geometry" />
        </mxCell>
        <mxCell id="Tyh3Y5dJD_zC1bOriQO7-37" value="&lt;font style=&quot;font-size: 50px;&quot;&gt;X&lt;/font&gt;&lt;font style=&quot;font-size: 30px;&quot;&gt;2&lt;/font&gt;" style="text;strokeColor=none;align=center;fillColor=none;html=1;verticalAlign=middle;whiteSpace=wrap;rounded=0;" parent="1" vertex="1">
          <mxGeometry x="310" y="880" width="66.02" height="60" as="geometry" />
        </mxCell>
        <mxCell id="Tyh3Y5dJD_zC1bOriQO7-39" style="edgeStyle=orthogonalEdgeStyle;rounded=0;orthogonalLoop=1;jettySize=auto;html=1;exitX=1;exitY=0.75;exitDx=0;exitDy=0;entryX=-0.045;entryY=0.509;entryDx=0;entryDy=0;entryPerimeter=0;curved=1;dashed=1;dashPattern=12 12;" parent="1" target="Tyh3Y5dJD_zC1bOriQO7-37" edge="1">
          <mxGeometry relative="1" as="geometry">
            <Array as="points">
              <mxPoint x="260" y="910" />
              <mxPoint x="307" y="910" />
            </Array>
            <mxPoint x="260" y="882.7125000000001" as="sourcePoint" />
          </mxGeometry>
        </mxCell>
        <mxCell id="Tyh3Y5dJD_zC1bOriQO7-41" value="" style="shape=curlyBracket;whiteSpace=wrap;html=1;rounded=1;labelPosition=left;verticalLabelPosition=middle;align=right;verticalAlign=middle;" parent="1" vertex="1">
          <mxGeometry x="380" y="744" width="20" height="80" as="geometry" />
        </mxCell>
        <mxCell id="Tyh3Y5dJD_zC1bOriQO7-42" value="" style="shape=curlyBracket;whiteSpace=wrap;html=1;rounded=1;flipH=1;labelPosition=right;verticalLabelPosition=middle;align=left;verticalAlign=middle;" parent="1" vertex="1">
          <mxGeometry x="440" y="744" width="20" height="80" as="geometry" />
        </mxCell>
        <mxCell id="Tyh3Y5dJD_zC1bOriQO7-43" value="&lt;span style=&quot;font-size: 17px;&quot;&gt;Null&lt;/span&gt;" style="text;strokeColor=none;align=center;fillColor=none;html=1;verticalAlign=middle;whiteSpace=wrap;rounded=0;" parent="1" vertex="1">
          <mxGeometry x="395" y="770" width="50" height="30" as="geometry" />
        </mxCell>
        <mxCell id="Tyh3Y5dJD_zC1bOriQO7-44" value="" style="shape=curlyBracket;whiteSpace=wrap;html=1;rounded=1;labelPosition=left;verticalLabelPosition=middle;align=right;verticalAlign=middle;" parent="1" vertex="1">
          <mxGeometry x="380" y="870" width="20" height="80" as="geometry" />
        </mxCell>
        <mxCell id="Tyh3Y5dJD_zC1bOriQO7-45" value="" style="shape=curlyBracket;whiteSpace=wrap;html=1;rounded=1;flipH=1;labelPosition=right;verticalLabelPosition=middle;align=left;verticalAlign=middle;" parent="1" vertex="1">
          <mxGeometry x="440" y="870" width="20" height="80" as="geometry" />
        </mxCell>
        <mxCell id="Tyh3Y5dJD_zC1bOriQO7-46" value="&lt;span style=&quot;font-size: 17px;&quot;&gt;25&lt;/span&gt;" style="text;strokeColor=none;align=center;fillColor=none;html=1;verticalAlign=middle;whiteSpace=wrap;rounded=0;" parent="1" vertex="1">
          <mxGeometry x="395" y="875" width="50" height="30" as="geometry" />
        </mxCell>
        <mxCell id="Tyh3Y5dJD_zC1bOriQO7-47" value="&lt;span style=&quot;font-size: 17px;&quot;&gt;20&lt;/span&gt;" style="text;strokeColor=none;align=center;fillColor=none;html=1;verticalAlign=middle;whiteSpace=wrap;rounded=0;" parent="1" vertex="1">
          <mxGeometry x="395" y="913.05" width="50" height="30" as="geometry" />
        </mxCell>
        <mxCell id="Tyh3Y5dJD_zC1bOriQO7-48" value="&lt;font style=&quot;font-size: 14px;&quot;&gt;C1에 속할 확률&lt;/font&gt;" style="text;strokeColor=none;align=center;fillColor=none;html=1;verticalAlign=middle;whiteSpace=wrap;rounded=0;" parent="1" vertex="1">
          <mxGeometry x="460" y="740" width="90" height="14" as="geometry" />
        </mxCell>
        <mxCell id="Tyh3Y5dJD_zC1bOriQO7-49" value="&lt;font style=&quot;font-size: 14px;&quot;&gt;C2에 속할 확률&lt;/font&gt;" style="text;strokeColor=none;align=center;fillColor=none;html=1;verticalAlign=middle;whiteSpace=wrap;rounded=0;" parent="1" vertex="1">
          <mxGeometry x="460" y="786" width="90" height="14" as="geometry" />
        </mxCell>
        <mxCell id="Tyh3Y5dJD_zC1bOriQO7-65" style="edgeStyle=orthogonalEdgeStyle;rounded=0;orthogonalLoop=1;jettySize=auto;html=1;exitX=1;exitY=0.5;exitDx=0;exitDy=0;entryX=0.5;entryY=0;entryDx=0;entryDy=0;endArrow=none;endFill=0;curved=1;dashed=1;fillColor=#d5e8d4;strokeColor=#82b366;" parent="1" source="Tyh3Y5dJD_zC1bOriQO7-51" target="Tyh3Y5dJD_zC1bOriQO7-62" edge="1">
          <mxGeometry relative="1" as="geometry">
            <Array as="points">
              <mxPoint x="605" y="769" />
            </Array>
          </mxGeometry>
        </mxCell>
        <mxCell id="Tyh3Y5dJD_zC1bOriQO7-51" value="&lt;font style=&quot;font-size: 17px;&quot;&gt;&lt;b&gt;75%&lt;/b&gt;&lt;br&gt;&lt;/font&gt;" style="text;strokeColor=none;align=center;fillColor=none;html=1;verticalAlign=middle;whiteSpace=wrap;rounded=0;" parent="1" vertex="1">
          <mxGeometry x="500" y="754" width="50" height="30" as="geometry" />
        </mxCell>
        <mxCell id="Tyh3Y5dJD_zC1bOriQO7-66" style="edgeStyle=orthogonalEdgeStyle;rounded=0;orthogonalLoop=1;jettySize=auto;html=1;exitX=1;exitY=0.5;exitDx=0;exitDy=0;entryX=0.5;entryY=1;entryDx=0;entryDy=0;endArrow=none;endFill=0;curved=1;dashed=1;fillColor=#d5e8d4;strokeColor=#82b366;" parent="1" source="Tyh3Y5dJD_zC1bOriQO7-52" target="Tyh3Y5dJD_zC1bOriQO7-62" edge="1">
          <mxGeometry relative="1" as="geometry">
            <Array as="points">
              <mxPoint x="605" y="815" />
            </Array>
          </mxGeometry>
        </mxCell>
        <mxCell id="Tyh3Y5dJD_zC1bOriQO7-52" value="&lt;font style=&quot;font-size: 17px;&quot;&gt;&lt;b&gt;25%&lt;/b&gt;&lt;br&gt;&lt;/font&gt;" style="text;strokeColor=none;align=center;fillColor=none;html=1;verticalAlign=middle;whiteSpace=wrap;rounded=0;" parent="1" vertex="1">
          <mxGeometry x="500" y="800" width="50" height="30" as="geometry" />
        </mxCell>
        <mxCell id="Tyh3Y5dJD_zC1bOriQO7-53" value="&lt;font style=&quot;font-size: 14px;&quot;&gt;C1에 속할 확률&lt;/font&gt;" style="text;strokeColor=none;align=center;fillColor=none;html=1;verticalAlign=middle;whiteSpace=wrap;rounded=0;" parent="1" vertex="1">
          <mxGeometry x="460" y="865" width="90" height="14" as="geometry" />
        </mxCell>
        <mxCell id="Tyh3Y5dJD_zC1bOriQO7-54" value="&lt;font style=&quot;font-size: 14px;&quot;&gt;C2에 속할 확률&lt;/font&gt;" style="text;strokeColor=none;align=center;fillColor=none;html=1;verticalAlign=middle;whiteSpace=wrap;rounded=0;" parent="1" vertex="1">
          <mxGeometry x="460" y="911" width="90" height="14" as="geometry" />
        </mxCell>
        <mxCell id="Tyh3Y5dJD_zC1bOriQO7-68" style="edgeStyle=orthogonalEdgeStyle;rounded=0;orthogonalLoop=1;jettySize=auto;html=1;exitX=1;exitY=0.5;exitDx=0;exitDy=0;entryX=0.5;entryY=0;entryDx=0;entryDy=0;curved=1;endArrow=none;endFill=0;dashed=1;fillColor=#f8cecc;strokeColor=#b85450;" parent="1" source="Tyh3Y5dJD_zC1bOriQO7-55" target="Tyh3Y5dJD_zC1bOriQO7-67" edge="1">
          <mxGeometry relative="1" as="geometry">
            <Array as="points">
              <mxPoint x="550" y="890" />
              <mxPoint x="605" y="890" />
            </Array>
          </mxGeometry>
        </mxCell>
        <mxCell id="Tyh3Y5dJD_zC1bOriQO7-55" value="&lt;font style=&quot;font-size: 17px;&quot;&gt;&lt;b&gt;30%&lt;/b&gt;&lt;br&gt;&lt;/font&gt;" style="text;strokeColor=none;align=center;fillColor=none;html=1;verticalAlign=middle;whiteSpace=wrap;rounded=0;" parent="1" vertex="1">
          <mxGeometry x="500" y="879" width="50" height="30" as="geometry" />
        </mxCell>
        <mxCell id="Tyh3Y5dJD_zC1bOriQO7-69" style="edgeStyle=orthogonalEdgeStyle;rounded=0;orthogonalLoop=1;jettySize=auto;html=1;exitX=1;exitY=0.5;exitDx=0;exitDy=0;entryX=0.5;entryY=1;entryDx=0;entryDy=0;curved=1;endArrow=none;endFill=0;dashed=1;fillColor=#f8cecc;strokeColor=#b85450;" parent="1" source="Tyh3Y5dJD_zC1bOriQO7-56" target="Tyh3Y5dJD_zC1bOriQO7-67" edge="1">
          <mxGeometry relative="1" as="geometry" />
        </mxCell>
        <mxCell id="Tyh3Y5dJD_zC1bOriQO7-56" value="&lt;font style=&quot;font-size: 17px;&quot;&gt;&lt;b&gt;70%&lt;/b&gt;&lt;br&gt;&lt;/font&gt;" style="text;strokeColor=none;align=center;fillColor=none;html=1;verticalAlign=middle;whiteSpace=wrap;rounded=0;" parent="1" vertex="1">
          <mxGeometry x="500" y="925" width="50" height="30" as="geometry" />
        </mxCell>
        <mxCell id="Tyh3Y5dJD_zC1bOriQO7-58" value="" style="ellipse;whiteSpace=wrap;html=1;aspect=fixed;" parent="1" vertex="1">
          <mxGeometry x="377.47" y="728.95" width="25.05" height="25.05" as="geometry" />
        </mxCell>
        <mxCell id="Tyh3Y5dJD_zC1bOriQO7-59" value="" style="shape=mxgraph.signs.travel.information_2;html=1;pointerEvents=1;fillColor=#000000;strokeColor=none;verticalLabelPosition=bottom;verticalAlign=top;align=center;" parent="1" vertex="1">
          <mxGeometry x="385.49" y="734" width="9" height="14.95" as="geometry" />
        </mxCell>
        <mxCell id="Tyh3Y5dJD_zC1bOriQO7-60" value="" style="ellipse;whiteSpace=wrap;html=1;aspect=fixed;" parent="1" vertex="1">
          <mxGeometry x="377.46000000000004" y="854.95" width="25.05" height="25.05" as="geometry" />
        </mxCell>
        <mxCell id="Tyh3Y5dJD_zC1bOriQO7-61" value="" style="shape=mxgraph.signs.travel.information_2;html=1;pointerEvents=1;fillColor=#000000;strokeColor=none;verticalLabelPosition=bottom;verticalAlign=top;align=center;" parent="1" vertex="1">
          <mxGeometry x="385.48" y="860" width="9" height="14.95" as="geometry" />
        </mxCell>
        <mxCell id="Tyh3Y5dJD_zC1bOriQO7-62" value="&lt;font color=&quot;#4d9900&quot; style=&quot;font-size: 11px;&quot;&gt;선험확률&lt;/font&gt;" style="text;strokeColor=none;align=center;fillColor=none;html=1;verticalAlign=middle;whiteSpace=wrap;rounded=0;" parent="1" vertex="1">
          <mxGeometry x="580" y="780" width="50" height="20" as="geometry" />
        </mxCell>
        <mxCell id="Tyh3Y5dJD_zC1bOriQO7-67" value="&lt;font color=&quot;#ea6b66&quot; style=&quot;font-size: 11px;&quot;&gt;후험확률&lt;/font&gt;" style="text;strokeColor=none;align=center;fillColor=none;html=1;verticalAlign=middle;whiteSpace=wrap;rounded=0;" parent="1" vertex="1">
          <mxGeometry x="580" y="900" width="50" height="20" as="geometry" />
        </mxCell>
        <mxCell id="Tyh3Y5dJD_zC1bOriQO7-70" value="&lt;span style=&quot;font-size: 11px;&quot;&gt;&lt;b&gt;정보&lt;/b&gt;&lt;/span&gt;" style="text;strokeColor=none;align=center;fillColor=none;html=1;verticalAlign=middle;whiteSpace=wrap;rounded=0;" parent="1" vertex="1">
          <mxGeometry x="394.5" y="850" width="28.99" height="20" as="geometry" />
        </mxCell>
        <mxCell id="Tyh3Y5dJD_zC1bOriQO7-71" value="" style="endArrow=none;html=1;rounded=0;fillColor=#dae8fc;strokeColor=#6c8ebf;strokeWidth=3;opacity=60;" parent="1" edge="1">
          <mxGeometry width="50" height="50" relative="1" as="geometry">
            <mxPoint x="398.99" y="865" as="sourcePoint" />
            <mxPoint x="418.99" y="865.05" as="targetPoint" />
          </mxGeometry>
        </mxCell>
        <mxCell id="1laJzibWL6vn_WCqNY0--4" value="" style="shape=image;verticalLabelPosition=bottom;labelBackgroundColor=default;verticalAlign=top;aspect=fixed;imageAspect=0;image=data:image/png,iVBORw0KGgoAAAANSUhEUgAABqsAAAQnCAYAAABsYFbqAAAAOXRFWHRTb2Z0d2FyZQBNYXRwbG90bGliIHZlcnNpb24zLjYuMywgaHR0cHM6Ly9tYXRwbG90bGliLm9yZy/P9b71AAAACXBIWXMAAB7CAAAewgFu0HU+AAEAAElEQVR4nOzdeXxb1Z3//7eT4DhkkbOQKDZTQ1hCMw0BjMBhCYWpaSl72QotLb8pDC3FKVQpU1ra6XTKlOlEgUYdCh1gSlsYGlrgS1g69bCU1USYYAoBswUHnJGTJlhxIMaJrd8ft1eRbUmWrpa7vZ6PBw9sWbo6N5I+uve87zmnKplMJgUAAAAAAAAAAADYYJzdDQAAAAAAAAAAAIB/EVYBAAAAAAAAAADANoRVAAAAAAAAAAAAsA1hFQAAAAAAAAAAAGxDWAUAAAAAAAAAAADbEFYBAAAAAAAAAADANoRVAAAAAAAAAAAAsA1hFQAAAAAAAAAAAGxDWAUAAAAAAAAAAADbEFYBAAAAAAAAAADANoRVAAAAAAAAAAAAsA1hFQAAAAAAAAAAAGxDWAUAAAAAAAAAAADbEFYBAAAAAAAAAADANoRVAAAAAAAAAAAAsA1hFQAAAAAAAAAAAGxDWAUAAAAAAAAAAADbEFYBAAAAAAAAAADANoRVAAAAAAAAAAAAsA1hFQAAAAAAAAAAAGwzwe4GOM3WrVsVi8W0du1avfbaa+rq6lJPT48++OADTZgwQbW1tZo/f74WL16ss88+W3Pnzi1o+08++aTuvvtuvfDCC4rH45o4caLmzp2r4447Tueff77233//Mu0ZAAAAAAAAAACA81Qlk8mk3Y1wki996Ut65JFH8rrvxIkTdfnll+uKK67QuHG5B6n19fXpqquu0v3335/1PnvssYfC4bBaWloKajMAAAAAAAAAAIBbMbIqhxkzZuiAAw5QfX29Jk+erB07duidd97Riy++qF27dumjjz5SJBJRV1eXfvrTn2bdzs6dO/WVr3xFTz/9dOq2gw46SJ/4xCf00Ucfac2aNerp6dHOnTt13XXXadeuXbryyisrsYsAAAAAAAAAAAC2YmTVCDfddJMmT56sY445Rvvuu2/G+2zevFk/+MEPdN9996Vuu/nmm3XKKadkvP+///u/64YbbpAk1dTUaMWKFTr99NNTfx8YGNBPfvIT/fznP5ckVVVV6e6779bixYtLs1MAAAAAAAAAAAAORVhlUTKZ1HnnnZcaLXXsscfqrrvuGnW/v/zlL1q8eLE+/PBDSdJ1112nCy+8MOM2v/a1r6WmCWxsbMw5ZSAAAAAAAAAAAIAX5F5oCVlVVVXpvPPOS/3+8ssvZ7zf3XffnQqq5s2bpy9+8YtZt3nNNdek1r5qb2/Puk0AAAAAAAAAAACvIKwqwsyZM1M/f/DBBxnv84c//CH187nnnquqqqqs26uvr9fRRx+d+v3hhx8uQSsBAAAAAAAAAACci7CqCK+//nrq57333nvU3/v7+/XCCy+kfs9nDaqjjjoq9bM5xSAAAAAAAAAAAIBXEVZZFI/HdfPNN6d+P/nkk0fd56233tLQ0JAkY9rAT3ziE2Nud+HChamf33jjjRK0FAAAAAAAAAAAwLkm2N0AN9mxY4feffddPfroo/r5z3+uv/zlL5KkAw44QJdffvmo+7/11lupn2fNmqWampoxn6O+vj71c29vr7Zs2TJsusGxbNy4Ma/71dXV5b1NAAAAAAAAAACAciGsymHNmjU688wzc97nhBNO0M9+9jNNmTJl1N/ef//91M+zZs3K6zn32muvUdvIN6w66aST9NJLL+V13+7u7rzuBwAAAAAAAAAAUE6EVRbV1tbqX//1X3X66adnvc+HH36Y+jmfUVWZ7pe+jbFs2rQp7/t2dHSMum3RokWSjBFdXV1dGds2f/58ScY0iD09PaPuU1tbq4aGBklSV1eXent7R91nzpw5CgaDkqTOzk719/ePuk9DQ4Nqa2uztlWS5s+fr5qaGvX396uzszPjfdgn9smP+7RlyxZJSgXdXtinkdgn9ol9yr1PZh1YsGCBZ/bJ5KXXiX1in8q5T319fZo6daoWLVrkmX3y4uvEPrFP5d6nZ599Vjt27Bh1Eayb98mLrxP7xD6Vc59G9hF4YZ9GYp/YJ/Yp9z5t2bJFJ5xwQsbHOElVMplM2t0Ip+rq6tIvfvELSVIymdT27dv19ttv689//rN27dolSTrqqKN03XXXab/99hv1+Ouvv17Lly+XJB155JG65557xnzOoaEh/c3f/E3q93vvvVdHHHFEXu1tbGxUPB7X7Nmz9eCDD+a8L9MAAt5lfmGZX6gA/Ic6AIA6AECiFgCgDgAw6oAbagAjq3JoaGjQtddeO+r2eDyuf/u3f9OqVav0zDPP6LTTTtPdd9+tBQsWDLtf+iipgYGBvJ7zo48+yrqNfI0bN44wCgAAAAAAAAAAuMI4uxvgRsFgUNdff72+8pWvSDKGAV522WUaHBwcdr8999wz9XOmoXuZjLxf+jYAAAAAAAAAAAC8hrCqCFdffbWmTp0qSXrjjTf06KOPDvv79OnTUz//5S9/yWubmzdvzroNAAAAAAAAAAAAr2EawCJMmjRJhx9+uB577DFJ0vPPP6/m5ubU39PXsfrLX/6i/v7+Maf16+7uTv1cW1s7ahFUABiLuWgjAP+iDgCgDgCQqAUAqAMA3FMHCKuKFAgEUj+///77w/623377ady4cRoaGlIymdQrr7yixsbGnNv785//nPr5gAMOKG1jAfhCbW2t3U0AYDPqAADqAACJWgCAOgDAPXWAaQCL1NPTk/p55IteU1Ojww47LPX7s88+O+b22traUj8fffTRxTcQAAAAAAAAAADAwQirirB161a98MILqd/333//Uff5zGc+k/p51apVObfX3d2tp556KuNjASBfHR0d6ujosLsZAGxEHQBAHQAgUQsAUAcAyDU1gLAqzchp/HIZGhrSNddco48++kiSNHHiRH3qU58adb9zzjlHe+65pyTprbfe0p133pl1m//6r/+qwcFBSVJjY6MWLlxYSPMBAAAAAAAAAABch7Aqze9+9zt99rOf1d13362+vr6s91u3bp0uvPBC/b//9/9St331q1/VjBkzRt131qxZ+od/+IfU79/73vd0//33D7vPzp079a//+q+67777UrddffXVRewJAAAAAAAAAACAO0ywuwFO09HRoSuuuEITJkzQ/vvvr3nz5qm2tlZVVVV6//33tW7dOr3zzjvDHvPZz35W3/zmN7Nu84orrlAsFtPTTz+t/v5+fe1rX9PKlSv1iU98Qh999JGee+65YWtfLVu2TIsXLy7XLgIAAAAAAABIE4tJbW1SS4v1bUSjUlOTFAqVrl0A4BeEVWmqq6tTP+/atUuvvfaaXnvttaz3nzJlir75zW/q4osv1vjx47Peb4899tAtt9yiq666SqtXr5Ykvfrqq3r11VdH3e+b3/ymli5dWuSeAAAAAAAAAMhHLCY1N0uJhDQwIIXDhW8jEpGWLZMCAam1lcAKAApFWJXmy1/+so455hg9+eSTWrt2rV5//XV1d3dr27Ztkoxwas6cOVqwYIGOPfZYnXzyyZo8eXJe2542bZpuuukmXXDBBbr77rv1wgsvqKenR3vssYfq6up03HHH6fzzz9cBBxxQzl0EAAAAAAAA8FfpQZVkBE5SYYGVGVRJxnaamwmsSmVoaEjbt2/Xtm3bNDAwoMHBQbubBFTU+PHjVV1drWnTpmnKlCkaN867KztVJZPJpN2NQGk0NjYqHo8rGAyqvb3d7uYAsEl/f78kqaamxuaWALALdQAAdQCARC0A8hGNSpkmOVq+PL/AKj2oSrdyZXFTCpaKm+tAX1+furu7Rfc1YKiqqlJ9fb2mTp1a0OP6+/tdUQMYWQUAHuOGLx8A5UUdAEAdACBRC4B8tLQYU/+NDJzyGWGVLahavtwZQZXk3jqQKaiqqqrKuRQL4EWDg4Opz0EymVR3d3fBgZVb6gBhFQB4jJuvmgJQGtQBANQBAJI/akEsJrW1FRcMRKNSUxNTtvmZGUgVEljlCqqsrHlVLm6sA0NDQ8OCqilTpmjGjBnac889VVVVZXPrgMpKJpP68MMPtXXrVm3fvj0VWB144IF5TwnolpFV3p3gEAB8qrOzU52dnXY3A4CNqAMAqAMAJO/XAnOtoaVLjeDAikjEeHxzs7E9+Fc4bARNIy1bNvr95ZagSnJnHTA75CUjqNp77701efJkgir4UlVVlSZPnqy9995bU6ZMkWQEWNu3b897G26pAYRVAAAAAAAAcBUzqEokjN8zBQpjSQ8cEgkCK+QXWLkpqHKrbdu2pX6eMWMGIRUgI7SaMWNG6vf0z4lXEFYBAAAAAADAVdradgdVpkICq0yBQyJhbBf+liuwqq8nqKqEgYEBSUbn/J577mlzawDnSJ8K0/yceAlhFQAAAAAAAFylpSX/KdtGyjUyppi1r+Ad2QKrjRtH30ZQVXqDg4OSpPHjxzOqCkhTVVWl8ePHS9r9OfESwioAAAAAAAC4TiFrDJmYwg35yvb+Ssf7BgBKh7AKAAAAAAAArlRIYEVQhUKFw1JdXea/1dXxvgGAUppgdwMAAKW1aNEiu5sAwGbUAQDUAQCSf2qBGRiMDKLM38NhgipYE4lknvpPMm6PRJz//vFLHQCQnVvqAGEVAAAAAAAAXC1XYLViBWsNoXDZAs506YEoAKA4TAMIAB7T29ur3t5eu5sBwEbUAQDUAQCS/2pBtikBCapQqGxBVaYpAXOtkeYEfqsDAEZzSw0grAIAj+nq6lJXV5fdzQBgI+oAAOoAAMmftSBbYJWOoAq55Joysrs7/zXSnMKPdQD2Ovzww3X44Yfr5ptvtrsp+Cu31ACmAQQAAAAAAIBnhMPZp/6rqyOoQnb5rG2WzxppgJvt3LlTjzzyiJ555hm98sor6u3t1fbt2zVlyhTNnTtXf/u3f6sTTjhBoVBI48YxFibd1q1b9corr+iVV17RunXr9MorryiRSEiSTjnlFP3gBz+wt4EOR1gFAAAAAAAAz4hEMgdVknF7JEKggNHyCapMBFbwqkcffVQ33HCDNmYooolEQolEQq+99pp+//vf62Mf+5i++c1v6phjjrGhpc504okn2t0EVyOsAgAAAAAAgCdkCxzSEShgpEKCKhOBlUfFYlJbm9TSYn0b0ajU1CSFQqVrVwXccsstuummm1K/H3nkkVqyZInmzZunqVOnKpFIqKurS08++aSee+45bdiwQTfeeCNhVRbBYFD77LOP2tra7G6KaxBWAQAAAAAAwPWyBQ51daNHWhEowBSNFh5UmXIFVtXVxeUdsEEsJjU3S4mENDBgrUCYhSgQkFpbXRNY3X///amgasaMGfrxj3+sxsbGUfc78sgjde655+rNN9/UihUr1NvbW+GWOtsll1yiBQsWaMGCBZo5c6Y2btyo0047ze5muQaTSgKAx9TU1KimpsbuZgCwEXUAAHUAgOSvWpBrZEx3t/H/kZYtMx4Hf2tqMnKFdPkEVaZwePT7KxAwtusEfqoDRUkPqiRrBSK9ECUSxvZisdK2sww2bdqkn/zkJ5KkSZMm6Re/+EXGoCrd/vvvr5/97Gf64he/WIkmusall16qY489VjNnzrS7KcO4pQYwsgoAPGb+/Pl2NwGAzagDAKgDACT/1IJ8pnBjyjZkEwoZA2DMnKKQoMqU/v5y2oAav9SBorW17Q6qTIUUiEyFKJEwtuuUN0MWd955p/r7+yUZYcs+++yT1+PGjRunz372swU/33vvvafHH39c7e3tevPNN7V161ZJ0vTp07Vw4UKdeuqpOuqoo3Juo6+vT6tWrdJTTz2ld955Rx9++KGmTp2q6dOnq6GhQU1NTTr++OMzhkaxWEz33nuvXn75ZW3ZsiX13LNmzdIhhxyio48+WiGHv2aFcksdIKwCAAAAAA/x8VILAHyokLWGCKyQjRlYFfP9GQ4bU//x/elSLS3G1H9WCkSuQuTwuSCTyaQeeOABScaoqjPPPLOsz9fd3a0zzjgj49/i8bji8bhaW1t10kkn6Z/+6Z80YcLo+GL9+vW67LLLtHnz5mG39/b2qre3V+vXr9fjjz+uwcFBnXfeecPuE4lE9N///d9Zn/vll1/W6tWr9cgjj1jfSVhGWAUAHhOPxyUZCzkC8CfqAOBf5gw2++8f14QJ0te+VngdcOlSCwAy8PoxQSFBlYnACtmEQsV/5zkxl/B6HSgpKwXCSiFykLfeeiu17tShhx6qyZMnl/X5hoaGtMcee6ipqUlHHnmk5s2bp2nTpmnbtm3asGGDVq1apbffflsPP/yw9t57b1166aWjtvH9739fmzdv1oQJE3TmmWfqqKOO0syZMzU0NKRNmzbpz3/+sx5//PFRj3vyySdTQdUBBxygs846S/vuu6+mTJmivr4+vf3221qzZo1eeeWVsv4b2CEej7uiBhBWAYDH9PT0SOJAFPAz6gDgT+lLLRx+eI86OqRIJFhQP0mmpRYIrAD38vIxQTRqvX84V390dbUzAwfAKi/XgbIoJLByeVAlSW+88Ubq54MOOqjszzdr1iytXr1as2bNGvW3I444QmeddZZ++MMfavXq1frNb36jL3zhC5oyZUrqPu+9955effVVSdKVV145auSUJJ1wwglaunSp+vr6ht3e2toqSZo7d65uvfVW7bnnnsP+fvjhh+vcc89VYuR0kB7Q09Pjihowzu4GAAAAAACKl22phXzXBs+11AIAOE1TkzECNF0h/cPhsHH/dIGAsV0APpepQEjDD6w8EFRJGhbMzJgxo+zPN2nSpIxBlamqqkpXXHGFxo8frx07dui5554b9ndzjSlJOuyww3JuZ9q0aRkfe9BBB40KqtIFRn65oGIIqwAAAADAA1paxu5XycbFSy0A8ClzjSGzT9FK/3B6fzRTnwIYJldgVV/viaBKkj744IPUzzU1NRV//l27dqmnp0fr16/Xm2++qTfffFObN29OBUbpI78kDQu6Vq9eXdBzmY994YUX9N577xXZcpQD0wACAAAAgEeY/SMjzuu9vNQCAB8zA6u2NuvBejhsTP3X1ERQBWCEbFMCbtw4+r4uPXBKX6Oqv7+/Is+5a9cu3XPPPXrooYfU2dmpnTt3Zr2vuZ6Wqb6+XoceeqjWrl2rO++8U21tbTrhhBPU2NiohQsX5gzcTj75ZD344INKJBI677zztGTJEi1evFiHHnqo/uZv/qZUu4ciEFYBAAAAgIeEw9KvfiU988zw2z261AIAnwuFig+ZGEEKIKtsgVU6Fx84pU95lz7FXrkkEgldfvnlqXWnxvLRRx+Nuu3aa6/Vt7/9bb300kt6++239fbbb+uWW27RhAkTtHDhQn3605/WqaeeqokTJw573BFHHKGrrrpKP/3pT/XRRx+ptbU1tY7V7Nmzdcwxx+jss8/WgQceWPyOwhLCKgDwmNraWrubAMBm1AEAxx1Xqwzn9sMCK4IqwPs4JgBAHSiBcFhasSLziKq6OlcfOB1wwAGpnzs7O8v+fMuXL08FVZ/85Cd12mmn6YADDtD06dM1ceJEVVVVSTJGQfX09CiZTI7axuzZs3XbbbdpzZo1euyxx9Te3q7169dr165dWrt2rdauXavf/OY3+ulPf6qGhoZhjz333HP1qU99Sn/4wx/03HPPqaOjQ9u3b9emTZt0zz336N5779X/9//9f7rsssvK/m9RSW6pA4RVAOAxI7+IAfgPdQBAQ0ODLrlE2rZtdCC1bFn2/haCKsBbOCYAQB0ogUgk84GTZNweibj2AGq//fZTbW2tent7tXbtWm3fvl1Tpkwpy3Nt3749NZLppJNO0r/8y79kvW9fX9+Y2zviiCN0xBFHSDKmC1yzZo3uvfdexWIxvffee7r66qt15513jnrcjBkzdMEFF+iCCy7Q0NCQXn/9dT322GNatWqV+vr6dNttt2nBggX65Cc/aW1HHcgtdWCc3Q0AAAAAAJRHtrXBCaoAAADykG0oerply4z7uVBVVZVOOeUUSdKOHTt03333le253n33Xe3atUuS1NzcnPV+77zzjj788MOCtl1bW6sTTzxRP//5z7VkyRJJ0uuvv64NGzbkfNy4ceN00EEH6Wtf+5p+/vOfp27/3//934KeH6VBWAUAHtPV1aWuri67mwHARtQBAOl1IFtglY6gCvAmjgkAUAeKkC2oqqsbfZuLA6sLLrhANTU1kqSbb75Z77zzTl6PGxoa0sMPP5z38wwODqZ+3rFjR9b7/f73v897m5mYo60kY8RVvg466CBNmzat4Me5gVtqAGEVAHhMb2+v575UARSGOgBgZB0IhzP3q0iuX2oBQA4cEwCgDliUa3HP7u7MVwK5NLCaPXu2rrrqKklGiPQP//APam9vz/mYt99+Wy0tLfr1r3+d9/PsvffeqTWpHnzwwYzrUT3xxBNatWpV1m10dnbmXFsrmUzqueeek2SMGqtLOwD+4x//qP7+/qyPXbdunbZt2yZJwx7nBW6pAaxZBQAAAAAe5+GlFgAAAEorV1BlHjCZ/8+0OGj6313itNNO06ZNm3TTTTdp69atuvTSS9XU1KTjjjtO++67r6ZMmaJt27Zpw4YNeuqpp/Tss89qcHBQBx54YN7PUVtbq6OPPlpPPfWUnnnmGX3961/X2Wefrblz52rr1q169NFH9cADD6i+vl59fX16//33R23j9ddf1z//8z9rwYIFWrJkiQ466CDNnDlTu3btUnd3t1avXp0Kq5YsWaJZs2alHhuNRvXjH/9Yxx13nA499FA1NDSopqZGiURCL774YiokGz9+vM444wxL/44vvvii3n333dTv6SHRu+++q9WrVw+7/6mnnmrpebyKsAoAAAAAPCzfpRYk1/WrAAAAlFY+QZXJY4HVxRdfrHnz5umGG27Qxo0b1dbWpra2tqz3nzdvnpYuXVrQc3z729/WxRdfrHg8rjVr1mjNmjXD/h4MBrV8+XJ94xvfyLmddevWad26dVn/fvDBB+t73/veqNv7+vr0wAMP6IEHHsj4uOrqal199dVasGBBHnsz2n333Zd12x0dHero6Bh2G2HVcIRVAAAAAOBRuZZaGDnSyqX9KjnFYlJbm9TSYn0b0ajU1CSFQqVrFwAAcKBCgiqTxwKrE044Qccee6weeeQRPf3001q3bp3ef/99ffDBB5oyZYrmzp2rhQsX6u/+7u/U2NiYmtYvX8FgUL/5zW90++23609/+pPi8biqq6tVV1en4447Tueff35q3ahMPv3pT2vGjBl67rnntG7dOm3evFlbtmzR4OCgZsyYofnz5+vEE0/UiSeeqHHjhq+AdNNNN+nJJ5/UCy+8oA0bNmjLli3atm2bampqtPfee+uII47QWWedpb333tvSvx2KV5XMNDkkXKmxsVHxeFzBYHDMeUUBeJd5lcaiRYtsbgkAu1AHABhXbkpf/vLoOmD2t1jpj3GTWExqbpYSCev7ZP4bBQJSayuBFdyHYwIAbqwDb7zxhnbt2qUJEybogAMOqMyTRqNSplFC+R5EZDuwWrmyuKtmgBGsfD46OjpcUQMYWQUAHjNnzhy7mwDAZtQBAM88M0e33jr6dg8vtTBMelAlWdun9D6nRMLYHoEV3IZjAgDUgTw1NRlXp5gHD1JhV7tkOrAKBIztAjZzSx0grAIAjwkGg3Y3AYDNqAOAvxkhy+g64IOlFlLa2ob3NUmF7VOmi6MTCWO7hFVwE44JAFAH8hQKGVelFDMsO/3AimHZcBC31AHCKgAAAADwCJZaMLS0SAMD1vYp178hs/gAAOBhZmBVzIKX4bBUXc2Cl4AFhFUA4DGdnZ2SpPnz59vcEgB2oQ4A/hSN7g5Zzj3XqAOrVs3P68LgXIFVdbU7QxorIZzX1/GC/3BMAIA6UKBQqPiQyY0HTvC0zs5OV9QAwioA8Jj+/n67mwDAZtQBwJ/Sl1qYPt2oA35faqGQwIqgCl7EMQEA6gAAt9SBcXY3AAAAAABQPHPmmkDA+P2oo6wttbB8ufGzV5ZaSN+ndMuWGQGVRFAFAAAA2I2RVQAAAADgEWZg1dkpLVxobRteXGoh1wirFSukjRtHP4agCgAAAKgcwioAAAAA8JBQyAibiuHFpRayBVYEVQAAAID9mAYQAAAAAOAL2aYETEdQBQAAAFQeI6sAwGMaGhrsbgIAm1EHAFAHsguHs0/9V1dHUAVvoRYAoA4AcEsdIKwCAI+pra21uwkAbEYdAEAdyC4SyRxUScbtkQiBFbyDWgCAOgDALXWAaQABAAAAAL4QiYxes2qkZcuM+wEAAACoHMIqAPCYjo4OdXR02N0MADaiDgCgDoyWLaiqqxt9G4EVvIJaAIA6AMAtNYCwCgAAAADgadmCquXLpe5u4/8jEVgBAAAAlUNYBQAAAADwrFxBlbk2VThMYAUAAADYibAKAAAAAOBJ+QRVJgIrAAAAwD6EVQAAAAAAzykkqDIRWAEAAAD2IKwCAAAAAHhKNFp4UGXKFVhFo6VpHwAAAIDhJtjdAABAac2fP9/uJgCwGXUAgN/rQFOTFAhIicTu2/IJqkzm/dIDr0DA2C7gJn6vBQCoAwDcUwcYWQUAHlNTU6Oamhq7mwHARtQBAH6vA6GQ1NpqBExSYUGVKX2EVSBgbC8UKm07gXLzey0AQB1A5R1++OE6/PDDdfPNN9vdFPyVW2oAI6sAwGP6+/slueeLCEDpUQeA3GIxqa1Nammxvo1o1Bhl49TwgjqwO7Aq5rUOh6Xqame/1kAu1AIA1AEUaufOnXrkkUf0zDPP6JVXXlFvb6+2b9+uKVOmaO7cufrbv/1bnXDCCQqFQho3jrEw6datW6enn35aL774otavX6/3339fEyZM0F577aVFixbp9NNP1yGHHFLxdvX397uiBhBWAYDHdHZ2SpIWLVpkc0sA2IU6AGQXi0nNzcb0cAMDhY+2kaRIxJgezsmjbagDhlCo+NenmFATsBu1ADD44UKVbKgDKMSjjz6qG264QRs3bhz1t0QioUQioddee02///3v9bGPfUzf/OY3dcwxx9jQUue55JJLtHbt2lG379y5Uxs2bNCGDRu0evVqnXzyybrmmmu0xx57VKxtnZ2drqgBhFUAAAAAfCE9qJJ2r0dUSGBlBlWSsZ3mZucGVgAAwD8XqqA0/Bxs3nLLLbrppptSvx955JFasmSJ5s2bp6lTpyqRSKirq0tPPvmknnvuOW3YsEE33ngjYdVfbd68WZK011576VOf+pQOOeQQBYNBDQ0N6aWXXtIdd9yhTZs26cEHH9SuXbt07bXX2txi5yGsAlBefv6WBwAAjtLWtjuoMhUSWKUHVaZEwtguhykAADgPF6qgEH4ONu+///5UUDVjxgz9+Mc/VmNj46j7HXnkkTr33HP15ptvasWKFert7a1wS51rn3320de//nWdcMIJGj9+/LC/LVy4UCeffLL+/u//Xhs2bND//M//6KyzztJhhx1mU2udiUklAZSP+S2/dKnxbW1FJGI8vrnZ2B4AAIBFLS3S8uWjb1+2bOxDlUxBlWRsj2niAABwpmwXquTbRZHrQhV4S6Zgs9CurEzBphu6sjZt2qSf/OQnkqRJkybpF7/4RcagKt3++++vn/3sZ/riF79YiSa6wg033KDm5uZRQZWptrZWV155Zer3Rx55pFJNcw1GVgEoDy5fAgAADmQeiozseMp1qJIrqLJyxS0AAKiMlhZjhEwh3/smLlTxFz+PwL/zzjvV398vSbr00ku1zz775PW4cePG6bOf/WzBz/fee+/p8ccfV3t7u958801t3bpVkjR9+nQtXLhQp556qo466qic2+jr69OqVav01FNP6Z133tGHH36oqVOnavr06WpoaFBTU5OOP/54zZw5c9RjY7GY7r33Xr388svasmVL6rlnzZqlQw45REcffbRCZXrRDj/88NTP7733Xlmew80IqwCUh5+/5QEAgKMVElgRVAEA4G5cqIJ8+DXYTCaTeuCBByQZo6rOPPPMsj5fd3e3zjjjjIx/i8fjisfjam1t1UknnaR/+qd/0oQJo+OL9evX67LLLkutEWXq7e1Vb2+v1q9fr8cff1yDg4M677zzht0nEonov//7v7M+98svv6zVq1eXbdTTwMBA6udx45j0biTCKgDl4ddveQdYtGiR3U0AYDPqADC2fDqu3NxRRR0AIFELAJOfL1ShDuTPj8HmW2+9lVp36tBDD9XkyZPL+nxDQ0PaY4891NTUpCOPPFLz5s3TtGnTtG3bNm3YsEGrVq3S22+/rYcfflh77723Lr300lHb+P73v6/NmzdrwoQJOvPMM3XUUUdp5syZGhoa0qZNm/TnP/9Zjz/++KjHPfnkk6mg6oADDtBZZ52lfffdV1OmTFFfX5/efvttrVmzRq+88krZ9v+FF15I/bzvvvuW7XlGcksdIKwCUD5+/JYHAACuketQZcUKaePG0Y/hkAQAAHfy+oUqKA2/BZtvvPFG6ueDDjqo7M83a9YsrV69WrNmzRr1tyOOOEJnnXWWfvjDH2r16tX6zW9+oy984QuaMmVK6j7vvfeeXn31VUnSlVdeOWrklCSdcMIJWrp0qfr6+obd3traKkmaO3eubr31Vu25557D/n744Yfr3HPPVWLkTFElMjQ0pF/+8pep35ubm8vyPG7GWDMA5RUO57+SuRe+5R3AHPYMwL+oA0D+sh2quD2oog4AkKgFwEi5uijq673ZJUEdKFw+XVle6cJKD2ZmzJhR9uebNGlSxqDKVFVVpSuuuELjx4/Xjh079Nxzzw37u7nGlCQddthhObczbdq0jI896KCDRgVV6QKBQM59sOrOO+9Mjdo6/vjj9fGPf7wsz5OJW2oAYRWA8vPTt7wDdHV1qaury+5mALARdQAoTLZDlXRuOyShDgCQqAVAJl69UCUb6oA1fgk2P/jgg9TPNTU1FX/+Xbt2qaenR+vXr9ebb76pN998U5s3b04FRukjvyQNC7pWr15d0HOZj33hhRf03nvvFdnywrS3tysajUoyQsGrr766os/vlhrANIAAKoN5dgAAgIOFw9kPSerqOCQBAMBLsnVRpKNLAtneJ17qwkpfo6q/v78iz7lr1y7dc889euihh9TZ2amdO3dmve/IEUH19fU69NBDtXbtWt15551qa2vTCSecoMbGRi1cuDBn4HbyySfrwQcfVCKR0HnnnaclS5Zo8eLFOvTQQ/U3f/M3pdq9Ud566y1961vf0uDgoCZOnKjrrruuIqPY3IiwCkDl+OFbHgAAuFIkkvmQRDJuj0Q4NAEAwEu4UAX58HqwmT7lXfoUe+WSSCR0+eWXp9adGstHH3006rZrr71W3/72t/XSSy/p7bff1ttvv61bbrlFEyZM0MKFC/XpT39ap556qiZOnDjscUcccYSuuuoq/fSnP9VHH32k1tbW1DpWs2fP1jHHHKOzzz5bBx54YPE7+lfd3d26/PLLtW3bNo0fP17XXnttzukL/Y5pAAFUlhfn2QEAAK6WbTbidJmW2wQAAO6Vz4UqgGR0UdXVZf6b24PNAw44IPVzZ2dn2Z9v+fLlqaDqk5/8pFasWKHVq1frqaeeUiwW0/PPP6/nn39ec+bMkSQlk8lR25g9e7Zuu+023XjjjTrnnHM0b948VVVVadeuXVq7dq2uu+46nXfeeRmnvjv33HO1evVqffOb39TRRx+tKVOmSJI2bdqke+65R1/4whd04403lmRfN2/erMsuu0ybN29WVVWVvve97+mTn/xkSbbtVYysAlB5XL4EAAAcIltQVVc3+lDFvB+HKgAAuFu+F6pIfO/D2yPw99tvP9XW1qq3t1dr167V9u3bUwFOqW3fvj01kumkk07Sv/zLv2S9b19f35jbO+KII3TEEUdIMqYLXLNmje69917FYjG99957uvrqq3XnnXeOetyMGTN0wQUX6IILLtDQ0JBef/11PfbYY1q1apX6+vp02223acGCBUUFS729vfr617+u7u5uSdK3vvUtnXLKKZa35xeMrAJQeVy+VFY1NTW2LIoJwDmoA0B+snVULV8udXdnX1TbDYcq5agDsZj013WhLYtGje0AqAyOCYDRcl2oMpJbvvdzoQ4Ux+sj8KuqqlIhyo4dO3TfffeV7bneffdd7dq1S5LU3Nyc9X7vvPOOPvzww4K2XVtbqxNPPFE///nPtWTJEknS66+/rg0bNuR83Lhx43TQQQfpa1/7mn7+85+nbv/f//3fgp4/3fbt23X55Zfr7bffliRdfvnlOvfccy1vrxTcUgMIqwBUlte/5R1g/vz5mj9/vt3NAGAj6gAwtlxBlXllbLbZi91wqFLqOhCLSc3N0tKl1vc9EjEe39xMYAVUCscEwHBevlAlG+qAdX4JNi+44IJUmHHzzTfrnXfeyetxQ0NDevjhh/N+nsHBwdTPO3bsyHq/3//+93lvMxNztJVkjHDK10EHHaRp06YV/Lh0/f39+sY3vqHXXntNkvT3f//3uuiiiyxtq5TcUgMIqwBUjl++5QEAgKPlE1SZ3BxYlYoZVCUSxu9W9j393zyRILACAFSe1y9UQWn5KdicPXu2rrrqKklGiPQP//APam9vz/mYt99+Wy0tLfr1r3+d9/PsvffeqqqqkiQ9+OCDGdejeuKJJ7Rq1aqs2+js7My5tlYymdRzzz0nyRg1VpfW5/jHP/5R/f39WR+7bt06bdu2TZKGPS5fO3fu1LJly9TR0SFJOv/883XZZZcVvB0/Y80qAJUx1lFhpr8zQbQl8XhckhQMBm1uCQC7UAeA7AoJqkzm7W46VCllHWhr2x1UmQrZ90z/5omEsd1QqOjmAciBYwLAUOiFKpK7vvdzoQ4ULt9gU/LO++S0007Tpk2bdNNNN2nr1q269NJL1dTUpOOOO0777ruvpkyZom3btmnDhg166qmn9Oyzz2pwcFAHHnhg3s9RW1uro48+Wk899ZSeeeYZff3rX9fZZ5+tuXPnauvWrXr00Uf1wAMPqL6+Xn19fXr//fdHbeP111/XP//zP2vBggVasmSJDjroIM2cOVO7du1Sd3e3Vq9enQqrlixZolmzZqUeG41G9eMf/1jHHXecDj30UDU0NKimpkaJREIvvvhiKiQbP368zjjjjIL/Db/zne+ora1NkhQKhXT66afrzTffzHr/PfbYQw0NDQU/jxXxeNwVNYCwCkD5+fFb3kY9PT2SOBAF/Iw6AGQWjRYeVJlyHapUV0stLaVpY6mUsg60tEgDA9YO03IdBjrt3wzwIo4JAP9cqJINdaAwfg42L774Ys2bN0833HCDNm7cqLa2tlT4ksm8efO0dOnSgp7j29/+ti6++GLF43GtWbNGa9asGfb3YDCo5cuX6xvf+EbO7axbt07r1q3L+veDDz5Y3/ve90bd3tfXpwceeEAPPPBAxsdVV1fr6quv1oIFC/LYm+Eee+yx1M+xWEyf//znc95/7ty5Wr16dcHPY0VPT48ragBhFYDy8vO3PAAAcJSmJikQGD5KKJ+gypTpUCUQMLbrdVYO06x0DgIAUEp+ulAFxfN7sClJJ5xwgo499lg98sgjevrpp7Vu3Tq9//77+uCDDzRlyhTNnTtXCxcu1N/93d+psbExNa1fvoLBoH7zm9/o9ttv15/+9CfF43FVV1errq5Oxx13nM4///zUulGZfPrTn9aMGTP03HPPad26ddq8ebO2bNmiwcFBzZgxQ/Pnz9eJJ56oE088UePGDV8B6aabbtKTTz6pF154QRs2bNCWLVu0bds21dTUaO+999YRRxyhs846S3vvvbelfzsUj7AKQPnwLQ8AABwkFJJaW3evv2QlNEk/VAkEjO35ZSq7Qg7TCKoAAE7AhSrIF8HmbnvssYc+85nP6DOf+Yylxz///PM5/15bW6tvfOMbOUdPZRtxVF1draOPPlpHH310we2qr6/X5z//+TFHPFk11n5jbIRVAMqDb3kAAOBAZmDV1mb9kCIcNg5Jmpr8E1SZ8gmsCKoAAE7BhSrIF8EmYD/CKgDlwbc8AABwqFCo+E4mP187kyuwWrFC2rhx9GMIqgAAduFCFeSDYBOwH2EVgPLgW942tbW1djcBgM2oAwDKXQeyBVYEVYCzcEwAGPx8oQp1IH8Em/Aqt9SBqmQymbS7ESiNxsZGxeNxBYNBtbe3290cwBCLFfctLxlTCvItDwAA4DjZpvwzEVQBAIBCvfHGG9q1a5cmTJigAw44wO7mAI7i5c8HYZWHEFYBAAAAqLT6+swjqurqpO7uyrcHAAC4m5c744FiefnzMc7uBgAASqurq0tdXV12NwOAjagDACpVByKRzEGVZNweiZS9CQBy4JgAAHUAgFtqAGEVAHhMb2+vent77W4GABtRBwBUog6MNQWgZPydwAqwD8cEAKgDANxSAwirAAAAAAAFyRZU1dWNvo3ACgAAAMBYCKsAAAAAAHnLFlQtX26sUbV8+ei/EVgBAAAAyIWwCgAAAACQl1xBVThs/BwOE1gBAAAAKAxhFQAAAABgTPkEVSYCKwAAAKD0ksmk3U0omwl2NwAAUFpz5syxuwkAbEYdAFDqOlBIUGUybx/5OPP3bI8DUDocEwBwYx0YP368du3apV27dmlwcFDjx4+3u0mAIwwODmpwcFCSCvpcuKUOEFYBgMcEg0G7mwDAZtQBAKWsA9Fo4UGVKVdgVV0ttbSUpo0AMuOYAIAb68Cee+6pjz76SJLU29urmTNn2twiwBl6e3tTP++55555P84tdYBpAAEAAAAAWTU1SYHA8NvyCapMmaYEDASM7QIAAIxUW1ub+nnTpk3atGmT+vv7PT39GZBNMplUf39/6rNgmj59uo2tKg9GVgGAx3R2dkqS5s+fb3NLANiFOgCglHUgFJJaW6XmZimRKCyoMqWPsAoEjO2FQkU3DcAYOCYA4MY6UFNTo0AgoEQiIUnasmWLtmzZoqqqKqYEhO8MDg6OCmoDgYAmTpyY9zY6OztdUQMIqwDAY/r7++1uAgCbUQcAlLoOmIFVW5v1qfvCYWPqv6YmgiqgUjgmAODWOjB37lxVV1dr8+bNqduSyaR27dplY6sA++21114FT43pljpAWAUAAAAAGFMoVHzIxBpVAAAgH1VVVZo1a5amTZum7du364MPPtDAwICGhobsbhpQUePGjVN1dbUmT56sKVOmqLq62u4mlQ1hFQAAAAAAAADAcaqrqzVjxgzNmDHD7qYAKLNxdjcAAAAAAAAAAAAA/kVYBQAAAAAAAAAAUEKxmBSNFreNaNTYjh8wDSAAeExDQ4PdTQBgM+oAAOoAAIlaAIA6ANglFpOam6VEQhoYkMLhwrcRiUjLlkmBgNTaan39WLfUAcIqAPCY2tpau5sAwGbUAQDUAQAStQAAdQCwQ3pQJRmBk1RYYGUGVZKxneZm64GVW+oA0wACAAAAAAAAAACUQFvb7qDKtGyZEUDlIz2oMiUSxna9jLAKADymo6NDHR0ddjcDgI2oAwViInF4EHUAgEQtAEAdAOzQ0iItXz769nwCq0xBlWRsr6XFWnvcUgOYBhAAAAD+5aSJxAEAAAAAnmCeWo4MnnJNCZgrqLJyquo2jKwCAACAP2WaSDzfeRlMmSYSZ4QVUHYMiAQAAIDThcP5j7Dye1AlMbIKAAAAfpVtInEpv7OBXBOJM7oKKBsGRAIAAMAt8hlhRVBlYGQVAAAA/MlpE4kDGBMDIgEAAOA2uUZY1dcTVJkIqwAAAOBfhczLYOKyN8A22QZE5htY5RoQCVQCU1gCAOBP2U49N24cfZtfTy2ZBhAAPGb+/Pl2NwGAzagDBSpk5VuCKriEV+tAS4sx9V8hC1WbGBAJu9kxhaVXawGA/FEHAOfIduqZrhynlm6pA1XJZDJpdyNQGo2NjYrH4woGg2pvb7e7OQAAAO4yVhBFUAU4RqEfRz6+sNvIKSylwt9/I9/HrLkGAIA71ddnHlFVVyd1d1e+PU7BNIAA4DH9/f3q7++3uxkAbEQdsIiJxOEhXq8DhczgSVAFJ7BrCkuv1wIAY6MOAM4SiWQOqiTj9kLXY82HW2oAYRUAeExnZ6c6OzvtbgYAG1EHisBE4vAIP9SBfAIrgio4RUtL4UskmoqZwtIPtQBAbtQBwDmyfaenK+Rilny5pQYQVgEAAADpsvWAp6OnG3AEBkTCTQoZEWgicAUAwBuyfafX1Y2+rRyBlRsQVgEAAAAjhcOZzxok43Z6CAHHYEAk3IQpLAEA8J9c3+nd3dZHX3sNYRUAAAAwkh0TiQOwjAGRcBOmsAQAwD/y+U63MvraiwirAAAAgHR2TSQOoCgMiISbMIUlAADeV8jFJwRWhFUAAADAbkwkDrgWAyLhNkxhCQCAd1kZJe33wKoqmUwm7W4ESqOxsVHxeFzBYFDt7e12NwcAAMBdxjqbYE4mwLHyGRAp8XGFM431/uV9CwCAu0Sj0tKlo2/P9zs927HBypVSS0vx7XMqRlYBAAAATCQOuBYDIuF2TGEJAIC3NDVJgcDw2wq5+CTTqWcgYGzXywirAMBjent71dvba3czANiIOlAgJhKHB/mlDuT6+HZ383GFO5RzCku/1AIA2VEHgMoLhaTW1t2BlZVR0umnnoGAsb1QyFp73FIDJtjdAABAaXV1dUmSamtr7W0IANtQBwpgdSJxafTjzN+5BB4O4Ic6kO+ASImPK5wrnyksi3m/+qEWAMiNOgDYwwys2tqsT90XDkvV1caIKqtBlWTUATfUAMIqAAAA+FM0an0Nqlw94NXV3p5IHHCAQgdESgRWcJ5cU1iOHGnF+xUAAPcJhYoLmSR/nVoyDSAAAAD8iYnEAVeyOiCSKQHhJExh6Q6xmHFtSzGiUWM7AAAgN8IqAAAA+JPTJhIHMKZiB0RmCwCK7YwGCpHvFJYEVvaKxaTmZmnpUuv/5pGI8fjmZgIrAADGwjSAAAAA8C8nTSQOYEzmgMhEYvdthQ6IlIYHBQyIRCUxhaU7mEGVWWus/Junv9aJhLE9rmkBACA7wioA8Jiamhq7mwDAZtSBAjGRODzIq3XAzJfNTmSrAyIloxOZAZGoJKtTWErWAyuv1oJya2sbHopLhQVWmV7rRMLYLvUGlUYdAOCWOlCVTCaTdjcCpdHY2Kh4PK5gMKj29na7mwMAAAAAZRGLFTcgUjKm/mNAJColGjWmgxsp38A1W9C1ciXXS5SLlXCxmMcBAOB3jKwCAAAAALgKAyLhNkxh6T5WRrURVAEAYN04uxsAACiteDyueDxudzMA2Ig6AIA6ADiLOYVlIGD8bnUKy+XLjZ/zncKSWlCc9H/zdMuWGcFUOoIqOBV1AIBbagBhFQB4TE9Pj3p6euxuBgAbUQcAUAcA5zEDq5UrrYcX4bDx+HzXWqMWFG/JEumMM0bfnh5YjRVURaPG9KWAHagDANxSA5gGEAAAAAAAoAKYwtJdYjGpudmYvvGUU6QHHhj+92XLpBUrpI0bRz/WDKrMICvf0XAAAPgVYVUG7777rp544gm1tbXp1Vdf1caNG/XBBx9oypQpmjt3rg477DCdeeaZWrx4cV7bq6+vL+j5x48frw0bNlhpOgAAAAAAAIqUHlRJRlCVKbDKJ6iSjO00NxNYAQCQDWFVmpdfflnf/va3tXbt2ox/7+3tVW9vr1599VXdcccdWrx4sX76058WHEYBAAAAAADAudradgdVpmyBVbpMQZUpkTC2S1gFAMBohFVp3nrrrVFB1bx583TQQQdp+vTp2rZtm55//nn93//9nyTp2Wef1WmnnaZ77rlHDQ0NeT3HRRddNOZ9xo8fX3DbAQAAAAAAUBotLdLAwOjA6YEHpGnTpG3bRj+mri57UCUZQRbTOAIAkBlhVQb77LOPLrjgAn3uc5/T3Llzh/1taGhIq1at0jXXXKMdO3YoHo/r8ssv1/3336+qqqoxt33ttdeWq9kAIEmqra21uwkAbEYdAEAdACBRC4oVDhv/Hxk8ZQqqJGNKwFNPzTzyyhxxBVQadQCAW+pAVTKZTNrdCKd49tlntWHDBp199tljjm56+OGHdfHFF6d+v+OOO/TJT34y433Tpwns7u4uSVszaWxsVDweVzAYVHt7e9meBwAAAAAAwC+yjZTKF0EVAABjG2d3A5xk8eLFOu+88/Kahu+kk07SoYcemvr9kUceKWfTAAAAAAAAYINw2FirKpNp03I/lqAKAID8EFYV4fDDD0/9/O6779rYEgDYraurS11dXXY3A4CNqAMAqAMAJGpBqUQimaf2k4wpAbMFVqecQlAF+1EHALilBhBWFSF9jarBwUEbWwIAu/X29qq3t9fuZgCwEXUAAHUAgEQtKIV8pgDMtobVAw8YjwfsRB0A4JYaMMHuBrjZa6+9lvq5rq4ur8e0tbXpxRdf1ObNmzV+/HjNmDFDCxYs0OGHH64999yzXE0FAAAAAABAAbIFVaeckn2k1Ujm4xlhBQBAboRVFnV3d+vpp59O/X7sscfm9bizzjor4+2TJk3S5z//eV1xxRWaNWtWUW0bGhrSxo0bc94n33ANAAAAAADAb7IFVeYaVPX1Uqaul2nTRo+0IrACAGBsVclkMml3I9zokksu0UMPPSRJqq+v15NPPqmJEydmvG99fX3e250zZ47+8z//U42NjQW3qbGxUfF4PK/7mm1Pt2jRIknGsMBM81jW1NRo/vz5kqR4PK6enp5R96mtrVVDQ4MkYy7MTEMM58yZo2AwKEnq7OxUf3//qPs0NDSotrZWktTR0ZFxH+bPn6+amhr19/ers7Mz433YJ/bJj/u0ZcsWSdLMmTM9s08jsU/sE/uUe5/MOrBgwQLP7JPJS68T+8Q+lXOf+vr6NHXqVC1atMgz++TF14l9Yp/KvU/PPvusduzYkTo38MI+VeJ1+vWva7V0qXTppcP36aijpEWLpMcem68rr6zR9On9Ovfc0fvU0CB95zvGPs2b16vmZmOfjjlGWrjQnn3y4uvEPuW3TyP7CLywTyOxT+wT+5R7n7Zs2aITTjgh42OchDWrLFi1atWwsOfqq6/OGlRJ0sSJE3Xqqafq+uuv16OPPqrOzk698847evHFF3X77bfr5JNPTq1/1dPToy996Ut66623yr4fAAAAAAAAGK6pSQoEht9mBlUdHdIPf5j78V1dxlSB6aqrpTlzSttOwC1iMenPfy5uG9Go9MorpWkPAGdiZFWBOjo69LnPfS6Vbp5xxhn6j//4j5yP2bp1q2bMmJHzPq2trfrqV7+a2u4xxxyj3/72twW1zRxZNXv2bD344IM578s0gIB3mSMszSsyAPgPdQAAdQCARC0oRiwmNTdLicTuqf+yTQ1YV5d5SkBzbatAQGptlUKh8rcbGMnuOpDps1Qo87PHZwmwJh6Pu+JYgLCqABs2bNDpp5+uTZs2SZI+/vGP695779XUqVNLsv077rhDV111Ver3hx9+WAcffHDejzfDqmAwqPb29pK0CQAAAAAAwI9iMamtTWppGXsNq2x/P+MM6TvfoXMd/pQeVJkKDaxGfrYIrADvYhrAPPX09Oj8889PBVUNDQ264447ShZUSdL5558/bH2rRx99tGTbBgAAAAAAQP5CofyCKsn4//Llo+9z333SE0+UtZmAY7W1DQ+qJOOzFInk9/hMn71EwtguAO8hrMrD1q1bdf755+udd96RZCx4dtddd2lOiScbHjdunI4++ujU72+++WZJtw/AHzo7O7MuDAnAH6gDAKgDACRqQSnkE1SZsgVWhXTOA6VmZx1oabH+mcj12WtpKU37AL9wy7HABLsb4HR9fX36whe+kHpBZ8yYobvuuksf+9jHyvJ8s2fPTv28devWsjwHAG8z174D4F/UAQDUAQAStaBYhQRVJvP2kY8zf7eyXg9QDLvrgJXPhJXPHoDs7K4D+WJkVQ4ffvihLrzwQr300kuSpGnTpumOO+7QgQceWLbn3LFjR+rnPffcs2zPAwAAAAAAgMyiUeud5blGWEWjpWkf4CaFjDokqAL8i7Aqi/7+fl100UWKxWKSpEmTJulXv/qVDj744LI+78svv5z6udTTDAIAAAAAAAtiseJThmjU2A5coalJCgSG31ZIZ3mmzvlAwNgu4Ef5BFYEVYC/MQ1gBjt37tQll1yip59+WpI0ceJE3XbbbQqFQmV93jfffFPPP/986vfFixeX9fkAAAAAAMAYYjGpuVlKJKSBAWs9pmYPbCAgtbZKZe5fQPFCIeOlMl96K53l6dOf8dIDuacEXLFC2rhx9GMIqgD/IKwaYXBwUF//+tf16KOPSpImTJigm266SUuWLLG0vQ8++ECTJ08e8347duzQFVdcocHBQUnG2ljHH3+8pecEAAAAAAAlkB5USdYWHkofKpBIGNsjtXAFM7Bqa5NaWqxtIxyWqquNEVW85ED2wIqgCgBhVZpkMqlwOKwHH3xQkjRu3DitXLlSJ554ouVtHnnkkfryl7+sM888U/vvv3/G+8RiMV199dV69dVXU7d961vfyivkAoCRGhoa7G4CAJtRBwBQB4ASaWvbHVSZCgmsMs1plUgY261AckEtKF4oVPxLZTXoAkrBiXUgW2CVjqAKKB0n1oFMqpLJZNLuRjjFL3/5S333u99N/b7vvvvquOOOy/vx11577ajb6uvrUz8Hg0F9/OMf16xZszRx4kT19vbqz3/+s7q6uoY95qKLLsq4rbE0NjYqHo8rGAyqvb294McDAAAAAIARrC6iwuIrAJBTfX3mEVV1dVJ3d+XbA8BejKxKs2XLlmG/r1+/XuvXr8/78WMFTPF4XPF4POvfa2tr9d3vflcXXHBB3s8JAAAAAADKKNciK+l/T0dQBQA5RSKZgyrJuD0SoVwCfkNYVWZPPvmk2tvb1d7ernXr1mnLli16//33U2tZzZw5UwcffLCOPfZYnX766Zo0aZLdTQbgch0dHZKkRYsW2dwSAHahDgCgDgAlVkhg5aCgiloAwIl1IFuZTGdliUAAmXV0dDiqBmRDWJUmHA4rXOIKOG/ePM2bN0/nnHNOSbcLAAAAAAAqKJ/AykFBFQA4UbYyWVc3eqQVgRXgL+PsbgAAAAAAAIArhMNG8DTSsmXG4isEVQCQVa48v7s7e3mNRMrfNgD2I6wCAAAAAADIV7bAKtPiKwRVACApv4Gnua4HILACvI+wCgAAAAAAoBDZelTTEVQBgKTCZkglsAL8i7AKAAAAAACgUOGwschKJnV1BFUAIGtL+RFYAf40we4GAABKa/78+XY3AYDNqAMAqANABUQimaf+k4zbIxHbAytqAQA760A0an0pP/PvIx+/bJlUXS21tJSmjYAfuOV4gLAKADympqbG7iYAsBl1AAB1ACizbEMF0pl/tzGwohYAsLMONDVJgYCUSOy+rZAZUjMFVoGAsV0A+XPL8QDTAAKAx/T396u/v9/uZgCwEXUAAHUAKKNsQVWmKQFtnrOKWgDAzjoQCkmtrUbAJFlbyi99SsBAwNheKFTadgJe55ZjAcIqAPCYzs5OdXZ22t0MADaiDgCgDgBlkmvxle5uxy2yQi0AYHcdMAOrlSutDzQNh43HE1QB1rjlWIBpAAEAAAAAAMaSK6gye2BzLbKS/ncA8JFQqPiQiTWqAO9jZBUAAAAAAEAu+QRVpvQ5q9LZPCUgYIdYTIpGi9tGNGpsBwDgbYysAgAAAAAAyKaQoMrECCtAsZjU3CwlEtLAgLW3vfnxY60iAPA+RlYBAAAAAABkEo0WHlSZco2wKnaoCeBw6UGVZG1gYXpOnEgY22OEFQB4F2EVAAAAAABAJk1NxpCOdPkEVaZMgVUgYGwX8LC2tt1BlamQwCrTgMZEwtguAMCbqpLJZNLuRqA0GhsbFY/HFQwG1d7ebndzAAAAAABwv/QhIoUEVemYyww+ZGUGzWIeBwBwN9asAgAAAAAAyCYUMgKmtjappcXaNsJhqbraGFFFUAWfsLJ0G0EVAPgX0wACgMf09vaqt7fX7mYAsBF1AAB1ACixUMh6UGVqaal4UOW1WhCLFb/cVzTKukeVlGvptpFTAhJUlYfX6gCAwrmlBjCyCgA8pqurS5JUW1trb0MA2IY6AIA6AEDyVi1In41xYIDZGN0knxFWBFXl46U6AMCarq4uV9QARlYBAAAAAADAsdKDKinzqJyxpIchiYSxPUZYVU6uEVb19QRVAADCKgAAAAAAADhYW9vuoMpUSGCVadROImFsF5WTLbDauHH0bQRVAOA/hFUAAAAAAABwrJaW/Nc9GinX9HLFLkOGwmULrNIRVAGAPxFWAQAAAAAAwNFyTSOXLbBiHSRnCoelurrMf6ur47UBAL8irAIAj6mpqVFNTY3dzQBgI+oAAOoAAMl7taCQwIqgyrkikcxT/0nG7YWuR4bcvFYHABTOLTWgKplMJu1uBEqjsbFR8XhcwWBQ7e3tdjcHAAAAAACg5MYKogiqnCvbazMSrxUA+A8jqwAAAAAAAOAauUZY1dcTVDlVtqAq05SA+axHBgDwFsIqAPCYeDyueDxudzMA2Ig6AIA6AEDydi3IFlhlml6OoMp+uUa7dXcXvh4Z8uflOgAgP26pAYRVAOAxPT096unpsbsZAGxEHQBAHQAgeb8WZAus0hFU2S+faRkLWY8MhfF6HQAwNrfUAMIqAAAAAAAAuFI4nHkaOcm4naDKXoWsH0ZgBQD+RlgFAAAAAAAAV4pEMk/9Jxm3E3LYp5CgykRgBQD+RVgFAAAAAAAA18kWhqQj5LBHNFp4UGXKFVhFo6VpHwDAeQirAAAAAAAA4CrZgqpMUwISWFVeU5MUCAy/rZD1wzIFVoGAsV0AgDcRVgGAx9TW1qq2ttbuZgCwEXUAAHUAgOTdWpBrernubqaRc4JQSGpt3R1YFRJUmdIDq0DA2F4oVNp2+oFX6wCA/LmlBlQlk8mk3Y1AaTQ2NioejysYDKq9vd3u5gAAAAAAAJRUvusgWVkvCaUXi0ltbVJLi/VtRKPGiCqCKgDwtgl2NwAAAAAAAAAYSyEBlPn7yPubvxNYVUYoVHzIVEzQBQBwD6YBBACP6erqUldXl93NAGAj6gAA6gAAyVu1wMpIqUzrHklMCQh/8VIdAGCNW2oAYRUAeExvb696e3vtbgYAG1EHAFAHAEjeqQXRqPUp/XIFVtFoadoHOJlX6gAA69xSAwirAAAAAAAA4FhNTVIgMPy2QtaeyhRYBQLGdgEAgDMQVgEAAAAAAMCxQiGptXV3YFVIUGVKD6wCAWN7xa6lBAAASmeC3Q0AAAAAAAAAcjEDq7Y2qaXF2jbCYam62hhRRVAFAICzEFYBAAAAAADA8UKh4kMmq0EXAAAoL8IqAPCYOXPm2N0EADajDgCgDgCQqAUAqAMA3FMHCKsAwGOCwaDdTQBgM+oAAOoAAIlaAIA6AMA9dWCc3Q0AAAAAAAAAAACAfxFWAYDHdHZ2qrOz0+5mALARdQAAdQCARC0AQB0AINfUAMIqAPCY/v5+9ff3290MVFosJkWjxW0jGjW2A9ejDgCgDgCQqAVOwaE67EQdAOCWGsCaVQAAuF0sJjU3S4mENDAghcOFbyMSkZYtkwIBqbVVCoVK304AAADAZzhUBwAgP4ysAgDAzdLPfiXjLDYSKWwb5tmvZGynuZnLNgEAAIAicagOAED+CKsAAHCztrbdZ7+mQs6C089+TYmEsV0AAAAAlnGoDgBA/girAABws5YWafny0bfncxac6exXMrbX0lKa9gEAAAA+xaE6AAD5Y80qAPCYhoYGu5uASjMnvh95Nmv+nmli/Fxnv1Ym0oejUAcAUAcASNQCJ+BQHXajDgBwSx0grAIAj6mtrbW7CbBDIWfBnP16HnUAAHUAgEQtcAoO1WEn6gAAt9QBpgEEAMArwuGx5xnh7BcAAACoOA7VAQDIrSqZTCbtbgRKo7GxUfF4XMFgUO3t7XY3B4BNOjo6JEmLFi2yuSWwTbaz3Lo6aePG0bdz9us51AEA1AEAErXAiThUR6VRBwB0dHS4ogYwsgoAAK/JdtkmZ78AAACArThUBwAgM8IqAAC8KNtZcDrOfgEAAICK41AdAIDRCKsAAPCqcNiYTySTujrOfgEAAACbcKgOAMBwhFUAAHhVJJJ5PhHJuN1cyRkAvCAWk6LR4rYRjRrbAQCgzDhUBwBguAl2NwAAAJRBtpWb05l/57JNAG4Xi0nNzVIiIQ0MWKtrZt0MBKTWVikUKn07AQAQh+oAAGRSlUwmk3Y3AqXR2NioeDyuYDCo9vZ2u5sDwCb9/f2SpJqaGptbAttkO/utq2PlZp+gDsBX0oMqU6F1bWTd9EBgRR0AIFELnIhDdVQadQBAf3+/K2oA0wACgMfU1NS44gsIZZLt7Hf5cqm7O/NKzsuWMc+Ix1AH4CttbcODKqmwupapbiYSxnZdjDoAQKIWOA2H6rADdQCAW2oAYRUAeEx/f3/qyin4TK6zX/NyzHCYs2AfoA7AV1parNe1XHWzpaU07bMJdQCARC1wEg7VYRfqAAC31ADCKgDwmM7OTnV2dtrdDFRaPme/Js6CPY86AN+xUtcKqZsuRB0AIFELnIJDddiJOgDALTWAsAoAALez0uHKWTAArymkrnk8qAIAOAeH6gAA5IewCgAAN4tGrXe45joLjkZL0z4AqKR8evcIqgAAFcKhOgAA+SOsAgDAzZqapEBg+G2FdLhmOgsOBIztAoAb5erdq68nqAIAVAyH6gAA5I+wCgAANwuFpNbW3WfBVjpc08+CAwFje6FQadsJAJWULbDauHH0bQRVAIAy4VAdAID8TbC7AQAAoEjmWXBbm9TSYm0b4bBUXW1cpsnZLwAvMHsDM42kMhFUAQDKjEN1AADyU5VMJpN2NwKl0djYqHg8rmAwqPb2drubAwAAANivvj7ziKq6Oqm7u/LtcYJYrLheU8lYMIVeUwAAAAAlwjSAAAAAALwpEskcVEnG7ZFIZdvjBLGY1NwsLV1qff8jEePxzc3G9gAAAACgSIRVAOAxvb296u3ttbsZAGxEHQBkBCq5pgCUjL97NLDKWAfMoCqRMH63sv/p/66JBIEV4HAcEwCgDgBwSw1gzSoA8Jiuri5JUm1trb0NAWAb6gB8L1tQVVc3eqSVeT+PrV2VsQ60te0OqkyF7H+mf9dEwtgu0wECjsQxAQDqAICuri5X1ABGVgEAAADwjmxB1fLlxhpVy5eP/puHR1gN09Jiff9z/bsWs/YVAAAAAIiwCgAAAIBX5ApUzJFD4bC/Aysr+5/PvysAAAAAFIGwCgAAAID7FRKoEFjlv/8EVQAAAAAqgLAKAAAAgLtZCVQIrMbef4IqAAAAABUywe4GAABKq6amxu4mALAZdQC+Eo1aD1TMv498/LJlUnW1q9diyqsO5Nr/FSukjRtHP4agCnAVjgkAUAcAuKUOVCWTyaTdjUBpNDY2Kh6PKxgMqr293e7mAAAAAOUXi0nNzVIisfu2QgOVkSOIAgGptVUKhUrXTifLNoJqJIIqAAAAAGXCNIAAAAAA3CsUMoKlQMD43Uqgkj4lnt+CKin7lIDpCKoAAAAAlBEjqzyEkVUAJCkej0uSgsGgzS0BYBfqAHwpFpPa2oqbui8alZqaPBFUWaoD9fWZp/6rq5O6u0vUMgCVxDEBAOoAADMzcDpGVgGAx/T09Kinp8fuZgCwEXUAvhQKFb/GVEuLJ4IqyUIdiEQyB1WScXskUpqGAagojgkAUAcAuKUGEFYBAAAAgJ/ls2bVsmUEVgAAAADKhrAKAAAAAPwqW1BVVzf6NgIrAAAAAGVCWAUAAFApsZixJk4xolFjOwBQrGxB1fLlxhpVy5eP/huBFQAAAIAymGB3AwAAAHwhFpOam6VEQhoYkMLhwrdhdiwHAlJrq2fW1gFgg1xBlVmfzP+PvJ/5u5U6BgAAAAAZEFYBgMfU1tba3QQAI6UHVZK1jt70juVEwthelsCKOgAgZx3IJ6gyEVgBrsYxAQDqAAC31AHCKgDwmIaGBrubAGCktrbdQZWpkI7eTB3LiYSx3QxhFXUAQNY6UEhQZSKwAlyLYwIA1AEAbqkDrFkFAABQbi0t1td+ydWx3NJSmvYB8IdotPCgyhQOZ69jxa7FBwAAAMD3CKsAwGO6urrU1dVldzMAjJSrozdbYGVlBISoAwCy1IGmJmPNu3T5BFWmTHUsEDC2C8CROCYAQB0A4JYaQFgFAB7T29ur3t5eu5sBIJNCAiuLQZVEHQCQpQ6EQsZad2ZgVUhQZUqvY4FA1rXzADgDxwQAqAMA3FIDWLMKAACgkvJZ+6WIoAoAcjIDq7Y261OJhsNSdbUxooqgCgAAAEAJEFYBAABUWq7AasUKaePG0Y8hqAJQKqFQ8SETa+YBAAAAKCGmAQQAALBDtikBCaoAAAAAAIDPEFYBAADYJVtglY6gCgAAAAAAeBzTAAKAx8yZM8fuJgAoRDicfeq/ujpLQRV1AAB1AIBELQBAHQDgnjpAWAUAHhMMBu1uAoBCRCKZgyrJuD0SKTiwog4AoA4AkKgFAKgDANxTB5gGEAAAwC6RiLRsWe77LFtm3A8AAAAAAMCjCKsAwGM6OzvV2dlpdzMAjCVbUFVXN/q2AgMr6gAA6gAAiVoAgDoAQK6pAYRVAOAx/f396u/vt7sZAHLJFlQtXy51dxv/H6mAwIo6AIA6AECiFgCgDgCQa2oAYRUAAEAl5QqqzLWpwuGiAysAAAAAAAC3IKwCAAColHyCKhOBFQAAAAAA8AnCKgAAgEooJKgyEVgBAAAAAAAfIKwCAAAot2i08KDKlCuwikZL0z4AAAAAAAAbTbC7AQCA0mpoaLC7CQBGamqSAgEpkdh9Wz5Blcm8X3rgFQgY282AOgCAOgBAohYAoA4AcE8dIKwCAI+pra21uwkARgqFpNZWqbnZCKwKCapM6YFVIGBsLxTKeFfqAADqAACJWgCAOgDAPXWAsAoAAKASzMCqrU1qabG2jXBYqq42RlRlCaoAAAAAAADchrAKADymo6NDkrRo0SKbWwJglFCo+JApj6CLOgCAOgBAohYAoA4AMOqAG2rAOLsbAAAAAADwj1hMikaL20Y0amwHAAAAgDcQVgEAAPvQYwkAvhKLGcv3LV0qRSLWthGJGI9vbqb8AwAAwD50aZQW0wACAAB7mD2WiYQ0MGCsx1SoSERatkwKBIz1oFjHCQAcK73sS0b5lgor/2bZl4ztNDdT/gEAAFB5dGmUHiOrAABA5WXqsSz0EvtMPZZcjgQAjtXWtrvsmwop/+ll35RIGNsFAAAAKoUujfIgrAIAAJVHjyUA+E5Li7R8+ejb8yn/mcq+ZGyvpaU07QMAAADyQZdGeTANIAB4zPz58+1uAjC2lhZjnPzIo7N85oSix3JM1AEATq0DZnkvpPxnK/tnnCEtWVLS5gGe49RaAKByqANA6bmtS8MtdYCRVQDgMTU1NaqpqbG7GcDYwuHCL7HPdVRnZYJoj6IOAHByHViyRMrUtEzlP1vZP+UU6b77mC4FGIuTawGAyqAOAOXhpi4Nt9QAwioA8Jj+/n719/fb3QwgP4Uc3RFU5Y06AMCpdcCc3z9b09LLf66g6oEHjJ+Z3x/Izam1AEDlUAeA8nFLl4ZbagBhFQB4TGdnpzo7O+1uBpC/fI7uCKoKQh0A4NQ6kGl+/5GWLZPq68cOqkzM7w9k59RaAKByqANAebmhS8MtNYCwCgAA2C/X0V22HkuCKgBwnZaWzOV+pI0bR9+WKaiSWLIQAAAA9qJLozQIqwAAgDNkO7rL1GPJUR0AuFa2cp9LrqCKrwMAAADYjS6N4hFWAQAA58inB5OjOgBwvUICq2nTCKoAAADgfHRpFIewCgAAOEs4LNXVZf5bXR1HdQDgEfkGVtu2jb6Nk3wAAAA4EV0a1hFWAQAAZ4lEMo+Tl4zbzRVKAQCuFw4bU/wVgqAKAAAATkWXhnVVyWQyaXcjUBqNjY2Kx+MKBoNqb2+3uzkAABQuEsm88uhI9FQCgCfkW/ZNp5wirV5dvvYAAAAAVtGlURxGVgEAAGfIdlSXafz8smVcjgQALldoUCUZa1dR/gEAAOA0dGkUj7AKADymt7dXvb29djcDKEy2o7rly6Xu7syLmnB0lxV1AIDT60C2sj9t2tiPpfwD+XN6LQBQftQBoPyc3qXhlhowwe4GAABKq6urS5JUW1trb0OAfOU6qjPHxZv/H3k/83fGzw9DHQDg5DqQreyfcooxcioflH8gP06uBQAqgzoAlJcbujS6urpcUQMYWQUAAOyTz1GdKRy2/3IkAEBRShFUmSj/AAAAsBNdGqVFWAUAAOxRyFGdiaM7AHCtaLSwoCrT/P4jLVtmbBcAAACoJLo0So+wCgAAVF62HstcR3WmXEd39FgCgGM1NUmBwPDbsgVVueb3TxcIGNsFAAAAKoUujfIgrAIAAJWXqccyn6M6U6ajO3osAcDRQiGptXV3+c8VVKXP758tsKqpMbYXCpWnvQAAAEAmdGmUB2EVAHhMTU2Nampq7G4GkNvIHstCjupM6Ud3gQA9lmmoAwCcWgfM8n/GGWMHVaZsgVV/v/TEE2VpJuAZTq0FACqHOgCUntu6NNxSA6qSyWTS7kY4zbvvvqsnnnhCbW1tevXVV7Vx40Z98MEHmjJliubOnavDDjtMZ555phYvXlzwtl988UX99re/1bPPPqv/+7//kyTNnTtXixcv1nnnnadDDjnEcrsbGxsVj8cVDAbV3t5ueTsAAFRMLCa1tUktLda3EY0alx8RVAGAK1iZ37+YxwEAAADlQJdGaRFWpXn55Zf17W9/W2vXrs3r/osXL9ZPf/pT1dfXj3nfgYEB/ehHP9Jtt92mbP/kVVVV+spXvqJrrrlGe+yxR0FtlwirAAAAADhbNCotXTr69nwDp2yB1cqVxXUSAAAAALDXBLsb4CRvvfXWqKBq3rx5OuiggzR9+nRt27ZNzz//fGpE1LPPPqvTTjtN99xzjxoaGnJu+1vf+pZ+97vfpX5vaGjQYYcdJkl64YUX1NXVpWQyqVtuuUXbt29XJBIp8d4B8It4PC5JCgaDNrcEgF2oAwCcWgfM+f0Tid23FTq/vzQ8sGJ+fyA7p9YCAJVDHQBgDnBxOsKqDPbZZx9dcMEF+tznPqe5c+cO+9vQ0JBWrVqla665Rjt27FA8Htfll1+u+++/X1VVVRm3d9ddd6WCqnHjxun73/++vvKVr2jcuHGpbd5666364Q9/qKGhId11111qamrSOeecU94dBeBJPT09kjgQBfyMOgDAqXXAnN+/udkIrKzO7y8ZgRVLFgK5ObUWAKgc6gCAnp4eV9QAwqo0s2fP1ooVK3T22Wdr/PjxGe8zbtw4ff7zn1cgENDFF18syRgZ9ac//Umf/OQnR93/o48+GjZK6rLLLtMll1wyapuXXHKJNm/erP/4j/+QJC1fvlynn366qqurS7R3AAAAAGA/M7AqZn7/cFiqrmZ+fwAAAMArxtndACdZvHixzjvvvKxBVbqTTjpJhx56aOr3Rx55JOP9/vjHP2rjxo2SpGnTpumKK67Ius0rr7xSU6dOlSS99957WbcJwGdiMWOBh2JEo8Z2AAAAHCAUKn6NqZYWgioAAADAKwirinD44Yenfn733Xcz3ud//ud/Uj+feuqpmjRpUtbtTZo0Saeeemrq94cffrgErQTgarGYMU/O0qXGiuJWRCLG45ubCawAAAAAAAAAOA5hVRHS16gaHBzMeJ9nnnkm9fNRRx015jbT7/P0008X0ToArmcGVeYK5MuWFR5YRSK7VyBPJAisAAAAAAAAADgOa1YV4bXXXkv9XFdXN+rv27ZtSy1iKEmf+MQnxtzmwoULUz/H43H19fWlpgYE4DNtbbuDKpMZPOVYiby2ttb4IT2oMiUSxnaZMwfwtFQdAOBb1AEAErUAAHUAgHvqAGGVRd3d3cNGPh177LGj7vPWW28N+72+vn7M7Y68z1tvvaVDDjmkoLYNDQ2l1snKJlO4BsBhWlqkgYHRgdMYgVVDQ0PmoEqSli8vfoEIAI7X0NBgdxMA2Iw6AECiFgCgDgBwTx0grLLoBz/4QWrqv/r6ejU3N4+6z/vvv5/6eerUqTnXqzJNmjRJU6ZM0fbt2yVJvb29Bbdt06ZNCo0xauKhhx4adduiRYtSz9nV1TXq7zU1NZo/f74kY9RX+qgxU21tberN39XVlbH9c+bMUTAYlCR1dnaqv79/1H0aGhpSiW9HR0fGfZg/f75qamrU39+vzs7OjPdhn9gn1+/TXwOprj/8Qb377bf7j2+8If3qV5pz4omj96mjw/j7pZca+9Taqtq335aWL1fHpz5l/N3OffLi68Q+sU/sE/vEPrFP7BP7xD6xT+wT+8Q+sU/sE/vEPrFPDt0nc1+cjDWrLFi1atWwsOfqq6/WxIkTR93vgw8+SP1cU1OT9/bT75u+DQA+FQ5L5547+vZnnpHuvXf4bR0d6tuwQX177z389uXLc04dCMBb+vr61NfXZ3czANhoy5YtGU+oAfjLpk2bOCbwgFhMeuSR4rYRjbJ8sV9xbgDALTWgKplMJu1uhJt0dHToc5/7XCrdPOOMM/Qf//EfGe/7u9/9Tt/4xjckGdPuxfI8KgiFQqlp/FauXKmzzjorr8c1NjYqHo9r9uzZevDBB3Pel2kAARfKNbVfOJz6e8dfR1Qtuvnm4X8H4BvmVVZuuHIKQHlQBwBI1AIviMWk5mZj+WGrp3bmqWQgILW2soSx31AHAHR0dLiiBjANYAE2bNigiy66KBVUffzjH9d1112X9f7po6127tyZ9/MMDAykfi5kRJZp3LhxhFGAF5lnJZnWsFqxQsq0Vh1BlX/FYlJbW3FrlEWjUlMTZ7MAAACADdKDKmnM5YszSr/mMZEwtkdgBQBwIsKqPPX09Oj888/Xpk2bJBlzRN5xxx2aOnVq1sdMnjw59XOmeSazSb9v+jYAIGtgRVCFdOlntQMDXH4JAAAAuFBb2+6gylRIYJVpco5Ewtguh/cAAKdhzao8bN26Veeff77eeecdScaCZ3fddZfmzJmT83HTp09P/dzX15dXYLVjxw5t37499bu5aBoApITDRhCVy1FHEVT5VabLLyORwraR6fJLJrgHAAAAKqqlJfOpXz6H+LlmkS9m8gUAAMqFsGoMfX19+sIXvqDOzk5J0owZM3TXXXfpYx/72JiP3W+//Yb9/t577435mO7u7pzbAABJRhCVbbrPyZMlF8xDizLJdvllvoFVrssvAQAAAFRUtmsVcx3ij7XcMQAATsQ0gDl8+OGHuvDCC/XSSy9JkqZNm6Y77rhDBx54YF6PnzZtmubMmaOenh5J0iuvvKL9998/52P+/Oc/p34OBoM5pxkE4GORSOap/yTN+dOfpP33J7Dyq5YWY+q/TGubSbnPTrn80jPGGv0NwPuoAwAkaoFX5Fq+OP3vEkEVRqMOAHBLHWBkVRb9/f266KKLFPvrtEeTJk3Sr371Kx188MEFbeeoo45K/fzMM8+Mef9nn3029fPRRx9d0HMB8IlsZx9/FWxvV/Cyywqf+g3eweWXvhcMBhUMBu1uBgAbUQcASNQCL8nnEJ9DemRCHQDglhpAWJXBzp07dckll+jpp5+WJE2cOFG33XabQhZWn/z0pz+d+nn16tXasWNH1vvu2LFDDzzwQOr3z3zmMwU/HwCPy3b2kWlKQCtrFcE7CgmsOKsFAAAAHC/XIX59PYf0AAB3I6waYXBwUF//+tf16KOPSpImTJigm266SUuWLLG0vRNPPFFz586VJCUSCa1cuTLrfW+44QYl/rrOyN57761PfepTlp4TgEflChS6u1NnLZ3nnqvOc881/kZg5W9cfulbnZ2dqfU2AfgTdQCARC3womyH+JlmieeQHhJ1AIBcUwMIq9Ikk0mFw2E9+OCDkqRx48Zp5cqVOvHEEy1vc+LEiVqW1gn4s5/9TLfeequGhoZStw0NDenWW2/VjTfemLpt2bJlqq6utvy8ADwmn0Dhr2ct/dOnq3/69N33IbDyNy6/9KX+/n719/fb3QwANqIOAJCoBV6V7RA/HYf0MFEHALilBkywuwFOcvvtt+vuu+9O/d7Q0KA1a9ZozZo1eT3+2muvzXj75z//eT3zzDP6/e9/r6GhIX3/+9/XbbfdpsMOO0yS9MILL+idd95J3f+8887TOeecY31HAHhLISNfwmHpV7+SRq6Rl2nlXfhHthWZufwSAAAAHhWLSW1tUkuL9W1Eo1JTk2RhVYiyC4elFSsyH9LX1XFIDwBwH8KqNFu2bBn2+/r167V+/fq8H58trJKk5cuXa9q0afrlL3+pZDKpd955Z1hAJUlVVVX6+7//e33ve98rqN0APMzKFG2LFhn/v/nm4bcTWPlbtsAqHUEVAAAAPCAWk5qbpURCGhiwdohrnooFAlJrq/MCq0gkc1AlGbdHIhzaAwDchWkAK6S6ulo/+tGPtHr1an3xi1/Ufvvtp8mTJ2vy5Mnab7/99MUvflEPPPCAfvjDH2qPPfawu7kAnCAatT5F26JF2ad+i0ZL0z64TzhsXGaZCZdfAgAAwAPSgyrJ2qzo6dcMJhLG9mKx0razGNmuaUzHbPAAALdhZFWacDiscJk76g499FAdeuihZX0OAB7R1GRcxmeeZUmFjXzJNJImEDC2C3/i8ksAAAB4XFvb8FMoqbBJJjIFQYmEsV0njK7KFlTV1Y0+1GdyDQCAmzCyCgCcKhQy5psIBIzf8wyqGhoa1NDQYPySvvKuU+evQGVw+aWvDKsDAHyJOgBA8mctaGnJPsnEWIe6uWZhL2btq1LJ1b7ubuv7DW/zYx0AMJxbagAjqwDAyczAqoCVgWtra4ffEA5L1dXOXRkY5cfll74zqg4A8B3qAADJv7Ug23KtuQ51rSwXXEn5tM/KfsP7/FoHAOzmljrAyCoAcLpQqPjL+FpaCKr8issvAe+JxYpffzAaddbiGwAAlFj6JBPpMh3qeiGoMhWy3wAAOAlhFQB/8FHHXkdHhzo6OuxuBpwg38svOZv1HOqAh5mrxi9dav0zGokYj3faavEoKeoAAIlakM+hrpeCKhOH+Ejn9zoAQK6pAYRVALyPjj34EZdfAt5jfp+Zq8Zb+Yym14ZEgu81AIDn5TrUra93dlAVjVpvX679LvY6TgAAyoGwCoC30bEHP+LyS8Cb2tp2f5+ZCvmMZqoNiYSxXQAAPCzboe7I5Vsl5wRVkrHscCAw/LZC2pdpvwMBY7sAADgNYRUAb6Njz398NOVjRlx+CXhXS4v1UDlXiF3suogAALhAtkPddE4KqiRj2eHW1t2BlZX2pe93IGBsj+WMAQBONMHuBgBAWbW0SAMDozvozN9zHenTsec+6SPpBgasnWmar7tbz+TMyy/TQ9pCL7+Uhr/3ufwScI5Mn9H03zN91p2+GAcAABUSDksrVmQeUVVX58yvRTOwamuzfhoaDkvV1cYhvdtObwAA/sHIKgDeZ2V6Mzr23IcpHw1cfgmUh5NGbRbyvcb3GQAAKZFI5qBKMm536uzXoVDx10u2tHBIDwBwNkZWAfCHQq5Ed3nH3vz58+1ugj2yTfko5fe65Zry0W1ndVx+6Xu+rQPl4sRRm/l8r7n8+wzFoQ4AkKgF6bJ9LaYr5PQBcAvqAAC31IGqZDKZtLsRKI3GxkbF43EFg0G1t7fb3RzAmcbquKNjz92svn687gCyGTlqUyq8NoysMaUcsZitftXVOX/VeAAAKoSvSwAAnI9pAAH4S66pk+rrPRFY9Pf3q7+/3+5m2IMpHwFJPq8DpZZt1Ga+8wTlGrVZCtnqHj1vvkcdACBRC6Tch/vd3YWfPgBuQx0A4JYaQFgFeIGT1tFwA4937HV2dqqzs9PuZtiHtVwA6kAptbRY78XKVWOKXXgiXba6N/I5qWu+Qh2AX3AqlJvfa0E+h/tWrncD3MTvdQCAXFMDWLMKcDsnrqPhBtnW+khHx557sZYLgFIqZN1DU6VrTDgsrViR+cKLujrqGgBP4lQIuRTyVWzlqx4AAJQWI6sANxu5joaVS7/Sj+ATCWN7Xr2scKRw2OjAy4SOPffzwZSPACrI6aM2I5HMQZVk3M6l4QA8hlMh5GLlq5gRVgAA2IuwCnAzp6+j4XR07Hmfx6d8BFBh+fRi2RVU5RopLNHTBsBzOBVCNtGo9a/iXF/1xU43CQAAciOsAtzMDetoOBUde/7BWi4ASslpozazfZ9lGjnM9xoAD+FUCNk0NRnTOqYr5Ks401d9IGBsFwAAlA9hFeB2VuYq8PtaPXTs+Q9TPgIoJaeM2sz1fd7dzVxGADyPUyFkEgoZ64+ZgZWV1zb9vcV6ZgAAVEZVMplM2t0IlEZjY6Pi8biCwaDa29vtbg4qLd+zLr+fnY21/37/9/GqsUbS8foCsMLO2sL3PgCkUBKRSSxmTOtYzGi5aNQYUUVQBQBA+RFWeQhhFQhixsBZrD/lM+WjxOsLwJr6+swjqurqjNFN5VDo9xTfawB8gFMhAAAAd2MaQMBLnLaOhpMUcnZqZT4RB+nt7VVvb6/dzXAGpnyET1EHKiQSyRxUScbt5agpVnpbXf69BmuoA/AbToUyoxYAoA4AcEsNIKwCvMYp62g4ic869rq6utTV1WV3M+zHWi7wMepABeQzarPUNSUatd7bmut7LRotTfvgKNQB+BGnQqNRCwBQBwC4pQYQVgFelO0sLZ1fzs7o2POnfAJKFweSAGxm16jNpqbdq8WbCvk+z1T3AgFjuwDgEZwKAQAAuBNhFeBV4XDmTjPJuN0vZ2d07PmPj6Z8BGADO0dthkJSa+vu7zUrva3pdS8QMLbHqvEAPIZTIQAAAPchrAK8yo51NJyIjj1/8dmUjwAqzAmjNs3vtZUrrfe2hsPG4/k+A+BRnAoBAAC4zwS7GwCgDPJdR0Pyx2WFZsdeW5vU0mJtG+GwVF1tjKiiY8+Zip3yURr9+GXLjNfd6vsGgHcUOmpTylxT0v9uVShU/HcRdQ2AR3EqBAAA4E6EVYDX5FpHY+TlhX46S/NRx15NTY3dTbCHOeVjIrH7tkKnfJSGf36Y8hEu5ds6UC5WR21K5QusgDFQB+BHnAqNRi0AQB0A4JY6UJVMJpN2NwKl0djYqHg8rmAwqPb2drubAzuM1ZlmpbMNcJNYTGpuNgIrq+9r83PClI8AJGPU5tKlo2/Pt8Zk++5dudI1F0EAgBtwKgQAAOBujKwCvCLfdTQkrvKGdzHlI4BSY9QmADgep0IAAADux8gqD2FklY8VepkglxV6WjwelyQFg0GbWwLALtSBEmPUJlyIOgC/4FQoN2oBAOoAADMzcDpGVgFuxzoaGKGnp0cSB6KAn1EHSoxRm3Ah6gD8gFOhsVELAFAHAPT09LiiBhBWAW4WjVq/LDDXWVp1NetoAACQLhQqPmTiuxUASoZTIQAAAG8ZZ3cDABTBXEcjXaHraCxfPvw21tEAAAAA4HCcCgEAAHgLYRXgZua0ROZZmpWJ1tPP0lhHAwAAAIALcCoEAADgLUwDCLgd62gAAAAA8CFOhQAAALyDsArwAtbRQJra2lq7mwDAZtQBANQB+AWnQrlRCwBQBwC4pQ5UJZPJpN2NQGk0NjYqHo8rGAyqvb3d7uYAAAAAAAAAAACMiTWrAAAAAAAAAAAAYBvCKjhfLCZFo8VtIxo1tgP4QFdXl7q6uuxuBgAbUQcAUAcASNQCANQBAHJNDSCsgrPFYlJzs7R0qRSJWNtGJGI8vrmZwAq+0Nvbq97eXrubAcBG1AEA1AEAErUAAHUAgFxTAwir4FxmUJVIGL8vW1Z4YBWJGI+TjO0QWAEAAAAAAAAA4CiEVXCutrbdQZWpkMAqPagyJRLGdgEAAAAAAAAAgCMQVsG5Wlqk5ctH355PYJUpqJKM7bW0lKZ9AAAAAAAAAACgaIRVcLZwuPDAKldQFQ6Xtn0AAAAAAAAAAKAoE+xuADAmM2AaGUCZv6cHUARVgObMmWN3EwDYjDoAgDoAQKIWAKAOAHBPHSCsgjvkE1gRVAGSpGAwaHcTANiMOgCAOgBAohYAoA4AcE8dIKyCe+QKrFaskDZuHP0YgioAAAAAAAAAAByNNavgLtnWsCKoAlI6OzvV2dlpdzMA2Ig6AIA6AECiFgCgDgCQa2oAYRXcJ1tglY6gCj7W39+v/v5+u5sBwEbUAQDUAeQlFpOi0eK2EY0a24EjUQsAUAcAuKUGEFbBncJhqa4u89/q6qwHVZxoAQAAAPCDWExqbpaWLjXW/7UiEjEe39zMeRQAAACKQlgFd4pEMk/9Jxm3WznZ4kQLAAAAgB+YQVUiYfy+bFnh51CRyO71hBMJzqMAAABQFMIquE/6SVE2hZ5scaIFAAAAwC/a2nYHVaZCzqEynZMlEsZ2AQAAAAsIq+Au+QRVpnxPtjjRAgAAAOAnLS2Z1wHO5xwq2znZ8uXGdgEAAAALJtjdACBvuU6KpMx/M2/LtoYVJ1rwoIaGBrubAMBm1AEA1AGMyTxHGnk+lOscKtf5k9V1g1FW1ALA3WIx41rqYrqonn22QQsXlq5NANzHLccDhFVwh3xPigoJrDjRgkfV1tba3QQANqMOAKAOIC+FBFacP7kStQBwr/TlBQcGrJVao3TXKhCQWlulUKj07QTgfG45HmAaQDhfvidF4XDmqSyk0dNZcKIFAABGisWkaLS4bUSjrHsJwF2ynUeln0Nx/gQAFZUeVEmFL80usTw7APdhZBWcrdCTomxXBo68jRMteFhHR4ckadGiRTa3BIBdqAMWlO7SVXHpKpyAOoCC5BphtWKFtHHj6Mdw/uQK1ALAndradgdVprFWukiX3p126aVGHbj55kVqa+MQFfCjjo4OVxwLEFbBuaJRa6FSvoFVIdsEAADelenSVamwY4NMl64SWAFwk2znUQRVAFBxLS3G9VOFLCtoYnl2AG7FNIBwrqYm48rkdPmeFOWaEnAkTrQAAPC3bJeu5jvXSqYegUTC2C4AuEk+51GcPwFAReQzS+tI2YKqo46idANwPsIqOFcoZFyRbAZWhZ4UcaIFAADy0dJSeE+AiUtXAXhNOCzV1WX+W10d508AUEGFBFa5gioXzP4FAIRVcDgzsFq50tpJESdaAAAgH6W8dJWLYQC4WSSSeeo/ybg931GnAICSyOcwNddhKUEVALcgrILzhULWr0zmRAsAAOSrFJeuElQBcLNstS1dIdOkAgBKItdhan09h6UAvKEqmUwm7W4ESqOxsVHxeFzBYFDt7e12N8d++ZxoSXx7w3P6+/slSTU1NTa3BIBdqANFGiuIIqiCC1AHULBsta2uLvMFgNQ8V6AWAN5ipauLOgCgv7/fFTWAkVXwplwnWiNxZSA8pqamxhVfQADKhzpQJC5dhQdQB1CQXCF8d7f1df1gO2oB4C1WlmenDgBwSw0grIL3cKIFn+vv709dOQXAn6gDJZCtJ4DRBXAJ6gDyls9oUSvr+sERqAWA9xS6PDt1AIBbakBFwqre3l69/PLLeumll/SXv/zF0jYee+wxXX/99br++utL3Dp4CidagDo7O9XZ2Wl3MwDYiDpQIlYuXQUcgjqAvBQyrSnnUa5ELQC8p9Dl2akDANxSA8oaVj3++OM6/fTTdfDBB+ukk07SySefrEMPPVSf+tSn9Jvf/EaDg4N5b+uRRx5RJBLRihUrythiuBonWgDsFotJ0Whx24hGje0AcIZCL10FALewsv4e51EAYKt81qyiJANwq7KFVdddd50uvPBCvfDCCxoaGlIymUz919nZqauvvlqf/vSnXZPqweE40QJgt1hMam6Wli61XkMiEePxzc0EVoBTFHrpKgC4QTRqff29XOdRxV60AwDIiuXZAXhdWcKqX/3qV/rZz36WCqdGMm977bXX9NnPfla/+93vytEM+AUnWgDsZgZViYTxu5Uzg/Qzj0SCwApwAi5dBeBVTU1SIDD8tkKmNc10HhUIGNsFAJQcy7MD8IOSh1W9vb360Y9+pKqqKknSIYccol//+td67bXX1NnZqfvuu08XXHCBxo0bp6qqKn300Ue68sorddNNN5W6KfALTrQA2K2tbXdQZSrkzCDTmUciYWwXgD24dBWAl4VCUmvr7vMoK+vvpZ9HBQLG9kKh0rYTAFD08uwdHeVtHwCUSsnDqt/+9rf68MMPJUnHHnus7rnnHh1//PGaMmWKJk+erMMPP1w/+clP9OCDD+rAAw+UZIy0uvbaa/Vv//ZvpW4O/IATLQB2a2mxfilbrjOPlpbStA9AYbh0FYAfmOdRK1daX38vHDYez/kTAJRFKZZnf+YZAisA7lCVzDRPXxEuvPBCPfbYY6qurtZTTz2lumwLUkvasWOHrrjiCj344INGY6qq9OUvf1k/+tGPRt33mmuu0S9/+UtVVVXp3XffLWWTPaOxsVHxeFzBYFDt7e12N6fyYjFjFEIxnbvRqDGiihMtAFYUun6elfX2AJRXvp9LPr8AAAAoI6uHmxymAnCrko+sevXVV1VVVaXDDjssZ1AlSZMmTdLNN9+sr33ta6nbbr/9dl155ZUZ17oCcgqFih+F0NJCUAXAulxzL4wcccEZBOA8pbh0lRFWAAAAKBLLswPwo5KHVe+//74kad68eXk/5rvf/a6+853vpAKq3/3ud/rqV7+qXbt2lbp5AOB5vb296u3ttbsZ/pVPBzZBFcqMOmCBlc8lgRUcjDoAS2Kx4nsyo1FjO3AEagHgTqVcnn3evF7Nm9fL8uyAj7nlWGBCuTY8MDBQ0P0vu+wyTZ06Vd/5znckSQ899JC+8pWv6Be/+IUmTpxYjiYCgCd1dXVJkmpra+1tiJ+ZZxAjO76XLZNWrJA2bhz9GIIqlBB1oEDFXroqZf68V1ez9hxsQx1AwWIxqblZSiSkgQFrxyVm8M86wI5BLQDcyVxW0CzLVpdnl6Q33uhSdbV04YW1lGXAp7q6ulxxLFDykVUzZsyQJMXj8YIfe+GFF+qGG27QuHFGsx599FFdeOGF2rFjR0nbCABA2WUbcUFQBThPKS9dNXHpKgA3SQ+qJGsjRNNHqCYSxvYYYQUAlpmB1cqV1k8Xw2HpmGOkU0/l+gEAzlfysGr//fdXMpnU2rVrNTQ0VPDjzzrrLN14442aMMEY9PXss8/qvPPOU8I8aAYAwC2yBVbpCKoA+5k9AWZgZfXSVfPzzogCAG7T1rY7qDIVElhlmko1kTC2CwCwrBTLsy9cKM2eXZr2AEA5lTysOvjggyVJH374oZ5++mlL2zj55JP1n//5n6qurpYkrV27Vvfdd1+pmggAQOWEw1JdXea/1dURVAFOUapLV1euJKgC4D4tLdbX4Mu15h9ToQIAACBPJQ+rjjnmmNTPv/3tby1v51Of+pRuv/12TZo0SZKUTCaLbhsAABUXiWSe+k8ybi90ih3A72IxY42pYkSjmaemKsWlqy0tBFUA3CnbiPBcgVWuoIoLcgAAAFCAkodVTU1NCgQCSiaTevDBB/Xuu+9a3tYxxxyjO+64Q1OnTlVVVVUJWwkA3lVTU6Oamhq7mwEpewdOOitrQgBj8GwdMNdUWbrU+ucmEjEez1oq8DjP1gGUVyGBFUGVK1ALAFAHALilBlQlyzBk6Uc/+pFaW1slSWeccYauvPLKorb38ssv64ILLtDWrVtVVVVVVADmZY2NjYrH4woGg2pvb7e7OQDgb9k6cOrqMo+0omMHyM0MqtLXVCn0czPyc8naUgCQ2VhBFEEVAAAASqwsYRXsQVgFAA5BBw9QetGoMSJqpHw/N9k+dytXsqYKAGTChTcAAACooJJPAwgAsFc8Hlc8Hre7Gf6VTxBlZU0IoACerAMtLdY/N7k+lwRV7lLONcs8xpN1AJWV7XiFoMpVqAUAqAMA3FIDCKsAwGN6enrU09NjdzP8qZARUwRW5UFHtiQP1wErnxtGMnoHa5YVxLN1AJWVre6mo546GrUAAHUAgFtqAGEVAAClYKVDnMCqtOjI9odCPjcEVd4xcs0yK3Uy/f2QSPA5B/IVDhtT/2VSV0c9BQAAQEkQVgEAUKxo1HqHeK6O92JHCPkJHdn+kk9gRVDlLW1tuz/fpkI+55neD4mEsV0AuUUimaf+k4zbucAGAAAAJUBYBQBAsZqapEBg+G2FdIhn6ngPBIztIj90ZPtPrsCqvp6gymtYswywR7bPTzpGhAMAAKAECKsAAChWKCS1tu4OrKx0iKd3vAcCxvZCodK208voyPanbIFVphEABFXux5plQGVl+/xkmhKQwAoAAABFIqwCAI+pra1VbW2t3c3whlgs/6n4zMBq5crhHaDRaP5TyYXDxuMJqqyhIzsl7zpQyHs8m0Le4+WQ7XVP5/LXE2lYsyxvHA+gKLk+P93drLnpItQCANQBAG6pAVXJZDJpdyNQGo2NjYrH4woGg2pvb7e7OQByicWM6cWKGbURjRrTxBFqlEf6GkhWOzbNjh5GSlVWvh3UPu/I9tx7vL4+84iqujqjYxXeMtbn1++fb6AYfI8CAADABoysAoBKMzuIly61fvVpJGI8vrnZ3hENXpXeiS9Zu1I4vQMnkeC1qqR8Rl74vYPNa+/xSCRzUCUZt3Olv/ewZhlQHoV8P1oZ0QwAAABkQVgFAJVUgQ7irq4udXV1lajBPtXWtvs1MhXyWmXq6EkkjO2iMnzekT1mHfDSezxbx2o6Ok69iTXLcuJ4AAWzciEHgZXjUQsAUAcAuKUGEFYBQCVVoIO4t7dXvb29xbXT71parHe85OroKWbaRxTOxx3ZY9YBr7zHs7Wlrm70bXScehNrlmXF8QAKEo1av5AjV2BV7LqIKBq1AAB1AIBbagBhFQBUklc6iP3AypXCfp9azonoyM7O7e/xXG3p7uZKfz8JhzMHlJJxux8/3yi9WKz44CUade6UwE1NxvqD6Qqp7Zm+UwIBY7sAAABAHgirAKDS3N5B7CeFvFa8Rs5FR3Z2bn2P59MWpqbyD9YsQ7n5Yb3RUEhqbd0dWFmp7el1NxAwthcKlbadAAAA8KwJdjdAknbs2KFEIqHBwUHV19fb3RwAKD/z5H9kZ6v5e3rngJM6iP0on9eK18jZ8unI9vPr5Lb3eCFtKaTWwp3yXbNM4vWGNZnWG5UKez9lWm/UiUGOGVi1tVkftR8OS9XVxogqp+0fAAAAHM2WsCqZTOqBBx7QvffeqzVr1ijx1wP/qqoqbdiwYdh9t27dqvvvv1+SNG/ePC1ZsqTi7QWAsnBbB7Gf5XqtVqzwxRpIrkVHdn7c8h63UhMJrLwr15plI9+zvN6wKtt6o1J+76dc6406McwJhYpvF9NTAwAAwIKKh1Vvvvmmvva1r+m1116TZARXuUyfPl233HKLurq6NHv2bMViMY0bx+yFADyiDB3Ec+bMKWEDkZLttXJKJz5G83FHtqU64PT3eDRqPbzPVWurq+lYdaOxgstMf/fY53wsHA+USEuLNDBg7f3EeqNwAGoBAOoAALfUgYqmPm+88YZOP/10vfbaa0omk0omk9pzzz215557Zn1MVVWVvvSlLymZTGrTpk165plnKthiAKiAbOuqWOwgDgaDCgaDJWochsn2WqUjqHKGXB2E3d2eX8vIch1w8nu8qWn3WipW2pJp3wIBY7twF9YsywvHAyXEeqNwMWoBAOoAALfUgIqFVYODg7r44ouVSCSUTCZ19NFH6/7779frr7+uc889N+djTz311NTPTzzxRLmbCgCV5+QOYgwXDhsjczKpq+M1cgI6sovj1Pe4uZaKGVhZqYnpr3sg4Mw1Y5BboWuW8TlHqRTyfiKoAgAAAApWsbDqnnvu0VtvvaWqqiqddNJJ+u///m8ddthheT127ty5+tjHPiZJ6ujoKGczAcA+Jeog7uzsVGdnZwkbhmEikcyj3iTjdjpA7UVHtqQi64CT3+NmYLVypfUO33DYeLyVoCoWM6YjLEY0amwHhbO6ZplHP+dj4XigDPJ5PxFUwWGoBQCoAwDcUgMqFlb94Q9/kCRNnDhR1113XcHrTs2fP1/JZFLr168vR/MAwH4l6iDu7+9Xf39/CRuGlGwdUOl80AHqWF7vyC4gKMlaB8YKStzwHg+Fil/rpaXFWlDV3CwtXWp9/yMR4/HNzQRWhSp2zbJsn/Niw0cH43igTHK9n+rrCargONQCANQBAG6pARULq1566SVVVVXpiCOO0MyZMwt+/IwZMyRJ77//fqmbBgD2c0MHsd9le40yjYbjtao8r3dkVyIo4T2enfnvn0gYv1vZ//R/30SCwKpQrFkGJynxeqMAAAAAKhhWbd26VZK09957W3r8hAkTJBlrXwGAp9BB7Hy5Rux0d7tnZI6XebkjuxJBCe/x3Nradv/7mwrZ/0z/vomEsV3khzXL4DSsNwoAAACUVMXCqurqaknSrl27LD3eDLsCIzuiAMDN6CB2vnymlnPTVHJe5eWO7HIHJbzHx9bSYn3/c/37Fjudod/YvWYZMFKJ1hsFAAAAIE2o1BPNmjVL27dvt7zm1Nq1a1VVVaW6bCcDAOA2+XYQS6PvZ/5OJ0h5FbIGEq+V/cyO7LY26yFAOCxVVxsjqpzSkd3SIg0MWHtvjRWU8B7Pn5X9t7KOGnILhYr/bBISolTyWW+UzzoAAACQl4qFVY2NjVq/fr06Ojq0efNm7bXXXnk/9oknnlA8HldVVZWOPPLIMrYSACqkjB3EDQ0NJWqkz1npZPZ7Z74TeLUj20od+M1vcr+HeY8XrpD9J6iCzTgeKLN81xuV+MzDVtQCANQBAG6pAxWbBvAzn/mMJGnnzp368Y9/nPfjtm/fru9973up30855ZSStw0AKspqB3GeU1DV1taqtra2+Hb6WTRqvZM512sVjZamffCnQurArbeqNlPoZr6HeY9bl8/rQFAFB+B4oIxYbxQuQi0AQB0A4JYaUNGwasGCBUomk7r77rv1gx/8QAMDAzkf8+qrr+pzn/uc3nrrLVVVVemYY47RYYcdVqEWA0AZ0EHsDk1Nu9c+MhXSyZzptQoEjO0CxShVUMJ7vDi5Xof6eoIqwMtYbxQAAAAoi6pkMpms1JOtW7dOZ511lrZv3y5Jmj17tk466SStW7dOa9asUVVVlf7pn/5JmzdvViwW0/PPP69kMqlkMqmZM2fqoYceUn19faWa6zqNjY2Kx+MKBoNqb2+3uzkAMonFpOZmKZHYfVuhHZgjO0kCgWELxXd0dEiSFi1aVIoW+1f6a2W1k9l8rUa8RkDRcl3Vv3GjOi69VJK06OabjdszvYd5jxcvn2nAJIIq2ILjgTLId9QkoyvhINQCANQBAB0dHa6oARVbs0qSFixYoP/6r//SV7/6Vf3lL3/Rpk2bdPvtt0uSqqqqJEn//M//nLq/maPNmTNHt912G0EVAPcLhYwO3WI6iNPXTPFrB3ElmK9VW5v1NYzCYam62hhtwmuEUsq2dtLGjaPvm63O8B4vXrbXIR2d04A3lHG9UQAAAAAVDqskqampSa2trbruuut077335pwKcMKECfrc5z6nf/zHf9ScOXMq2EoAKCM6iN0jFCr+39fqawyMpRRBCe/x4oXD0ooVmYPCujo6pQEvsLreqERgBQAAAOSp4mGVJO21116KRCL67ne/qyeffFLt7e2Kx+Pq6+vTnnvuqVmzZumwww7Tcccdp2AwaEcTAaC86CAGUAq5gpLJk+kMrYRIJPO/v2TcHonwOgBuVux6o1LmwKq6mmM5AAAAIE3Fwqq+vr7Uz1OnTpUkzZgxQ6effrpOP/30SjUDAAD7xWLFjayTjM4zRtYhV1DywQcEJeWWz5pVXhpFQe2CHzU1GdMuW11vNFNgFQgY2wUAAACQMq5ST/Txj39cCxYs0HHHHafBwcFKPS0AAM4Sixlrli1danR0WxGJGI9vbja2B3/KNyix+j5Dbtn+/evqRt/mhdeB2gW/MqdvDgSM362uN7p8ufFzpdYbjcWMcLgY0SifVQAAAFRMxUZWjR8/XkNDQzriiCM0fvz4Sj0tAPjO/Pnz7W4CsjE7e82rs62MuEjvIE8kjO1VotPL75w2oiRXULJxo+avWrX7Ni+N7HGKsdavyfR3N78O1C5X4nighNy23mj6Z3ZgwFrdMT+zlQrXUDbUAgDUAQBuqQMVG1k1a9YsSVLAvCINAFAWNTU1qqmpsbsZyKStbfg0QlJhIy4ydYAnEsZ2UT5OG1GSKyjp7paWL1fN+++r5v33d//NCyN7nGKsoEoaPooinVtfB2qXK3E8UGKhUPFrTLW0VDaokqzVnUzhMiOsXItaAIA6AMAtNaBiYdU+++wjSerp6anUUwKAL/X396u/v9/uZiCTlhbrHdi5OshZoL18nNbpl2dQ0n/99eqfPn34fdwalDhJPv/+Ji8FVtQuV+J4wKcIlzECtQAAdQCAW2pAxcKqk046SclkUs8995x27NhRqacFAN/p7OxUZ2envY1gnYTsrHRgF9JBjtJyUqdfAe+DzuOPV+cNN4y+rxuDEqew8jn0UmBF7XIdRxwPoPIIlzECtQAAdQCAW2pAxcKqc889V3PnztX27dv14x//uFJP6190FAOwi9OmTHOiQjp96ey1l1M6/ay8DxYt8k5QYrdo1PrnMNfnvdhjtUqjdgHuQLgMAAAAF6pYWDVt2jTdeOONmjp1qv7rv/5L//iP/6ht27ZV6un9ZedOOooB2MNpU6Y5WT4dSXQcOYPdnX4EJfZrapJGrrtayGuZ6XUIBIztug21C3AHwmUAAAC4zIRKPdHdd98tSbrooot044036s4779Tvf/97HXfccVq4cKFmzpyZ90Jf55xzTjmb6n6bNw/vKJYKO8nI1FHc2lr+xYABuF+2KdOk/OpQrinTvFiDzH+Tkfu8bJm0YoW0cePox9BxZI9cr1X636XSd/qZQUn6Z6vQoCS9rZJ7gxK7hELGsZAZxlt5LdNfh0DA3cdW1C7AHfL57iKoAgAAgENULKy68sorVVVVlfo9mUyqv79ff/zjH/XHP/4x7+1UVVURVo0lmRz+Ox3FACqlpUUaGMivQ38kv66TkK0jic5e57Gr04+gxBnM16GtzXpNCoel6mojKHT7vz+1C3AHwmUAAAC4RMXCKskIqPK5DUUKBKSenuG30VEMoFIKGYFi8vtVvdn+zdL55d/C6ezq9CMocYZQqPh/Oy8dU1G7AHcgXAYAAIALVCUrlBZdeeWVJdvW9ddfX7JteUljY6Pi8biCwaDaL7igsI5fv3cUAyi9fOsK9We3+vrMHUd1dVJ3d+Xbg+yyvW9H8uP7GP5D7QLcYazvLr6zAAAAYKOKhVUov2FhVXs7HcUA7DdWfaH+7EYHkvvwmgF8DgC3IVwGAACAQ42zuwEoo3DY6CAYadkyo2NBoqMY8KDe3l719vba3QxDrjpUX0/9MeUzSie9dsMZwmGjcy+Tujpb38eOqgPwLmqXo1EHMEokkjmokozb+ax6ErUAAHUAgFtqAGGV19FRjFxiMSkaLW4b0aixHThGV1eXurq67G7GbtnqEOskGLJ19mYKQej0dRYHd/o5rg7Ae6hdjkcdwDCEy75FLQBAHQDglhowwe4GONHg4KA6OzvV0dGR+u/VV1/Vzp07JUmLFy/W7373u7y29e6776qpqamg599nn3309NNPF9zurFhQF5nEYlJzs5RISAMD1l5386Q3EJBaW4tfdB7ela0OpfNj/bEyTaL5u9/+rZwm304/idcK3kPtAtwlV7g88pyQzyoAAABswsiqEf7whz9o/vz5am5u1rJly/TrX/9aL730Uiqocq1sIxvS+bGj2K/SgyrJ2lWU6Se9iYSxPUZYIRcHT5lmi3ymYc1nOldUHiNK4GfULsBdcn1mu7v5rAIAAMAxKjay6u677y7Zts4555ySbWukRCKhHTt2lGXbU6ZM0dlnnz3m/WbOnFmW51c4LK1YkX1BXb91FPtZW9vuoMpUyFWUmU56Ewlju4yuQjb5TJnmlzpUyHqB2UalceWzPRhRAj+jdgHukm+4LPFZBQAAgO0qFlZdeeWVqqqqKno7VVVVZQ2rTHvttZcWLVqkQw45RIsWLdLjjz+uW2+9taht1tbW6tprry1RCy2goximlhZj6j8rJ6W5TnpbWkrXRngLU6btVkhnr4mOJGeg0w9+Ru0C3IVwGQAAAC5T0TWrkslkQfevqqoq+DHFOv7447VmzRrV19cPu33t2rUVbUfJ0VGMkayclFrpqELF1dTU2N2E4VgnYbdo1PpnKNdntrqasLjcXNbp57g6kK9YzBilW8z7ORqVmpoY6VtK1C5Xcm0dQPEIl5GGWgCAOgDALXWgYmFVvqOhhoaG1NfXp9dee00bNmyQJE2cOFGnnHKKxo0r/xJbs2fPLvtzVBwdxcimkJNSgirXmD9/vt1N2I0p04ZrapICgeHTcBbyGcr0mQ0EjO2ifFzY6eeoOpCv9PUUBwas/RuZr1UgILW2EliVCrXLlVxZB1A8wmWMQC0AQB0A4JY6ULGw6vrrry/4MR0dHfr+97+v9vZ2bd68WTfffLOmTp1ahtZ5GB3FGEs+HaoEVbCCKdNGC4WMDnSzQ97KZyj934wO+fKj0680xhoxlR5USZlrwFgjptJrTiJhbI/PR2lQuwD3IFwGAACAS1V0GsBCLVq0SPfcc4++9KUv6YknntA3vvEN3XbbbXY3yz3oKEa+cr0PVqzIvNYZQZVjxeNxSVIwGLSvES6bMq2izE7fYqY6C4eNsIOpzsrPpZ1+jqgDpnxGTLW1Df83ljJfNJEt5MhUcxIJY7t8RkqD2uU6jqoDqBzCZYxALQBAHQAQj8ddUQMcHVZJ0vjx4/Xv//7vOuaYY9Ta2qqHHnpIn/3sZ+1uliW7du3SE088oY6ODm3dulUTJ07UjBkztGjRIv3/7N17fKR1fTf8b9Y9RE4Jy2FDFlzkUNCKC8TIogJqWW9FBKsCoqi8SlsVWW4hWyseqo/WQx83a0taPNSztFXWxypSxaLedxEhEALEAxAO1Yi7nXBYkkXYsKd5/hhnNtnMJDOTSa65Ju/368WLOVzXle+VSb6ZvT7z+/2OP/74WLJkSe2+mAvFVKrUz4GgKnWGh4cjIsE3oimcMm3OdXbO/KLPfBqVk6SUXvRLvA/klTNiKiL387xtW/Ee8H//b8R11+XuFxsxNVXP8XtSW3pXqtRNH2DuCZcZRy8A9AFgeHg4FT2g7sOqiIj29vZ4wQteEDfffHN885vfTG1Ylclk4vzzzy/6XGtra7z1rW+NSy65JPbee+8ZfZ1dTzwRm97znog91/j64Acjzj8/YtOmaG9vn/jcfLtQTHGlfg7GE1QxFVOm0Yhc9KvedCOmxivVA/JBVd74EVOmqQUoTrgMAEDKpCKsiog4/PDD4+abb46777476VJmxcjISFx55ZXxH//xH/HlL385jjzyyKqP9fCTT0ZnsaT0n/85919EfP/735/09Mo/XNQZueqqGFq9evcT998fcfXV0dzZWViMLZPJFD6ZMV5ra2usWLEiIiKGhoZiZGRk0jbLli0rJLmDg4MxNjY2aZsVK1ZEa2trROTWLivmmGOOiebm5hgbG4vBwcGi26xcuTJ3TiMjMTQ0NOn55uZm57TnOZ1+esTll8ey//qvaOvvz53TuefG2P77R+y9d+75P9SfmnP6g4Z6naY4p8cee2xC/XN6Tn+YMi1z1FEx/IIX5J540YsiVq6MGBiY/pxOPz2WXXVVtF18ce6czj03xpYtizj22MLP3Zyfk5895xSRC5pOPTVWjIxUf06nnhp/2HHWzynfB8YP9U/kdTr11IivfjXi5puj+fHH45hrrsnV9W//FsMHHZTrDePP6Q1viBUREWvXxtDpp8dIkfdDy1aujLZ3vjOiuzsGb7stxt7+9okbvOhFseKss6L1D3dT/7P3Bw31++Sc5uScnnjiicJ6v41yTo34Ojkn5zTb5/TUU0/F1q1bJ329NJ9TI75Ozsk5zeY57XmNoBHOaU/OyTk5p6nPKd8H6t2C6TepD/kXKC3f2PH22WefOPfcc+Oqq66KG2+8Me6///749a9/HX19ffG5z30uTjnllMK2Dz74YFxwwQXJnWdXV8Rll018bPHiiGXLkqmHuTcwEPHkk8Wfe/LJCYEBTJIfgZIfIZoPqirxp3+aGxUREbFkScRrXhNx8MG1rROYOytX5nrBnm6+ufjflK6uiDPPLH6sFStyPaLUiKpqeg4AAACQuKZsNptNuojp7Nq1K04++eTYuHFjHHDAASWTw9nU3d0d69evj4iIk08+Ob71rW+Vtd/TTz8dO3bsmHZqv6uvvjre+973Rv7lOP/882Nd/mJtmTo6OiKTycTB++8f/7FxY8SWLbmp//7yLydtO2kawD1Nt5A5janUxb89mV6pruV75MokL9j29c1syrSI3JSC823KNKiRuugDeyp3yr7p/ha1t1tPkdprwL9bddkHgDmnFwD6ADAwboaXepaKaQD/7u/+LjZu3BhNTU1x3HHHJV1ORZYsWRJLliyZdrsLLrggfve730VPT09ERFxzzTXx13/913HQQQdV/DUXLFkS7f/5n9bWoDKlLg4WuyhoLbO6lh8SnCjrJECi6qIP7Kmc9THL+dCEoIpa6+uLWL06tx7atm3V/SzV4Qe96rIPAHNOLwD0ASAtfWDOwqqNGzeWve2OHTvi8ccfj1/96lexYcOG6P/DujkREeecc85slFcX1qxZE//8z/8cY2NjsXPnzrjxxhvj9a9/fXUHc6GYSkz3afdizwus6lZ+Hlxg/qrbPjBVYLV+ffEg6swzI667rvQxBVXMxPigKqK69zfj3yeNjuaOVweBVd32AWBO6QWAPgCkpQ/MWVh10kknRVNT04yO8fKXvzzOPvvsGlVUf/bee+844YQT4pZbbomIiPvvvz/hipgXypmWqZxPwwNAOUr9TZlqxNTy5cWfb2/3N4iZ6e3dHVTlVfL+ptj7qNHR3HHrYHQVAABAWiyY6y+YzWYr/q+pqSne9ra3xec///m5LnfOLVu2rHB78+bNCVbCvFDu+iERufvF1lFbuzZ3HOrG0NBQDA0NJV0GkKC67wOl/qaMN350b7GgKiL3uL9BzMSaNdW/v5nqfVQdzFBQ930AmBN6AaAPAGnpAXM2smr58uVlj6xauHBh7LvvvnHooYfGiSeeGGeddVYsX758liusD0899VTh9l577ZVgJTS8SoKqPCOsUmFkZCQi0jPEF6i9VPSBrq7SU//lR0yVs4aVv0HMVDXvb6p5HzXHUtEHgFmnFwD6ADAyMpKKHjBnYdWtt946V18q1X75y18Wbre1tSVYCQ2tp6f6CyxTXdBZvLguPkkMQApMN2LqNa8pvlZVe/vk/QRWzFQlgVUKgioAAIC0mfNpACntxhtvjE3jLr6cfPLJCVZDQ1u1KqKlZeJjlVxgKTZ9U0tL7rgAMJ1yRkwVC6rWrYvYuNG0tMyOcqY8FlQBAADMCmHVLNq2bVts27atrG0fe+yxuOKKKwr3jz766DjuuONmqzTmu87OiBtu2B1YVXOBZfwFnZaW3PEsJA7AdEpd7G9vn3q/8X+rrKPIbJnqZ2v5ckEVAADALJmzsOrTn/50fPrTn47/83/+T1X733jjjYVjpMXw8HC86EUviquuuip+97vfFd0mm83Gj370ozjjjDPiN7/5TURENDU1xQc/+MFYsECWyCzKB1ZXXln9BZaurtz+gioAyjHVqJSNGyPOPLP4fmeeOflvlcCK2VLqZ6vYtJWCKgAAgJpoymaz2bn4Qoceemg0NTXFhRdeGB/96Ecr3v+jH/1ofO5zn4umpqZ46KGHZqHC3d7ylrdEJpOZ8NgjjzwSjzzySERE7LXXXnH44YdP2u/rX//6hHWmHnrooVg1blq0ww47LI499thYunRpLFy4MDZv3hx33nnnpK/1wQ9+MN7xjndUXHdHR0dkMploa2uL/v7+ivcHGkO+p1j3DuavuuwD002fNt3UgKVCAdOyMVuq/ZmsE3XZB4A5pxcA+gCQzwzq3cKkC6hH9913X8mRUBERTz31VNx9992THt++ffuUx33ooYemDNra2triE5/4RLziFa8ov1iAPaThjw8wu+quD0wXKPX0TL+GVf75YiOsxj8/fvvFiyPWrKmuZujqili/vviIqvb2ug6qIuqwDwCJ0AsAfQBISx9ITViVHwDW1NSUcCXlO/TQQ+PHP/5x9Pf3x+233x733XdfbN68OR5//PHYunVr7LPPPrFs2bJYuXJlvOxlL4tXvepVsWjRoqTLBgConXJGPq1alVv/cHR09/Nnnhlx3XUT96kksGppyR0XqtXdXTyoisg93t1d94EVAABAWqQmrNqyZUtERDzzmc+c9a9166231uQ4TU1Nceyxx8axxx4bb37zm2tyTIDpDA4ORkTEMccck3AlUKG+voje3pmNhOnpyQUU83wdvbrpA6VGTO05fVp+HcXVq3OB1VRTA5YaMTU+sGppsZ4iMzPdFIARpcPTOlE3fQBIlF4A6APA4OBgKnpAKsKq7du3xy233BIR6RmyBpCUsbGxpEuAyvX17Q4qtm2r7uJv/uKyoKJ++kCxEVOl1vnJB1bjA8tKR0x1deWCLIElM1EqqGpvnzzSqo4Dq7rpA0Ci9AJAHwDS0gdmJazasGFDyeceeOCBKZ8fb8eOHZHJZOKHP/xhDA0NRVNTU5xwwgm1KhMAqAfjg6qI6i7+jr+4PDqaO948D6zqQqkRU1Ntv+drVumIKWtUMRPTTVtZarRfRF0GVgAAAGkxK2HVZZddVnRtqWw2GzfddFPcdNNNVR23qakpLrjggpmWBwDUk97eiSNvIiq7+Fvs4vHoaO64wqrkFRsxVSkjppgL5ayvVmy03/j7AisAAICqzNo0gNlstqLHp9Pc3Bwf+tCH4gUveMFMygIA6s2aNbmp/6q5+DvVxWUjbOpHsRFTlfJ6MpvKCaryBFYAAAA1Nyth1TnnnDPpsQ0bNkRTU1MceeSRZU3l19TUFEuWLIn9998/jjnmmHj5y18e++6772yUCwAkrZqLv5VcXKZ+9fXNbNRVRERPj1FXVK+aXiKwAgAAqKlZCas+/elPT3osv07VKaecEh/96Edn48sCEBErVqxIugSoTiUXfwVVU0pNHxi/Xtm2bdW9dvmfhXLWs4I99fRU30um6lmLFyc+GjA1fQCYVXoBoA8AaekDszYN4J6WL18eTU1Nsf/++8/VlwSYl1pbW5MuAapXTmAlqJpWKvrA+KAqoroRKeN/FkZHc8cTWFGJVatyQef4dfMq6SXFelZLS+64CUtFHwBmnV4A6ANAWvrAnIVVt95661x9KQAgzaYKrNavj9i0afI+gqr06e2dGBBEVBZYFQstR0dzxxVWUa7OzlzAmQ9Oq+kl43uWEX4AAABVWZB0AQDU1sDAQAwMDCRdBsxMV1fuovGeSgVVp56am85rJnp6cqN9GkAq+sCaNcVf47Vrc0HUVKYaXZfw1GukUD6wuvLK6kPvrq7c/nUUVKWiDwCzTi8A9AEgLT1gzkZWAQBUpNQIq/HyQZV1j9KpknXK8kwDyWzo7Jz5772gFAAAoGqJh1X/8z//E5s3b44nn3wydu3aVdY+q+pgDngAqJm+vtzUZTO50NnTk1sjpdFClq6u0lP/tbdPDKoirHuURpUEVoIqAAAAaEiJhFV9fX3x5S9/OW666aZ4/PHHK9q3qakpfvvb385SZQAwx/r6jAqaSnd38aAqIvf4xz9u3aNGUE5gJagCAACAhjWna1bt2rUr3v/+98frXve6+N73vhebN2+ObDZb8X8A0BDGB1UR5a3Vs6dio4IaZN2lkuHEeN/5TsSZZ05+3LpH6VNqnbK1ayOWLxdUAQAAQAOb05FVH/nIR+KrX/1q4f7RRx8dW7ZsieHh4WhqaoqTTjopnnzyydi4cWNs3rw5InIjqfbaa6847rjj5rJUAJh9vb1GBZVSKkhqb5880uq663KB1XXXTXzcukfpU2qEVbHRdV4rAAAAaBhN2TkaqnT//ffHy1/+8oiIOOCAA+IrX/lKHH/88fGBD3wgvvKVr0RTU1M89NBDE7b/6le/Gl//+tdj165d8aY3vSn+9m//NhYtWjQX5aZSR0dHZDKZaGtri/7+/qTLARIyNjYWERHNzc0JV0JZqg1NGjlsme7cSj1fLLAav1+5x28Aqe8D042qa6DXCmZL6vsAUBN6AaAPAGNjY6noAXM2DeC//Mu/FKbwW7duXRx//PFTbn/00UfH3/7t38a3vvWt2GeffeJf//Vf42/+5m/moFKAdGtubk7FHyD+YKqpz0pNY9fIYUs551bqe5YfYbWn8d/LRv7ejZP6PtDVlRtFV0x7e0O9VjBbUt8HgJrQCwB9AEhLD5izsOq2226LiIi2trY4/fTTy96vs7Mz/u7v/i6y2WxcffXVheMAUNzY2Fjhk1OkRCWBVSOHLZWcWzWB1Txa9yj1faC7u/jUfxG5xytd2w3modT3AaAm9AJAHwDS0gPmLKz63e9+F01NTZNGVDU1NRVub9++vei+Z511VjzrWc+KiIhrrrlm1moEaASDg4MxODiYdBlUqpzASlA1UaWB1Txa9yjVfWC6KQAjph55CEREyvsAUDN6AaAPAGnpAXMWVm3ZsiUicutVjbd48eLC7SeffLLk/h0dHZHNZqOvr292CgSApE0VWDXyqKCenurPbarA6rWvnXrfRvjeNZpSQVWxKQEFVgAAANAw5iysWrJkSURE7Nq1a8Lj++67b+H2plLTvUTEokWLIiJieHh4FqoDgDpRKnxp5FFBq1ZFtLRMfKyScyv2PWtpiXjf+6x7lCZTja7buLHytd0AAACA1JizsGrZsmURETE6Ojrh8cMPP7xwe2BgoOT+//3f/x0RETt27Kh9cQBQT0oFVuM1SlAVEdHZGXHDDbsDq2rObfz3rKUld7wbb7TuUVqUMw1kJWu7kZy+vtxoyZno6ckdBwAAgHljzsKqY445JrLZbPz617+e8Pjzn//8wu1vfvObRfe96667or+/P5qammL58uWzWicA1IWurvk1KigfWF15ZfXn1tWV2z8fVFn3KB0qWa9MYFXf+voiVq+OuPTS6l+P7u7c/qtXC6wAAADmkTkLq174whdGRMT9998/YW2qI444Ip73vOdFNpuN/v7+eM973hObN28uPH/rrbfGxRdfHNlsNiIiTjvttLkqGQCS0909/0YFdXZGrFkzs2OsWVM6qLLuUf2pJKjKE1jVp3xQlZ9FoZrXY/zPw+iowAoAAGAeacrmU6BZ9sADD8RLX/rSaGpqis9+9rPx6le/uvDcj370o7jwwgujqakpIiIWLFgQBx54YIyNjcWWLVsiIiKbzcZee+0VP/nJT+LQQw+di5JTp6OjIzKZTLS1tUV/f3/S5QBQrVIX8PfUSFMB1sp04Uc14Qizo6cnN4JmT+W+FqVeyyuvnHnoSeW8ngAAAMzAnI2sOuqoo+LVr351HH/88fGLX/xiwnOnn356XHbZZZHNZiObzcbOnTvj4YcfjtHR0cJjzc3N8Y//+I+CKqD+WJ+DWip1wdaooOlZ9yhdVq3avU5ZXiWhYbHXsqUld1zm3po11f9uTfW7K6gCAACYF+YsrIqI+NznPhff+9734r3vfe+k57q6uuJf//Vf45RTTonFixcXpv3bb7/94rWvfW384Ac/iFe84hVzWS7A9OpwfY6RkZEYGRmp/gDCt+RMdcF240Yhy1SsezTBjPvAXMivU5YPrKoZ3Tb+tWxpyR2vs7O2dVK+an63jHacNanoA8Cs0wsAfQBISw9YmHQB45166qlx6qmnxq5du2Lz5s2xYMGC2H///QvTAwLUlWLrc0RUdnGt2PocM7zYOjQ0FBERra2tle88/py2bavuQmH+nFw4rky5o4IiJm9Xzc9eI6l23aOIhv1ezqgPzKV8YNXbW/0Imq6uiMWLcyOq9JvkVfK7JaiaVanpA8Cs0gsAfQAYGhpKRQ+Y05FV5cqvWbV06VJBFVC/ent3B1V5lYzMKHaRbnQ0d9wkFAvfKh1lUix8M8JqekYFVa+np/qL3VN9L2c6upDydXbOfKq3NWvmPqgyCrW0cvqUoAoAAIBx6jKsAkiFRlufo9HCt7SodlSQwCrHukckoQ6ngK07U/Wp5csFVQAAAExQF2HV1q1bI5PJxMaNG5MuBaAyjbQ+R6OFb2lgVNDMWfeIuWYUavlK9alNmyY/lvTfQAAAABKVyJpV2Ww2rrvuuvj3f//3uO2222L0D//Yb2pqit/+9rcTtt28eXNce+21ERFxxBFHxKmnnjrn9QJMqZHW56hmHZ96P6d6lh8VNH5EW6WjgiImfv/n46gg6x4xl0qNQo0o73d3qlGojfizV+rvynj+XgAAAMx7cx5WPfDAA/HOd74z7r333ojIBVdT2X///eMLX/hCDA0NxcEHHxx9fX2xYEFdDAgD2K2ckGeOQp3m5uaZHaCRwrd6lw9Z8qM0qh0VFJF7HebzqKDOzpmfdwONApxxH6C0NWsitm2rLNTPm6+jULu6ItavLz6iqr3d34tZog8AEXoBoA8A6ekDTdnp0qIauv/+++O1r31tbNmypRBS7bXXXhER8dRTT0VTU1M89NBDk/b7/Oc/Hx/5yEeiqakp/u3f/i1e8pKXzFXJqdLR0RGZTCba2tqiv78/6XJgfip1IbK9PX3THk0XRAmqaqevb2ajgiJyU/8ZFQRzp9IeOJ97Zqlzz5sP3wMAAACmNGdDlHbu3Bl//ud/HqOjo5HNZuPFL35xXHvttXHffffFueeeO+W+r3nNawq3b7zxxtkuFaB6jbQ+x1RrIi1fPn8vus6Gzs6Zj6pYs0ZQBXOpkjULBVVTb1PNul8AAAA0lDkLq7797W/Hgw8+GE1NTfGqV70q/u3f/i1OPPHEsvY95JBD4lnPelZERAwMDMxmmQAzV+oC5nizeIEyk8lEJpOpzcEaKXyDeaSmfYDSygmsBFWTH29vn/yYwKrm9AEgQi8A9AEgUtMD5iysuv766yMiYsmSJfHJT36y4nWnjjnmmMhms/HrX/96NsoD+vpy04jNRE9P7jjkLkAWuxgXMevrcwwPD8fw8HDtDphw+AZUruZ9gNKMQi1uqpBu48byR6VRNX0AiNALAH0AiNT0gDkLq37+859HU1NTvPCFL4wDDjig4v2XLl0aERGPP/54rUsD+voiVq+OuPTS6i8SdXfn9l+9WmAVkft+FBt9FJF7PG0X4xIM3wDqnlGoE5UzmqySaRQBAABoeHMWVm3evDkiIg499NCq9l+4cGFE5Na+AmooH1SNjubuV3ORaPxFqdFRgVUjrs/RaOEbQK0ZhZpTybSHAisAAAD+YM7CqsWLF0dExI4dO6raPx92tbS01KwmICJ6e3cHVXmVXCQqdlFqdDR33PmoEdfnaMTwDWA2zPdRqNWszyWwAgAAIOYwrDrwwAMjIqpec+rOO++MpqamaC91AQCozpo11V8kmuqi1Jo1takvKdWs4dWI63M0YvgGMFvm8yjUnp7q1+eaKrCa6XqaAAAApMKchVUdHR2RzWZjYGAgHnnkkYr2vfHGGyOTyURExEknnTQb5cH8Vs2nmqv59HRaVLOGV6nvR3NzxKmn5m7P0afHW1tbo7W1deYHasTwDeaJmvUByjffR6GuWhWx5wwIlbwnKPY3sqUld1yqog8AEXoBoA8AkZoeMGdh1Stf+cqIiNi+fXt84hOfKHu/3//+9/HBD36wcP/MM8+seW1AVBakzIegqpI1vKa6QDk2NnENrzkIrFasWBErVqyY2UHKeY1N3QR1qyZ9gPIZhRrR2Rlxww27A6tq3hOM/7vS0pI7XmdnbeucR/QBIEIvAPQBIFLTA+Y0rHruc58b2Ww2NmzYEB/+8Idj27ZtU+5zzz33xOte97p48MEHo6mpKV7ykpfEiSeeOEcVwzxUTvjQyEFVROVreJXzSfo91/Cq95Cnkte43s8FYLYZhbpbPrC68srq3xN0deX2F1QBAADMK03ZbDY7V1/s7rvvjte//vXx+9//PiIiDj744HjVq14Vd999d9x2223R1NQUH/rQh+KRRx6Jvr6+uP322yObzUY2m40DDjggvv/978fy5cvnqtzU6ejoiEwmE21tbdHf3590OaTZVJ8QL7YWR6MEVXnlhjU9PbmpAqdT6vtT6utceeWM1vwaGhqKiCo/NVFtGNnoISakzIz6AOUrt/fpkSRAHwAi9AJAHwByfSANPWDORlZFRDz3uc+NL3/5y3HAAQdENpuNhx9+OL761a9GX19fNDU1RUTE//P//D9x1VVXRV9fX+zatSuy2WwsW7Ysvva1rwmqYK6UGi0zH4KqiPJHCxVbn2NPU31/Zml9jpGRkRgZGal8x56e6i+mTvU96+mpvBZgRqruA5TPKFTqnD4AROgFgD4ARGp6wJyGVRERq1atihtuuCHOO++8WLRoUWHkVLH/Fi5cGOeee258//vfj5UrV851qTC/lbqwNl4jBlV55VxYzE931Nxc/BiVhjxJr89RLHyr5DWepfANoO5UM1JKYAUAAAAlLUziix500EHR3d0d73//++OnP/1p9Pf3RyaTiSeeeCL22muvOPDAA+PEE0+M0047Ldra2pIoEYjIXVhbv774iKr29sYNqvLy57fnBcn8/a6uiBtvjBgbm7xvpSHP4sW5UCfJ9Tny4dvq1bl1tqoJI8d/z5IO3wBmw0xHoUYU/7uyePGMpoAFAACANEskrMpbunRpnH322XH22WcnWQZQSnd38aAqIvd4d/f8DqxKBXnVhDz1coEyH1j19lZfU72EbwCzIT8KdXR092OVfkAhYuLfFaNQAQAAmOdqHlb19vZGRERbW1scfvjhtT48MFdKTXE03vgRRo2sVGDVqGt4dXbOPGSql/ANoNaMQgUAAICaq3lY9YY3vCGampriwgsvjI9+9KMltxseHo7HHnssIiKe+9zn1roMYCZKBVXt7ZMDmvkeWI1XJ0HVsmXLki4BSJg+MMuMQiUF9AEgQi8A9AEgPX2gKZvNZmt5wEMPPbSssOoDH/hAfPWrX42mpqb47W9/W8sS5q2Ojo7IZDLR1tYW/f39SZdDWk23aHw1i8o3kuXLS6/htXHj3NcDAAAAAJByC5L84tlsNmqclQEzUU4Q1dWVu7+ntWtz+zeyctbwgnrR1xfR0zOzY/T05I4DAAAAALMo0bAKqCOVjJiaj4FVuWt41cH5Dw4OxuDgYNJlkKS+vtx6OpdeWv3PZHd3bv/VqwVWKaQPAIM/+UkMfvWrMzuIDy1A6nlPAOgDQFp6gLAKqG5qv/kUWE21htee6uD8x8bGYmxsLNEaSFA+qBodzd2v5mdy/M/86KjAKoX0AZjn+vpi7DvfibFbbvGhBZjnvCcA9AEgLT1AWAXzXU9P9WtQTRVYzXT6sXoxVZC3ceP8CexIj97e3UFVXiU/k8V+5kdHc8cFoP7lP7SwbVvuvg8tAAAAKSCsgvlu1aqIlpaJj5UTVOUVC6xaWnLHTTtreJFGq1ZFNDdPfrycn8mpfubXrKlNfQDMLh9aAAAAUkhYRU5f38xHwpjTPp06OyNuuGF3YFVJUJU3PrBpackdr7OztnXONWt4kUb5T9OXGt491c9kqZ/55uaIU0+tXY0AzK41a6p/X+JDCwAAQEIWJl0AdWD8+ibbtlUeVETs/odtowQV800+sOrtrf5CRFdXxOLFuVEdaX/9q13DK2Lyfvn71fxeQaWKfZp+T8V+Jkv9zEfkgq/e3vT/XgPMJ11dEV/7WsTNN098fKr3JdW8/wEAAKgRYdV8Nz6oiqjuwnqxOe0FVunT2Tnz16wRPnE70zW8IooHVosXz9n3Z8WKFXPydahDa9bkPnRQKnjKG9/rpwqqInyaPqX0AWDFWWdFbNky+YlKPrQgqILU854A0AeAtPSBWQur7rzzzvj0pz9d8vm77rqrcHuq7Yq57LLLqi2LPZWa0z6ivH+YTjWnvbCKNMqv4TX+96LSNbwiJv5ezPEaXq2trXP2tahDpULTPa1dG7F+fcSmTaW3cZEytfQBoLW1NeKSSyKefnrqkd+CKmho3hMA+gCQlj7QlM1ms7U84KGHHhpNTU21POQkDz300KweP606Ojoik8lEW1tb9Pf3l79jtf9A9Q9bGtX4EYfV/jybGpOkTTdiajp6OUDjKPU3ob29+IcW/A0AAADm2KyNrKpxBlYw20HYvFTNWjuCKhpZytfwGhgYiIiIlStXzunXTaW+vpm9zhG5qSPrca22ckdYFaOXp54+AEzoA6X+JgiqoOF5TwDoA8DAwEAqekDNw6pVczjVFTVUSWAlqGI+sIZX4xs/gm7btsYcQVdNYKWXAzSmcv4m+BsAAAAkpOZh1be+9a1aH5K5Uk5gJagCGsH4oCqisrX68sb3w9HR3PHSHlideaZeDtDIurpKr1fY3u5vAAAAkJgFSRdAnenqygVPe1q7NmL5ckEV0Bh6e3cHVXlr1+YCqHIUC+5HR3PHrUddXbkgajrXXVf+9wCA9OnuLh5UReQe9zcAAABIiLCKyUoFVua0BxrFmjWlg/npLtRNNcK0Xqd+7O7OBVHlqCS0AyA9Sv39Gs/fAAAAICHCKoorFViNJ6gC0myqkaSlLtSlcSrUci5O7snFSoDGUupvQXv75Mf8DQAAABLQlM1ms0kXQW10dHREJpOJtra26O/vr81Bly8vPaf9xo21+RpATY2NjUVERHNzc8KVpES5AdR8CarGq+dzY0r6AFDoA//0T1P//Urj3zegbN4TAPoAMDY2looeYGQVpZnTHlKpubk5FX+A6kY5I6zSeCFvuqCq2Kfp9+TT9amlDwDNzc3TB1UR1Y00BlLDewJAHwDS0gOEVRRnTntIrbGxscInpyjTVBfqli9vvKBq3brc6NjppnuN0OtTSh8Axv7+72PsYx+b/ESxv18CK2hY3hMA+gCQlh4grGIyc9pDqg0ODsbg4GDSZaRPqQt1xUaY1nNQ1dMzfVA13afp97R2be64pIY+APNcd3cM3ntvDJ577sTHp/r7JbCChuQ9AaAPAGnpAcIqJppqqqtSn8L3D1igUZQT3tRzUBURsWpVRKnh3ZV8mn68lpbccQGof6U+tFDO36+pAisfWgAAAGaRsIrdylmTxScugUbX1VV6Paf29voOqiIibrwxotjw7mo+TR+RC75uuCGis7N2NQIwe1atyn3IYLxKPmhR7G+CDy0AAACzTFhFTjlBVZ7ACmhk3d3Fp/6LyD1ez31uNj5NPzYW0dtbm/oAmH2dnbkPGSxenLtfzYjg8X8TWlp8aAEAAJh1C5MugDpQSVCVl398z/3y9+t95AFAMaX64Xj13Ofyn6YfHd39WKWfpo+Y+D3waXqA9OnsjBgZiRgejrjgguqO0dWVC7xWrRJUAQAAs87IqvnOnPYAOaWCqmJTAtbrSNL8p+nz0z/5ND3A/HXwwRHHHTezY6xZ428AAAAwJ5qy2Ww26SKojY6OjshkMtHW1hb9/f3l7dTXF7F6dfWfwo+YfIHXxU0gbaYbYVrNCNQk9fXlpu5bs6b6Y/T0+DQ9AAAAAHNCWNVAqgqrIiYGVtVeeM1fyBVUAWlTbhCVtsAKAAAAAFLCmlXsnjZqJp/CN6c91I2RkZGIiGhtbU20jlSoJICyVh8pog8A+gAQoRcA+gCQ6wNp6AHCKnI6O2ceMs1kuimgZoaGhiLCG9FpVTNSSmBFSugDgD4AROgFgD4A5PpAGnrAgqQLAIA519NT/ZR+XV257fa0dm3uuAAAAABARYRVAMw/q1bl1tgbr5K1p4oFVi0tueMCAAAAABURVgEw/+TX6ssHVpUEVXnjA6uWltzxrNkH6dHXN/PRkD09ueMAAAAAM2LNKgDmp3xg1dtb/Zp7XV0RixfnRlQJqiA9+voiVq+OGB2N2LatuvXm8uveCasBAABgxoRVAA2mubk56RLSo7Nz5heYqw26YBbpA1MYH1RF7F6/rpLAKh9UReSOs3q1wIq6ow8AEXoBoA8A6ekDwiqABnPMMcckXQKQMH1gCr29u4OqvEoCq/FBVd7oaO64wirqiD4AROgFgD4ApKcPWLMKAID5Y82a3evNjbd2bS6ImkqxoCoidzyjLAEAAKBqwiqABpPJZCKTySRdBpAgfWAaXV2VB1ZTBVXVrHkFs0wfACL0AkAfACI1PUBYBdBghoeHY3h4OOkygATpA2WoJLASVJFC+gAQoRcA+gAQqekBwioAAOancgIrQRUAAADMuoVJFwAAAInJB057BlJr10asXx+xadPkfQRVAAAAUFNGVgEAML+VGmElqAIAAIA5IawCAIBSgdV4gioAAACYFaYBBGgwra2tSZcAJEwfqFJXV+mp/9rbBVWkij4AROgFgD4ApKcPCKsAGsyKFSuSLgFImD5Qpe7u4kFVRO7x7m6BFamhDwARegGgDwDp6QOmAQQA5p++voienpkdo6cndxwaQ3d3xNq1U2+zdm1uOwAAAKCmhFUADWZoaCiGhoaSLgPqV19fxOrVEZdeWn3w0N2d23/16roMrPSBCpUKqtrbJz8msCIl9AEgQi8A9AEgUtMDhFUADWZkZCRGRkaSLgPqUz6oGh3N3a8meBgfbIyO1mVgpQ9UoFRQtW5dxMaNuf/vSWBFCugDQIReAOgDQKSmBwirAKBWTC1X/3p7dwdVeZUED8WCjdHR3HFJn6mCqvzaVF1dAisAAACYZcIqAKiFeTC1XENYs6b64GGqYGPNmtrUx9wpJ6jKS3tgJUgHAACgzgmrAGCm5snUcg2jmuChkmCD+lfN65nWwEqQDgAAQAoIqwBgpkwtlz6VBA+CqsbS01P96znVz81MRy7NBkE6AAAAKbEw6QIAqK1ly5YlXcL8s2ZNxLZtky+A5+9PdQHc1HLJyb8uU71uKQ2q9IEprFoV0dIyMWCu5PUs9nPT0pI7br0pFaRHlHe+UwXpnZ21qZFZow8AEXoBoA8A6ekDTdlsNpt0EdRGR0dHZDKZaGtri/7+/qTLAZh/Kg02UhqENJxSr0N7e8SmTZMf9/qk3/gRR9W+nvmfm5aWiBtuqN/wpto+oz8BAAAwh4ysAoBaKWekTp4LwfWj1OsmqGpcnZ25gKm3t/oRjF1dEYsX50ZU1WtQFVFZX8rTnwAAAJhjwiqABjM4OBgREcccc0zClcxTDTy1XEMr9bqNl6LXRx8oQ2fnzEOmtEzVKUifl/QBIEIvAPQBINcH0tADFiRdAAC1NTY2FmNjY0mXMb91deUu7O5p7dqI5ctdCK5XXV25qf+KaW9P1eujDzDJVH2puzt3W1DVUPQBIEIvAPQBIFLTA4RVADAbSl0YNrVc/eruLv76ROQez1/Qh7QSpAMAAFCnhFUAMFtKXRgez4Xg+lBqRMl440egQFoJ0gEAAKhDwioAmE0NNLVcwyoVVBV73QRWNAJBOgAAAHVGWAUAs8nUcvVtqjV6Nm6cfo0fSCtBOgAAAHVkYdIFAFBbK1asSLoE8sqdWi7CheEkTBVU5V+P/P/33K7OXzd9gGmVE6TX6c835dEHgAi9ANAHgPT0AWEVQINpbW1NugQipp5abs8LxHUefDSkcoKqvBQGVvoAUxKkzwv6ABChFwD6AJCePmAaQACoNVPL1bdKgqq8Umv8eN1IG2u0AQAAUIeEVQANZmBgIAYGBpIuY/4qd2q5uQg++voienpmdoyentxxGkVPT+VBVd5Ur9tMv881pg9QlCB9XtEHgAi9ANAHgEhNDzANIADUSj1NLdfXF7F6dcToaMS2bdUdL38+LS0RN9wQ0dk5s5rqwapVufMZHd39WDlBVV6x162lJXdcqGcNvEYbAAAA6WdkFQDUQj1NLTc+qKr2eOPPZ3Q0d7xGGGHV2ZkL3lpacvcrCaryxr9ujRTk0bgqDdKNsKovRskCAADzgJFVADBTM51aLqL4SIbFiyPWrKm8nt7eiSOHxh+/nGCm2IXt0dHccRshlMkHVr291X1/I3Lfx8WLcyOqGuF7QuOqNkiPMMKqHhglCwAAzBPCKgCYqXqbWm7NmtxFzWouNE91YbvaYKcedXbO/IJtI30/aEz1FqRTmWKjZCMqC6wGBiaPkhVYAQAAdcg0gAAwU/U4tVw1U3lVMwIDqF/5IH28SoP0PfuINdrmTqlRsuVOxzgwEHHzzRMfy4+SBQAAqDNN2Ww2m3QR1EZHR0dkMploa2uL/v7+pMsBEjI2NhYREc3NzQlXMg/19c1sarmI3EiIWk4tV24AJahqKPoABeNH51T7+2waueRU25u7u2PsYx+LiIjmxx8vfz+g4XhPAOgDwNjYWCp6gLCqgQirAChquoudgipobPUYpFO+Snu0ng4AAKSQsKqBCKuACJ+aooRSFy/b2yM2bZr8uIuaqaYPQIOpYpTs2P77R8QfRlbp6TBveU8A6ANAWkZWLUy6AABqa3BwMCIiVq5cmXAl1JX8Rco9L3YKqhqSPgANplQPz98vMkp28NxzIyJi5dFH6+kwj3lPAOgDwODgYCp6gLAKAOaLUhc7xxNUAdSnqQKr9euLf/jgRS+KeOtbZ782AACAGVqQdAEAwBzq6spN/VdMe7ugCqCedXXlPlSwp1JBVQo+PQkAABAhrAKA+aW7u/hFzYjc493dc1sPAJUpFViNt26doAoAAEgVYRUAzBd7rGdS1Nq1pQOrvr6Inp6Z1dDTkzsOANUzShYAAGgw1qwqYufOnTE4OBgDAwOF/+65557Yvn17REScfPLJ8a1vfauqY//0pz+NDRs2xB133BGZTCaWLFkShxxySJx22mlx/vnnx1FHHVXLUwGAnFJBVXv75JFW+e3GX+zs64tYvTpidDRi27bqLoTma2hpibjhhojOzsqPAUB5o2RPP31uawIAAJiBpmw2m026iHpy/fXXxyWXXBJbt24tuU01YdUTTzwR73nPe+Laa68tuc2iRYuiq6sr1qxZU9Gx8zo6OiKTyURbW1v09/dXdQwAGlCpoGrdulzoNN3z44OqPZ+rtgaBFUB1yhklG1F5nwYAAEiQkVV7GB0dnTKoqsb27dvjoosuip/97GeFx4499th43vOeF08//XTcdtttMTw8HNu3b49PfvKTsWPHjrjssstqWgMA89R0QVTE7v/vuV3+/uLFE4Oq8c+VcyG0WA2joxG9vcIqgErMdJQsAABAnbJmVQkHHXRQnH766bF27dr4+te/HhdddFHVx/r7v//7QlDV3NwcV111Vfz4xz+Of/iHf4jPfvaz0dvbG+985zsL23d3d8ctt9wy43MA5qeRkZEYGRlJugzqQTlBVV5XV+7xPa1dm5v2r9Rzpda3KqeGKkcSMz19ABrQVP1048ZJfXrkiCNi5Kqrpu/TQEPzngDQB4C09AAjq/bwspe9LG677bZYvnz5hMfvvPPOqo736KOPxuc///nC/Q9/+MNx9tlnT9hm8eLF8YEPfCA2btwY1157bWSz2fjEJz4x5ZSBAKUMDQ1FRERra2uyhZCsSoKqvKlGWK1bl/uv1OirYsespgZqQh+ABlPFKNmh1asjIqLVCCuY17wnAPQBYGhoKBU9wMiqPRx88MGTgqqZ2LBhQzz11FMREXHEEUfEBRdcUHLbD3zgA7FgQe4l6e/vj1/+8pc1qwOAeaSnp/qQaKoRVosXlz/CSlAFUBu1GiVrhBUAAFDHhFWz7Prrry/cPvfcc6OpqanktsuXL48Xv/jFhfs/+MEPZrU2ABrUqlURLS0TH6skJCp2sbOlJXfcci6ECqoAaqPaUbICKwAAIGWEVbNobGws7rjjjsL9k08+edp9XvSiFxVu59e5AoCKdHZG3HDD7sCqmpBo/MXOlpbc8To7Jz833tq1EcuXC6oAamGmo2TH/buiYO3a3HEBAADqjDWrZtGDDz4Yu3btioiIpqameN7znjftPscdd1zh9v333z9rtQHQ4PKBVW9vxJo11R2jqys39d+qVbuDqvHPRUy+kLpp0+TjCKoAKpcfJTs6uvuxSvrpypW5/3/uc7sfy4+SBQAAqDPCqln04IMPFm4feOCB0dzcPO0+49fLGhkZicceeywOOOCAir7url27YlOxi4XjtLe3V3RMID3K6TXME52dk0OmSk0VdJUKrMYTVCVCH4AGkP/QwerVucCqwn7a3NwccdJJuf3Wrp08ShaYF7wnAPQBIC19QFg1ix5//PHC7QMPPLCsfQ466KBJx6g0rHr44Yejc5p/hH7/+9+f9NjKP3z6cmRkJIaGhiY939zcHMccc0xERGQymRgeHp60TWtra6xYsSIiIoaGhmJkZGTSNsuWLYu2traIiBgcHIyxsbFJ26xYsSJaW1sjImJgYKDoORxzzDHR3NwcY2NjMTg4WHQb5+Sc5vM55etvpHPKc051dE5dXTF4zz0xtnDyW4oVd90VrX+4sDrpnB5+OGJ4OI55wxuqP6df/CJi2bJoftazvE4lzimTyTTcOTXi6+ScnFPJczr66BjasCFieDjiuOMi/nDMis7pmGNiaP/9Y+Sww3KjZcfV5XVyTs6p8c+ppaUlhoeHJ329NJ9TI75Ozsk5zcU5DVTzPqLOzynPOTkn51T+OdUza1bNoqeeeqpwu9z0cs/txh8DAOpOd3fEE08Uf+6RR3LP7+nhhyO+972Im26K+Oxnq/u6AwO5/b/3vYiNG6s7BkAaHHxwLqiaiT/5k9xxAAAA6lRTNpvNJl1EGnR3d8f69esjIuLkk0+Ob33rW9Pu8+lPfzrW/WEB+pNOOim+/e1vT7vPrl274rDDDivc//d///d44QtfWFaNHR0dkclk4uCDD47/+I//mHJb0wBC48pkMhERhU9kwKzp7p56CsC88VNX9fXtntKq2PPVfF1TW02iDwD6ABChFwD6ADBx1pV6ZhrAWTR+lNS2bdvK2ufpp58ueYxyLViwQBgF81h+yHEa/giRYqWCqvb2iD3XTcxv19UV0ds7Maja8/lqvu7oaO64wqoCfQDQB4AIvQDQB4BcH0hDDzAN4Czaa6+9CreLzTNZzJ7bjT8GANSFUkHVunW5Kfn+MKp4grVrc/utWTP189V+3TVryqsdAAAAgLpjZNUs2n///Qu3H3300bL2eeSRR0oeAwASN1VglB8Zlf//ntvtOYJquucr/boAAAAApJKwahYdeeSRhduPPvpojI2NTTut38Zxi8S3trbGAQccMGv1AUBFKgmMahlYCaoAAAAAGpqwahYdeeSRsWDBgti1a1dks9n41a9+FR0dHVPu84tf/KJw++ijj57tEgGgPNUERrUIrARVAAAAAA1PWDWLmpub48QTT4zbb789IiJuueWWacOq3t7ewu0Xv/jFs1of0JhaW1uTLoFG09NTfWA0VSC1ePHUz69fH7FpU3Vfd57TBwB9AIjQCwB9AEhPH1iQdAGN7pWvfGXh9jXXXDPlths3boybbrqp6L4A5VqxYkWsWLEi6TJoJKtWRbS0THysksCoqyu3/XgtLbnjlno+QlA1A/oAoA8AEXoBoA8AkZoeIKyaZeecc07stddeERHx4IMPxr/+67+W3PbjH/947Ny5MyIiOjo64rjjjpuTGgFgSp2dETfcsDuwqiYwGh9ItbTkjtfZWfz5UgRVAAAAAA1JWDXLDjzwwPjLv/zLwv0PfvCDce21107YZvv27fHxj388vvOd7xQeu+KKK+aqRKDBDA0NxdDQUNJl0GjygdWVV1YfGHV15fbfM6ga/3x7e/F929sFVRXQBwB9AIjQCwB9AIjU9ABrVhXxlre8JTKZzITHHnnkkcLtgYGBWL169aT9vv71r0dbW9ukx9/97ndHX19f/OxnP4uxsbF45zvfGVdeeWU873nPi6effjpuvfXWGB4eLmy/du3aOPnkk2t4RsB8MjIyEhHpGeJLinR2Fg+ZKrFmTennuruLT/0XkXu8u1tgVSZ9ANAHgAi9ANAHgFwfSEMPEFYVcd9998Xvfve7ks8/9dRTcffdd096fPv27UW3X7RoUXzhC1+I97znPfG9730vIiLuueeeuOeeeyZtd/nll8ell146g+oBIIW6uyPWrp16m/zzAisAAACAhiKsmiP77bdffPazn403velNsWHDhrjjjjtieHg4Fi1aFO3t7XHaaafF+eefH0cffXTSpQLA3CoVVLW3Tx5pJbACAAAAaDjCqiJuvfXWWTv2qaeeGqeeeuqsHR8AUqVUULVuXS6QKva8wAoAAACgoSxIugAAYJ6aLqiKyP1/3brJ26xdm9s/aX19ET09MztGT0/uOAAAAADzlJFVAA1m2bJlSZcA0ysnqMrL36+3EVZ9fRGrV0eMjkZs21ZdHfnvQ0tLxA03RHR21qQ0fQDQB4AIvQDQB4D09IGmbDabTboIaqOjoyMymUy0tbVFf39/0uUAQHGVBFW12G82jA+qqq1jz/OpcWAFAAAAkBamAQQA5k5PT/WB01RTAs50Kr5K9fZODKrydZQ7NWGx4G10NHdcAAAAgHlGWAXQYAYHB2NwcDDpMqC4VatyI4jGq2REUrHAqqUld9y5tGZN9WtpTTVCbM2ampSnDwD6ABChFwD6ABCp6QHCKoAGMzY2FmNjY0mXAcV1duamussHVtVM4Tc+sEpy6rypRnqVCqzmaCpDfQDQB4AIvQDQB4BITQ9YmHQBAMA8kw+senurH0nU1RWxeHFuRFWSazzlA6Y9A6j8/fEBVD2tuQUAAABQR4RVAMDc6+ycechUoynzZqycwEpQBQAAAFCSsAoAYKamCqzWr4/YtGnyPoIqAAAAgIiwZhUAQG2UWsNKUAUAAAAwJSOrABrMihUrki4B5q9SI6zGm4OgSh+AMvT1zWztvIiInp7k184rQR8AIvQCQB8A0tMHmrLZbDbpIqiNjo6OyGQy0dbWFv39/UmXAwDz1/LlxUdUtbdHbNw49/UAE/X1RaxeHTE6Wn2AnF+LrqUl4oYb6jKwgoho+GAWAIDGYBpAAIBa6u4uHlRF5B7v7p7beoCJxgdVEbnAqdLfy3xQFZE7zurVueNCvcn/vF96afV/f7q7c/v7OQcAYBYJqwAazMDAQAwMDCRdBsxP4y9gl1LNhfEK6QMwhd7e3UFVXiW/l8V+z0dHc8etI/oAglki9AJAHwAiNT1AWAUAUAulgqr29smPzUFgBZSwZk1u6r89lfN7Wer3fN26mU2xBrNhngSzAAA0BmEVAMBMTXUBe+PG6i+MA7Ojq6vy38upfs+rWfMKZptgFgCAFBFWAQDMRDkXsKu5MA7Mrkp+LwVVpJVgFgCAlBBWAQBUq5ILegIrqD/l/F66cE/aCWYBAEiBhUkXAACQStVc0Ms/vud++fsuBMLcm+r3cv36iE2bJu/jwj1pU87fH0EVAAAJaspms9mki6A2Ojo6IpPJRFtbW/T39yddDpCQsbGxiIhobm5OuBJoYD09EZdeOvnxci/olbogeOWVNVkLRB+AKpT6vdxTSi7c6wMUVernvL1dMNug9AJAHwDGxsZS0QOMrAJoMGn44wOpt2pVREtLxOjo7scquaBX7BPuLS2549aAPgBVKDXyZLwUXbjXByiq1M+5oKph6QWAPgCkpQ9YswqgwYyNjRU+OQXMks7OiBtuyAVMEdVd0Bu/hkhLS+54nZ01KU8fgCp1deVGmBTT3p6qC/f6ACWVWsNqPEFVw9ALAH0ASEsPEFYBNJjBwcEYHBxMugxofPnA6sorq7+g19WV27+GQVWEPgBV6+4uPsIkIvd4d/fc1jMD+gBTaqBglqnpBYA+AKSlBwirAACq1dk58zWm1qypaVAFVKmcNavWrk1VYAUlNVAwCwBAYxBWAQDUk76+iJ6emR3jF7+IePjh2tQD80GpoKrYyBOBFWknmAUAoA4JqwAA6kVfX8Tq1RGXXlr9RcLu7oibbor43vdyxwOmVurC/bp1ERs3Fl/bx4V80kowCwBAnRJWAQDUg3xQNTqau1/NRcLxFyG3bcsdT2AFpU0VVOXX7OnqEljRGASzAADUMWEVAEA96O3dHVTlVXKRsNhFyNHR3HGBycoJqvIEVqSdYBYAgDrXlM1ms0kXQW10dHREJpOJtra26O/vT7ocAKBSlVw8r8V+MF/5XWM+qfTn1s85AAAJMLIKAKBeVPOpdhcVoTI9PdX/zkz1O9rTU5v6oJaq+RthhBUAAAkQVgE0mJGRkRgZGUm6DKBalVwkLHERcqSnJ0YuumiWCoSUW7UqoqVl4mOVhLvFfkdbWnLHrSPeDyCYJUIvAPQBIFLTA4RVAA1maGgohoaGki4DmIlyAqspPi0/dMop+gCU0tkZccMNuwOrakYhjv8dbWnJHa+zs7Z1zpD3A8yXYJap6QWAPgCkpQcsTLoAAACKyF9M3DOQWrs2Yv36iE2bJu+Tvwg5MDD79UGa5QOr3t6INWuqO0ZXV8TixbkL93UWVEFE7P45X706YnS0+mA2Ive3p06DWQAAGoOwCgCgXpUKrKYKqoDydHbO/KJ7tUEXzBXBLAAAKSGsAgCoZ6UCq/EEVQCUIpgFACAFrFkFAFDvuroi2tuLP9feLqgCAAAAUk1YBdBgmpubo7m5OekygFrq7i4+9V9E7vHu7gkP6QM10NcX0dMzs2P09OSOAwnQB4AIvQDQB4BITQ9oymaz2aSLoDY6Ojoik8lEW1tb9Pf3J10OAFAL3d1TTwGYZyrA2unri1i9OmJ0tPrva/51a2nJrRdjnRcAAAAoycgqAIB6VSqoKjYl4Nq1k0ZY1dR8GWk0PqiKqO77Ov51Gx3NHa/ezxsAAAASJKwCaDCZTCYymUzSZQAzVSqoWrcuYuPG3P/39IdgpeZ9IB/gXHpp9YFYd3du/3oPbnp7dwdVeZUEVsVet9HR3HFhDnk/AEToBYA+AERqeoCwCqDBDA8Px/DwcNJlADMxVVCVn5Kuq6tkYDX8n/9Zuz4w30YarVkzZRA4paletzVralMflMn7ASBCLwD0ASBS0wOEVQAA9aScoCqvVGB1880RAwO1qWc+jjSaIggsed6VvG4AAADABMIqAIB6UU3gMVVgVYs1rObrSKNKAitBFQAAAMyIsAoAoB709FQfeEwVrPT0zLy2+TrSqJzzboTzBAAAgIQJqwAA6sGqVREtLRMfqyTwKBastLTkjlsL83Wk0VTnvXx545wnAAAAJGhh0gUAUFutra1JlwBUo7Mz4oYbIlavzq3pVE3g8YftW6+/PmKvvXLH6+ysXY35evYMaPL3u7oaK6jKK3XemzZN3jbN50lD8X4AiNALAH0ASE8faMpms9mki6A2Ojo6IpPJRFtbW/T39yddDgBQjb6+iN7ema3p1NOTG1FVy6BqvFKBVHt7Ywc4pc47r1HOE6gPafh7AAAANSKsaiDCKgBgzkwX3OQ1WoCzfHnxQK69PWLjxrmvB2hMfX0zG2kbsbtPt7TUfqQtAADUmDWrABrM0NBQDA0NJV0GkKA56QOl1nIar9GCqu7u4kFVRO7xPdfuggR5P5Bi44OqiOJrA05n/AcKRkdzx+vrq22dpIJeAOgDQFp6gLAKoMGMjIzEyMhI0mUACZqzPtDVlRtRVEx7e+MFVdONJKvmgjLMEu8HUqy3d3dQlVdJfynWr0ZHc8dl3tELAH0ASEsPEFYBAFCd+TLSaKo1uvYksAJmas2a4iNXy+kvpfrVunUzW/sKAABmmbAKAIDKzZeRRlNd+N24sfoLygBTKTXV6lT9Zap+1UgjXQEAaEjCKgAAKjNfRhqVc+G3mgvKAOWopL8IqgAASDlhFQAA5ZsvI40qufArsAJmSzn9RVAFAEADWJh0AQDU1rJly5IuAUjYrPWBckcaRUzeLn8/DRdOq7nw2wjnTUPxfqCBTNVf1q8vvnagoIo/0AsAfQBISx9oymaz2aSLoDY6Ojoik8lEW1tb9Pf3J10OANBIKg1w0vpJ/56eiEsvnfx4uXWXOu8rr4xYs2bm9QHzVzlrBUbUf58FAIAiTAMIAMDUqh1plMap8VatimhpmfhYJRd+i513S0vuuAAzUaqvjieoAgAgpYRVAA1mcHAwBgcHky4DSFBN+0BPT/UjpKYKrHp6alNfrXV2Rtxww+7AqpoLv+PPu6Uld7zOztrWCdPwfqBBdXVFtLcXf669XVDFJHoBoA8AaekB1qwCaDBjY2NJlwAkrKZ9ID/SaHR092OVjjSKmBh41ftIo3xg1dtb/dR9XV0RixfnzlNQRQK8H2hQ3d3F16iKyD3e3S2wYgK9ANAHgLT0ASOrAAAobb6ONOrsnPkaU2vW1P95koy+vpmPLuzpyR2H+aOcNavqfapVAAAowcgqAACmZqQR1E5fX8Tq1bnRitu2VTcKJh9apCX8ZeZKBVXt7ZNHWuW3M8IKAIAUMbIKAIDpGWkEMzc+qIqobhTM+NBidDR3PCOsGlupoGrduoiNG0uvDWiEFQAAKSKsAgAAmAu9vRPXf4uoLFQoFlqMjuaOS2OaKqjKj5waP9XqeAIrAABSxDSAAA1mxYoVSZcAJEwfgDq1Zk1u6r89w4dypm2bKrQoMupRH2gA5QRVefn71fxs0dD0AkAfANLSB4RVAA2mtbU16RKAhOkDUMeqCRUqCS3+QB9IuSpec4EVxegFgD4ApKUPmAYQAABgLlUybVs1oQXp1tNT/Ws+1c9WT09t6gMAgFkgrAJoMAMDAzEwMJB0GUCC9AFIgXICqxkEVfpAiq1aFdHSMvGxSsLJYj9bLS254zLv6AWAPgCkpQcIqwAAAJIwVWC1fLkRVfNVZ2fEDTfsDqyqec3H/2y1tOSO19lZ2zoBAKCGrFkFAACQlFLrDG3aNHnbPUOLvr6I3t6INWuq//o9PbkRN4KM+pIPrGby+nZ1RSxe7PUFACAVhFUAAABJKhVYjVcsqFq9OmJ0NGLbtupGW+WnGTTypj51ds78NZlJkAkAAHPINIAAAABJ6+qKaG8v/lx7e+mgKmLiOlflGr8e1uho7nh9fZXXDQAAUAPCKgAAgKR1dxef+i8i9/j4MKq3d3dQlVdJYDU+qMobHc0dFwAAIAGmAQRoMMccc0zSJQAJ0wcgZYqFR3vKP9/VlZvabdu2yfuM26ZkHyj1tdatM2UcNCDvCQB9AEhLHxBWATSY5ubmpEsAEqYPQIqUCo/a2yePtBofWJVa5+oP95uLrWE1VVBVzZpXQN3zngDQB4C09AHTAAI0mLGxsRgbG0u6DCBB+gCkxFTh0caNuf/vafx0f11dJbcZ+/u/n9gHBFUwL3lPAOgDQFp6gLAKoMEMDg7G4OBg0mUACdIHIAXKCY+mCKOmC6wG7703Bq+5pvyvBTQk7wkAfQBISw8QVgEAAMylSsKjGQRWcfPNEcuXC6oAAIC6J6wCAACYK9WMcppJYLXnulfTfS0AAIAECKsAAADmQk9P9aOcpgqsenqm3qbSrwUAADDHhFUAAABzYdWqiJaWiY9VEh4VC6NaWnLHHb9Ne3vx/dvbBVUAAEBdElYBAADMhc7OiBtu2B1YVTPKaXxg1dKSO15n5+7nu7uLT/0XkXs8P20gAABAHWnKZrPZpIugNjo6OiKTyURbW1v09/cnXQ4AAFBMX19Eb2/EmjXVH6OnJzeias+gqtg0g3syFSAAAFBnFiZdAAAAwLzS2TkxZKrGnkFXqaCqvX3ySKv8dgIrAACgTpgGEKDBjIyMxMjISNJlAAnSB2CeKRJUjRxxRIz09ERs3Dh5nauI3PamBISG5z0BoA8AaekBRlYBNJihoaGIiGhtbU22ECAx+gDMIyVGVA196EMRK1dGa8TuEVR7bmeEFTQ87wkAfQAYGhpKRQ8wsgoAACCNSk39t25dxMqVEx/r6jLCCgAAqFvCKgAAgLSZKqgqNVJKYAUAANQpYRUAAECa9PRUHlTlTRVY9fTUpj4AAIAKCasAAADSZNWqiJaWiY+VE1TlFQusWlpyxwUAAEiAsAqgwTQ3N0dzc3PSZQAJ0gegwXV2Rtxww+7AqkhQNW0fGB9YtbTkjtfZOUsFA0nxngDQB4C09ICmbDabTboIaqOjoyMymUy0tbVFf39/0uUAAACzqa8vorc3Ys2a6o/R05MbUSWoAgAAErQw6QIAAACoQmfnzEOmmQRdAAAANWIaQIAGk8lkIpPJJF0GkCB9ANAHgAi9ANAHgEhNDxBWATSY4eHhGB4eTroMIEH6AKAPABF6AaAPAJGaHiCsAgAAAAAAIDHCKgAAAAAAABIjrAIAAAAAACAxwioAAAAAAAASszDpAgCordbW1qRLABKmDwD6ABChFwD6AJCePtCUzWazSRdBbXR0dEQmk4m2trbo7+9PuhwAAAAAAIBpmQYQAAAAAACAxAirABrM0NBQDA0NJV0GkCB9ANAHgAi9ANAHgEhNDxBWATSYkZGRGBkZSboMIEH6AKAPABF6AaAPAJGaHiCsAgAAAAAAIDHCKgAAAAAAABIjrAIAAAAAACAxwioAAAAAAAASszDpAgCorWXLliVdApAwfQDQB4AIvQDQB4D09AFhFUCDaWtrS7oEIGH6AKAPABF6AaAPAOnpA6YBBAAAAAAAIDHCKoAGMzg4GIODg0mXASRIHwD0ASBCLwD0ASBS0wNMAwjQYMbGxpIuAUiYPgDoA0CEXgDoA0B6+oCRVQAAAAAAACRGWAUAAAAAAEBihFUAAAAAAAAkRlgFAAAAAABAYhYmXQBATfX1RfT2RqxZU/0xenoiVq2K6OysXV1zaMWKFUmXACRMHwD0ASBCLwD0ASA9fUBYBTSOvr6I1asjRkcjtm2L6Oqq/Bjd3RFr10a0tETccEMqA6vW1takSwASpg8A+gAQoRcA+gCQnj5gGkCgMYwPqiJygVN3d2XHyAdVEbnjrF6dOy4AAAAAALNGWAU0ht7e3UFVXiWB1figKm90NHfclBkYGIiBgYGkywASpA8A+gAQoRcA+gAQqekBwiqgMaxZE7Fu3eTHywmsigVVEbnjzWTtKwAAAAAApiWsAhpHV1flgdVUQVU1a14BAAAAAFARYRXQWCoJrARVAAAAAACJE1YBjaecwEpQBQAAAABQFxYmXQDArMgHTnsGUmvXRqxfH7Fp0+R9BFUAAAAAAHOuKZvNZpMugtro6OiITCYTbW1t0d/fn3Q5UB9KjaDaUwMFVWNjYxER0dzcnHAlQFL0AUAfACL0AkAfAHJ9IA09wDSAQGMrNSXgeA0UVEXk3oCm4Q8Q1FRfX0RPz8yO0dOTO04D0AcAfQCI0AsAfQBIT1gtrAIaX1dXRHt78efa2xsqqIrIfVoi/8kpmBf6+iJWr4649NLd69JVqrs7t//q1Q0RWOkDgD4AROgFgD4ARGp6gLBqDnzzm9+M5cuXV/Tf2nKmLQPK091dfI2qiNzj1V7crlODg4MxODiYdBkwN/JB1eho7v7atZX/To+fLnR0tCECK30A0AeACL0A0AeASE0PEFYBja2cNauqubgN1Ife3t1BVV4lv9PFesToaO64AAAAAMyJhUkXMN8cddRR8ZKXvGTa7V7wghfMQTXQ4EoFVe3tk0da5bdrsCkBoeGtWROxbdvk3/VyfqdL9Yh163LHBQAAAGBOCKvm2AknnBAf+9jHki4DGt9UF6G7uoo/L7CCdMr/zlbyOz1djwAAAABgzpgGEGg85VyE7urK3d+TKQEhnSr5nRZUAQAAANQVYRXQWCq5CC2wgsZSzu+0oAoAAACg7pgGEGgc1VyErmb6sDq3cuXKpEuA5Ez1O71+/eT16iIaMqjSBwB9AIjQCwB9AEhPHzCyCmgMPT3Vj5aYajRGT09t6gPmTqnf6XkSVAEAAACkjZFVc2zLli3xve99L+67777YsmVL7LvvvrFs2bLo6OiI5zznOdHU1JR0iZBOq1ZFtLREjI7ufqySi9DFRmO0tOSOmzIjIyMREdHa2ppoHZCoUiOsxmvgoEofAPQBIEIvAPQBINcH0tADhFVz7Ic//GH88Ic/LPrcs5/97HjXu94Vb3zjG2cUWu3atSs2Ffv0+Djt7e1VHx/qUmdnxA03RKxenQusqrkIPf7idktL7nidnbWvdZYNDQ1FhDeiEF1dpaf+a29v2KAqQh8A9AEgRy8A9AFgaGgoFT1AWFVHfv3rX8fatWvj+uuvj8985jOx1157VXWchx9+ODqnucD+/e9/f9Jj+bkrR0ZGCn/Ixmtubo5jjjkmIiIymUwMDw9P2qa1tTVWrFgREblfgvynN8ZbtmxZtLW1RUTE4OBgjI2NTdpmxYoVhV+ggYGBoudwzDHHRHNzc4yNjcXg4GDRbZzTPDunPwRWQ7/4RYx0dETsUVNZ53TRRdG6eHHEqlUxsHjxpGPM+TlV8To99thjEbH7Nam716kRf/acU32e08BAxGtekzunBx+MFT/6Ue6cTj89Ro48MuJrX4sYN29zKs5pnKlep3wfyGQyDXNOeY30Ojkn5zSb5/TEE0/Evvvu21Dn1Iivk3NyTrN9Tk899VRs3bp10tdL8zk14uvknJzTbJ7TntcIGuGc9uScnJNzmvqc8n2g3gmr5sjy5cvjzDPPjJe85CVx7LHHxgEHHFAYAXXTTTfFl770pXjggQciIuJHP/pRvOtd74ovfvGLsWCBZcWgIp2dEQcfHFGk8ZdtzZrc/0s0fiAFBgYibr556m3yz6dkoVEAAACARtWUzWazSRfR6EZHR2PfffedMnjatm1bvPe9741vfvObhceuvPLKeP3rX1/21+no6IhMJhMHH3xw/Md//MeU25oGEBpX/tMVK12AZ77q7i6+VlV7e/EpARtw7Sp9ANAHgAi9ANAHgFwfSEMPMGxnDrS0tEw7Qmrx4sWxbt26OOmkkwqPXXXVVVV9vQULFkR7e/uU/wFAQyoVVK1bF7FxY+7/e1q7NrcfAAAAAIkQVtWRBQsWxGWXXVa4f++998amYp8AB5hCc3NzNDc3J10GzL2pgqr8yKmurnkRWOkDgD4AROgFgD4ARGp6gGkA68z27dvj6KOPju3bt0dExL/927/FqaeeWta++WkA29raor+/fzbLBID6Uk5QNZPtAQAAAJg1RlbVmUWLFsXSpUsL9zdv3pxgNQCQAtUET/NkhBUAAABAGgir6tBTTz1VuL3XXnslWAmQRplMJjKZTNJlwNzo6al+hNRUgVVPT23qS4g+AOgDQIReAOgDQKSmBwir6szQ0FA88cQThfvLli1LsBogjYaHh2N4eDjpMmBurFoV0dIy8bFKpvIrFli1tOSOm2L6AKAPABF6AaAPAJGaHiCsqjPf+MY3Crf322+/+OM//uMEqwGAOtfZGXHDDbsDq2rWnBofWLW05I7X2VnbOgEAAAAoaWHSBTS6J598Mvbee++ytu3r64vPf/7zhftnnXVWLFzoJQKAKeUDq97eiDVrqjtGV1fE4sW5EVWCKgAAAIA5ZWTVLLvuuuvi1a9+dWzYsCG2bNlSdJuxsbH44he/GG984xtjbGwsIiJaWlri8ssvn8tSASC9OjurD6ry1qwRVAEAAAAkwLCdOXDXXXfFu9/97li4cGEcddRRceSRR0Zra2vs3LkzMplM9Pf3T1inqrm5Ob70pS9ZrwoAAAAAAGh4wqo5tGPHjrj33nvj3nvvLbnNCSecEJ/+9Kfj6KOPnsPKgEbS2tqadAlAwvQBQB8AIvQCQB8A0tMHmrLZbDbpIhrZ008/HT//+c+jv78/+vv7Y2hoKDZv3hyPP/54ZLPZ2HfffeOwww6LE088Mc4888x44QtfWPXX6ujoiEwmE21tbdHf31/DswAAAAAAAJgdRlbNsiVLlkRnZ2d0WgMDAAAAAABgkgVJFwBAbQ0NDcXQ0FDSZQAJ0gcAfQCI0AsAfQCI1PQAYRVAgxkZGYmRkZGkywASpA8A+gAQoRcA+gAQqekBwioAAAAAAAASI6wCAAAAAAAgMcIqAAAAAAAAEiOsAgAAAAAAIDELky4AgNpatmxZ0iUACdMHAH0AiNALAH0ASE8fEFYBNJi2trakSwASpg8A+gAQoRcA+gCQnj5gGkAAAAAAAAASI6wCaDCDg4MxODiYdBlAgvQBQB8AIvQCQB8AIjU9wDSAAA1mbGws6RKAhOkDgD4AROgFgD4ApKcPGFkFAAAAAABAYoRVAAAAAAAAJEZYBQAAAAAAQGKEVQAAAAAAACRmYdIFAFBbK1asSLoEIGH6AKAPABF6AaAPAOnpA8IqgAbT2tqadAlAwvQBQB8AIvQCQB8A0tMHTAMIAAAAAABAYoRVAA1mYGAgBgYGki4DSJA+AOgDQIReAOgDQKSmBwirAAAAAAAASIywCgAAAAAAgMQIqwAAAAAAAEiMsAoAAAAAAIDECKsAAAAAAABIzMKkCwCgto455pikSwASpg8A+gAQoRcA+gCQnj4grAJoMM3NzUmXACRMHwD0ASBCLwD0ASA9fcA0gAANZmxsLMbGxpIuA0iQPgDoA0CEXgDoA0CkpgcIqwAazODgYAwODiZdBpAgfQDQB4AIvQDQB4BITQ8QVgEAAAAAAJAYYRUAAAAAAACJEVYBAAAAAACQGGEVAAAAAAAAiRFWAQAAAAAAkJimbDabTboIaqOjoyMymUy0tbVFf39/0uUAAAAAAABMy8gqAAAAAAAAEiOsAmgwIyMjMTIyknQZQIL0AUAfACL0AkAfACI1PWBh0gUAUFtDQ0MREdHa2ppsIUBi9AFAHwAi9AJAHwByfSANPcDIKgAAAAAAABIjrAIAAAAAACAxwioAAAAAAAASI6wCAAAAAAAgMQuTLgCA2mpubk66BCBh+gCgDwARegGgDwDp6QNN2Ww2m3QR1EZHR0dkMploa2uL/v7+pMsBAAAAAACYlmkAAQAAAAAASIywCqDBZDKZyGQySZcBJEgfAPQBIEIvAPQBIFLTA4RVAA1meHg4hoeHky4DSJA+AOgDQIReAOgDQKSmBwirAAAAAAAASIywCgAAAAAAgMQIqwAAAAAAAEiMsAoAAAAAAIDELEy6AABqq7W1NekSgITpA4A+AEToBYA+AKSnDzRls9ls0kVQGx0dHZHJZKKtrS36+/uTLgcAAAAAAGBapgEEAAAAAAAgMcIqgAYzNDQUQ0NDSZcBJEgfAPQBIEIvAPQBIFLTA4RVAA1mZGQkRkZGki4DSJA+AOgDQIReAOgDQKSmBwirAAAAAAAASIywCgAAAAAAgMQIqwAAAAAAAEiMsAoAAAAAAIDELEy6AABqa9myZUmXACRMHwD0ASBCLwD0ASA9fUBYBdBg2traki4BSJg+AOgDQIReAOgDQHr6gGkAAQAAAAAASIywCqDBDA4OxuDgYNJlAAnSBwB9AIjQCwB9AIjU9ADTAAI0mLGxsaRLABKmDwD6ABChFwD6AJCePmBkFQAAAAAAAIkRVgEAAAAAAJAYYRUAAAAAAACJEVYBAAAAAACQmIVJFwBAba1YsSLpEoCE6QOAPgBE6AWAPgCkpw8IqwAaTGtra9IlAAnTBwB9AIjQCwB9AEhPHzANIAAAAAAAAIkRVgE0mIGBgRgYGEi6DCBB+gCgDwARegGgDwCRmh4grAIAAAAAACAxwioAAAAAAAASI6wCAAAAAAAgMcIqAAAAAAAAEiOsAgAAAAAAIDELky4AgNo65phjki4BSJg+AOgDQIReAOgDQHr6gLAKoME0NzcnXQKQMH0A0AeACL0A0AeA9PQB0wACNJixsbEYGxtLugwgQfoAoA8AEXoBoA8AkZoeIKwCaDCDg4MxODiYdBlAgvQBQB8AIvQCQB8AIjU9QFgFAAAAAABAYoRVAAAAAAAAJEZYBQAAAAAAQGKEVQAAAAAAACRGWAUAAAAAAEBimrLZbDbpIqiNjo6OyGQy0dbWFv39/UmXAwAAAAAAMC0jqwAAAAAAAEiMsAqgwYyMjMTIyEjSZQAJ0gcAfQCI0AsAfQCI1PSAhUkXAEBtDQ0NRUREa2trsoUAidEHAH0AiNALAH0AyPWBNPQAI6sAAAAAAABIjLAKAAAAAACAxAirAAAAAAAASIywCgAAAAAAgMQsTLoAAGqrubk56RKAhOkDgD4AROgFgD4ApKcPNGWz2WzSRVAbHR0dkclkoq2tLfr7+5MuBwAAAAAAYFqmAQQAAAAAACAxwiqABpPJZCKTySRdBpAgfQDQB4AIvQDQB4BITQ8QVgE0mOHh4RgeHk66DCBB+gCgDwARegGgDwCRmh4grAIAAAAAACAxwioAAAAAAAASI6wCAAAAAAAgMcIqAAAAAAAAErMw6QIAqK3W1takSwASpg8A+gAQoRcA+gCQnj7QlM1ms0kXQW10dHREJpOJtra26O/vT7ocAAAAAACAaZkGEAAAAAAAgMQIqwAazNDQUAwNDSVdBpAgfQDQB4AIvQDQB4BITQ8QVgE0mJGRkRgZGUm6DCBB+gCgDwARegGgDwCRmh4grAIAAAAAACAxwioAAAAAAAASI6wCAAAAAAAgMcIqAAAAAAAAErMw6QIAqK1ly5YlXQKQMH0A0AeACL0A0AeA9PQBYRVAg2lra0u6BCBh+gCgDwARegGgDwDp6QOmAQQAAAAAACAxwiqABjM4OBiDg4NJlwEkSB8A9AEgQi8A9AEgUtMDTAMI0GDGxsaSLgFImD4A6ANAhF4A6ANAevqAkVUAAAAAAAAkRlgFAAAAAABAYoRVAAAAAAAAJEZYBQAAAAAAQGIWJl0AALW1YsWKpEsAEqYPAPoAEKEXAPoAkJ4+IKwCaDCtra1JlwAkTB8A9AEgQi8A9AEgPX3ANIAAAAAAAAAkRlgF0GAGBgZiYGAg6TKABOkDgD4AROgFgD4ARGp6gLAKAAAAAACAxAirAAAAAAAASIywCgAAAAAAgMQsTLqA+Wbbtm1x7bXXxne/+90YHByMRx99NFpaWuKwww6LM844I84999xYunRp0mUCAAAAAADMiaZsNptNuoj54oEHHoiLL744fvWrX5Xc5sADD4z169fHn/zJn1R07E2bNkVnZ2dERBx88MFx5513zqhWIJ3G94K+vr5ob29PuCJgrukDgD4AROgFgD4ApKsPmAZwjmzatCnOO++8QlDV1NQUJ598crzxjW+M1atXR3Nzc0REPProo3HRRRfFTTfdlGS5AAAAAAAAc8I0gHPkkksuiUwmExERhx56aHzpS1+KP/7jPy48v3nz5njnO98ZN910U2zfvj3e/va3x8033xwtLS1JlQwAAAAAADDrjKyaAz/+8Y/j1ltvjYiIxYsXx1e+8pUJQVVExNKlS+PLX/5yrFixIiIiRkZG4qqrrprzWgEAAAAAAOaSsGoOfOUrXyncPuecc+I5z3lO0e322muvWLt2beH+1VdfHTt27Jjt8gAAAAAAABIjrJplTz75ZPzsZz8r3D/33HOn3P6MM86IvffeOyJyo6t6e3tntT4AAAAAAIAkCatm2e233x5PP/10RORGTh1//PFTbt/c3BwdHR2F++ODLgAAAAAAgEYjrJpl999/f+H2scceGwsXLpx2n+OOO65w+4EHHpiVugAAAAAAAOrB9MkJM/Lggw8Wbh966KFl7dPe3l64XU1YtXPnzti0aVPZXwMAAAAAACApwqpZ9vjjjxduH3TQQWXtc/DBBxduj4yMVPw1H3vssejs7JxymwMOOGDSY4sWLYqIiGw2Gzt27Jj0fFNTU2Fk2K5du2Lnzp2TtlmwYEE84xnPiIhcaLZr165J2zzjGc+IBQtyg/p27NgR2Wx20jYLFy6MpqamiIjYvn170XPI11vONs7JOc2Xc9q1a1c885nPjIiI//W//lfh66T5nBrxdXJOzmk2zymbzRb6wKte9arCcdJ8TuM1yuvknJzTbJ5TNpuNxYsXx7Zt2+LVr351ZLPZ1J9TROO9Ts7JOc32Oe3atSsWLlwYixYtKvzbIO3nFNF4r5Nzck6zeU7bt2+fdI0g7efUiK+Tc3JOs3lO+WsEW7dujbe+9a3xox/9qOi+9UBYNcuefPLJwu3m5uay9hm/3fj9p9Le3h4LFiwo+sNezGOPPVbWdkB6bd26NekSgITpA8DDDz+cdAlAwnbs2OE9AaAPABMG1tQjYdUse/rppwu3xyebU1m8eHHh9tjYWNlfa8mSJfH000/HggULYunSpVNum09qAQAAAACAxjZ+Rrd6JKyaZUuWLCncLjU8b0/btm0r3C53NFZEdetbAQAAAAAAJMnwmlm29957F26XO0pq/Hbj9wcAAAAAAGg0wqpZtv/++xduP/LII2XtM35e+dbW1lqXBAAAAAAAUDeEVbPsyCOPLNz+3e9+V9Y+mzZtKtw+6qijal4TAAAAAABAvRBWzbKjjz66cPvee++NHTt2TLvPL37xi8JtYRUAAAAAANDIhFWz7AUveEEsWbIkIiKeeuqpGBgYmHL7p59+Ou64447C/Re/+MWzWh8AAAAAAECShFWzbO+9954QOF1zzTVTbv+DH/wgfv/730dEbr2qVatWzWp9AAAAAAAASRJWzYG3ve1thdsbNmyIwcHBottt3bo1PvWpTxXuX3DBBbFw4cJZrw8AAAAAACApwqo5cPrpp8dJJ50UEblp/t72trfF3XffPWGbzZs3x5/92Z/Fb37zm4jIjaq6+OKL57pUAAAAAACAOdWUzWazSRcxH2zatCnOPPPMGB4ejoiIpqamWLVqVRx++OHx2GOPxU9/+tPYunVrREQsXLgwrr766jjllFOSLBkAAAAAAGDWCavm0AMPPBAXX3xx/OpXvyq5zQEHHBDr16+P008/vaxjbtu2La699tr47ne/G4ODg/Hoo49GS0tLHHbYYXHGGWfEueeeG0uXLq3VKQB15Jvf/GZcfvnlFe1z/vnnx7p162apIqCWdu7cGYODgzEwMFD475577ont27dHRMTJJ58c3/rWt6o69k9/+tPYsGFD3HHHHZHJZGLJkiVxyCGHxGmnnRbnn39+HHXUUbU8FaBKtewDDz30UMXr4R5++OHxs5/9rOK6gdp56KGH4sYbb4ze3t645557YtOmTfHkk0/GPvvsE4ccckiceOKJ8ad/+qdx8sknV3zsu+66K775zW/GLbfcEv/zP/8TERGHHHJInHzyyXHeeefF8ccfX+OzAapR6z6wfPnyir7+M57xjPjtb39bTelAjWzevDn6+vrizjvvjHvvvTeGhoZieHg4nnzyyVi4cGG0trbGMcccEyeffHK84Q1viEMOOaSi49fLNQJh1Rzbtm1bfPe7350QLu23337xrGc9K84444w477zzyg6Xygm/DjzwwFi/fn38yZ/8Sa1OAagTwipoXNdff31ccsklhVHXxVQTVj3xxBPxnve8J6699tqS2yxatCi6urpizZo1FR0bqK1a9wFhFaTLL3/5y3jve98bd955Z1nbn3zyyfEP//APZV2E3rZtW/zt3/5tfOlLX4pSl4Samprioosuig984AOxaNGiimoHamO2+oCwCtLnrW99a/z4xz8ua9slS5bEJZdcEu9+97tjwYKpV4Gqt2sEC2f9KzDB4sWL45xzzolzzjlnRsfZtGlTnHfeeZHJZCJi97SCK1asKEwrODY2Fo8++mhcdNFFcfXVV8dLXvKSWpwCUIeOOuqosn7HX/CCF8xBNcBMjY6OTnmBuhrbt2+Piy66aMKF52OPPTae97znxdNPPx233XZbDA8Px/bt2+OTn/xk7NixIy677LKa1gCUbzb6QN4+++wTb3jDG6bd7oADDpiVrw9M78EHH5x0gfqII46IY489Nvbff//YsmVL3H777YURUbfcckucddZZ8e1vfztWrFgx5bH/6q/+akLQvWLFijjxxBMjIuKOO+6IoaGhyGaz8YUvfCF+//vfR3d3d43PDijHbPaBvAsvvHDabZ7xjGdUXDswe5YuXRpHH310LF++PPbee+/YunVr/OY3v4m77rorduzYEU8//XR0d3fH0NBQ/MM//EPJ49TjNQJhVUpdcsklhaDq0EMPjS996Uvxx3/8x4XnN2/eHO985zvjpptuiu3bt8fb3/72uPnmm6OlpSWpkoFZdMIJJ8THPvaxpMsAauyggw6KlStXxvHHHx8rV66M//t//2988YtfrOpYf//3f194E9rc3Bzr16+Ps88+u/D8tm3b4v/9f//f+MxnPhMREd3d3bFq1aqqphUCaqeWfSCvtbXV+wZIicMPPzze9KY3xete97pJU/rs2rUrrrnmmvjABz4QW7dujUwmE5dccklce+210dTUVPR43/jGNwpB1YIFC+Jv/uZv4qKLLip88nrXrl3xxS9+MT7ykY/Erl274hvf+EasWrVqxh+4BapX6z4wnvcDkA4vetGLYvXq1fGSl7wknv3sZxfd5pFHHokPf/jD8Z3vfCciIr71rW/F6tWr48wzzyy6fT1eIxBWpdCPf/zjuPXWWyMiN1LrK1/5SjznOc+ZsM3SpUvjy1/+cpx++ukxNDQUIyMjcdVVV8UVV1yRRMkAQAVe9rKXxW233TZpio5ypwDZ06OPPhqf//znC/c//OEPT3gTGpF7T/GBD3wgNm7cGNdee21ks9n4xCc+MeV0AMDsqXUfANLl4IMPjvXr18cb3vCGkqMaFixYEG984xujpaUl/vzP/zwiciOj/uu//ite+tKXTto+/0nrvIsvvjj+4i/+YtIx/+Iv/iIeeeSR+Kd/+qeIiFi3bl2cffbZsXjx4hqdHVCO2egDQDq94x3vmHabgw46KP7xH/8xHnnkkUIIdfXVVxcNq+r1GsHUkxZSl77yla8Ubp9zzjmTgqq8vfbaK9auXVu4f/XVV8eOHTtmuzwAYIYOPvjgiueSn8qGDRviqaeeiojc1CEXXHBByW0/8IEPFD5d3d/fH7/85S9rVgdQvlr3ASBdTj755DjvvPPKmn7rVa96VZxwwgmF+6XWtPjP//zP2LRpU0RE7LfffvHud7+75DEvu+yy2HfffSMi4ne/+13Z62QAtTMbfQBobE1NTXHeeecV7pf693y9XiMQVqXMk08+OWEeyXPPPXfK7c8444zYe++9IyJiZGQkent7Z7U+AKD+XH/99YXb55577pRTgixfvjxe/OIXF+7/4Ac/mNXaAICZG7827UMPPVR0mx/+8IeF2695zWvimc98ZsnjPfOZz4zXvOY1hfveD0D9K6cPAI1v/LqzTz75ZNFt6vUagbAqZW6//fZ4+umnIyI3cur444+fcvvm5ubo6Ogo3B8fdAEAjW9sbCzuuOOOwv1y5pd+0YteVLjtvQMA1L/xF5l27txZdJubb765cHv83/pSvB+AdCmnDwCN77777ivcPvTQQyc9X8/XCKxZlTL3339/4faxxx4bCxdO/xIed9xxceONN0ZExAMPPDBrtQHJ2bJlS3zve9+L++67L7Zs2RL77rtvLFu2LDo6OuI5z3lOWQurAo3pwQcfjF27dkVE7h+wz3ve86bd57jjjivcHv/eA2gMO3bsiBtvvDEGBgZi8+bNsWTJkli6dGmsXLkyjj/++FiyZEnSJQIVuvfeewu329vbJz2/ZcuWGB4eLtyv9P1AJpOJJ554ojA1IFB/pusDxfT29sZdd90VjzzySDzjGc+IpUuXxnOf+9x4wQteEHvttddslQrMkkwmE5/73OcK91/96ldP2qaerxEIq1LmwQcfLNwulowWM/4PlLAKGtMPf/jDCdN6jPfsZz873vWud8Ub3/hGoRXMQ+PfOxx44IHR3Nw87T7j18kZGRmJxx57bMJUAkC6ZTKZOP/884s+19raGm9961vjkksuKUwnDtS3jRs3TviU8ymnnDJpm/HvByKirDXx9tzmwQcfnHZ2FyAZ5fSBYl7/+tcXffyZz3xmvPGNb4x3v/vdceCBB9akRmB2bN26NR566KH4yU9+Ep/5zGfi0UcfjYiIo48+Oi655JJJ29fzNQLTAKbM448/Xrh90EEHlbXPwQcfXLg9MjJS65KAOvfrX/861q5dGxdeeGFh8URg/hj/3qHcf2ju+R5j/DGAxjYyMhJXXnllvOpVr5p0cRuoTx/+8IcLU34tX748Vq9ePWmb8X/L99133ynXq8p75jOfGfvss0/hvusJUL/K6QOV2Lp1a3z5y1+OV7ziFdHf31+LEoEaue2222L58uWF/4466qh42cteFh/96EcLQdXLX/7y+O53vzvh73hePV8jMLIqZcYvilZO6rnndqUWVQPSafny5XHmmWfGS17ykjj22GPjgAMOiF27dsWmTZvipptuii996UuFEZU/+tGP4l3veld88YtfjAULfFYB5ovxIXU17x32PAaQXvvss0+cccYZ8dKXvjSe97znxSGHHBILFy6MRx99NO644464+uqr46c//WlE5D5xecEFF8R1111nZCXUsWuuuSa+//3vF+5fccUVRafyrOZaQn7b3//+95OOAdSPcvtA3pIlS+IVr3hFvPzlL4+VK1fG8uXLY8mSJTEyMhIDAwOF42Wz2RgeHo63vvWtce2118aRRx45F6cDzEBra2t8/OMfj7PPPrvkNvV8jUBYlTJPP/104faiRYvK2mfx4sWF22NjYzWvCUjGK1/5yjjnnHOKBk9HHnlkHHnkkXH++efHe9/73vjmN78ZERH/+Z//Gf/+7/9ecqg/0HjG/+0f/55gKnv+49b7B0i/gw8+OO64446iU/u1t7dHe3t7nHnmmXH11VfHe9/73shms/Hb3/42PvGJT8S6desSqBiYzsDAQFxxxRWF+6997WvjT//0T4tuW821hAjXE6DeVdIH8m6//fZYunTppMcPOuigOP300+P000+PG264Id7xjnfE2NhYjIyMxPve977CdQUgWcuWLYsLL7wwIiKy2Wz8/ve/j//+7/+OX/ziFzEyMhIXX3xxXH311fHJT36yaMhcz9cIfLQ+Zcb/YGzfvr2sfbZt21a4XcknqID61tLSMu0IqcWLF8e6devipJNOKjx21VVXzXZpQB0Z/7d//HuCqYy/oLXnMYB0WrJkSVlrUF1wwQUT5ra/5ppr4pFHHpnN0oAq/Pa3v40LL7ywcLHoOc95Tnzyk58suX011xIiXE+AelZpH8grFlTtafXq1fGRj3ykcP+mm26Kn//859UXC9TMihUr4mMf+1h87GMfi49//ONx5ZVXxnXXXRe33nprnHvuuRERcfPNN8dZZ50Vd99996T96/kagbAqZcb/A7PcBHP8dhZJhvlnwYIFcdlllxXu33vvvbFp06YEKwLm0l577VW4Xc17hz2PATS+NWvWFP4BunPnzrjxxhsTrggYb3h4OM4///x4+OGHIyJ30epf/uVfYt999y25TzXXEvbc1vUEqB/V9IFKnX/++bF8+fLC/Z/85Cc1OzZQe21tbfHpT386LrroooiIwiir/Hp2efV8jUBYlTL7779/4Xa5n3DM/+GKyM1bCcw/q1atmjDdR34dK6DxjX/vkF9sdTp7vscYfwyg8e29995xwgknFO7ff//9CVYDjLd58+Y4//zz4ze/+U1E5KYC+sY3vhHLli2bcr/xf8ufeOKJXOMKKAAAFT9JREFUsi5Obd26tbBeVYTrCVAvqu0DlVqwYEG8+MUvLtx3HQHS4YorrigE1/fff/+koLmerxEIq1Jm/DyTv/vd78raZ/wIiqOOOqrmNQH1b9GiRROG+m/evDnBaoC5NP69w6OPPlrWxamNGzcWbre2tsYBBxwwK7UB9Wv8BS/vG6A+PPHEE/HmN785BgcHIyI3ldc3vvGNeNaznjXtvnuuWVHO9YTx7weKHQOYezPpA9U4+OCDC7e9H4B0eOYznxkveMELCvdvv/32Cc/X8zUCYVXKHH300YXb9957b+zYsWPafX7xi18UbgurYP566qmnCrdN6QXzx5FHHllY3y6bzcavfvWrafcZ/95h/HsPYP7wvgHqy1NPPRVvectbCmvG7LfffvEv//Iv8Ud/9Edl7b/ffvtNCKErfT/Q1tZW0+nFgMrNtA9UY+vWrYXb3g9AerS0tBRuP/744xOeq+drBMKqlHnBC15QWBj1qaeeioGBgSm3f/rpp+OOO+4o3B8/fBeYP4aGhuKJJ54o3K/19ABA/Wpubo4TTzyxcP+WW26Zdp/e3t7Cbe8dYH765S9/Wbjd1taWYCXA2NhYXHjhhdHX1xcRuU9Mf+1rX4vnP//5FR3nRS96UeH2zTffPO32498zeD8AyapVH6jU+PcDriNAegwPDxdu7zmNbz1fIxBWpczee+894QfimmuumXL7H/zgB4U5pltbW2PVqlWzWh9Qn77xjW8Ubu+3337xx3/8xwlWA8y1V77ylYXb07132LhxY9x0001F9wXmhxtvvHHCVOInn3xygtXA/LZ9+/b4i7/4i/jZz34WERFLliyJL33pS9HZ2Vnxsf7X//pfhdvf+973JoyY2NPWrVvjuuuuK9z3fgCSU8s+UIkHHnhgwvRh3g9AOmzevHnC4JViM63V6zUCYVUKve1tbyvc3rBhQ2Ge2j1t3bo1PvWpTxXuX3DBBbFw4cJZrw+YfU8++WTZ2/b19cXnP//5wv2zzjpLL4B55pxzzilM2/Hggw/Gv/7rv5bc9uMf/3js3LkzIiI6OjriuOOOm5Magdmzbdu22LZtW1nbPvbYY3HFFVcU7h999NH6ACRk586d8a53vauwMPrChQvjs5/9bJx66qlVHe8Vr3hFHHLIIRERMTo6GldeeWXJbf/+7/8+RkdHIyLi0EMPjdNPP72qrwnMTK37QLnXErZu3Rrvfve7C/8uWLp0abzsZS+r6msCM7PnNH5T2bVrV3zgAx+Ip59+OiJy4Xaxv+H1eo1AWJVCp59+epx00kkRkZvm721ve1vcfffdE7bZvHlz/Nmf/Vn85je/iYjcqKqLL754rksFZsl1110Xr371q2PDhg2xZcuWotuMjY3FF7/4xXjjG99YWCyxpaUlLr/88rksFagDBx54YPzlX/5l4f4HP/jBuPbaaydss3379vj4xz8e3/nOdwqPjb9gDaTX8PBwvOhFL4qrrroqfve73xXdJpvNxo9+9KM444wzCv+GaGpqig9+8IOFOe2BuZPNZqOrqyv+4z/+IyIiFixYEFdeeWW84hWvqPqYS5YsibVr1xbu/+M//mN88YtfjF27dhUe27VrV3zxi1+Mq666qvDY2rVrY/HixVV/XaA6s9EHTjrppPjUpz4VDzzwQMlt+vr64jWveU3ceeedhcf+6q/+Kvbee++qvy5QvW9961txxhlnxIYNGyYs8bGnu+++O97ylrfEd7/73cJj73jHO2Lp0qWTtq3XawRN2Ww2O6tfgVmxadOmOPPMMwvzTzY1NcWqVavi8MMPj8ceeyx++tOfFob0L1y4MK6++uo45ZRTkiwZqKFvfvObhdBp4cKFcdRRR8WRRx4Zra2tsXPnzshkMtHf3z/hj1hzc3P8y7/8i+lAISXe8pa3RCaTmfDYI488Eo888khE5BY4Pvzwwyft9/Wvf73o+jLbt2+PN7/5zYXpQyIinvOc58Tznve8ePrpp+PWW2+dMK/12rVr47LLLqvR2QDVqFUfeOihhyb8/T/ssMPi2GOPjaVLl8bChQtj8+bNceedd076Wh/84AfjHe94Rw3PCCjXV77ylXj/+99fuP/sZz87TjvttLL3/9jHPlbyuUsvvTT+v//v/yvcP/zwwwtrV9xxxx2FwDoi4rzzzov169dXUDlQK7PRB5YvX1643dbWFs95znPiwAMPjCVLlsTIyEj84he/iKGhoQn7XHjhhVP2FGB2/fM//3N8+MMfjojd1wCPOOKIaG1tjaampnj88cfj7rvvnvD3OyLijDPOiM985jMlZ1eqx2sEwqoUe+CBB+Liiy+OX/3qVyW3OeCAA2L9+vWG7EODGR9WleOEE06IT3/603H00UfPYlVALZ100kklR0BMpbe3Nw477LCiz23ZsiXe8573xPe+972S+y9atCguv/zyuPTSSyv+2kBt1aoP7BlWTaetrS0+8YlPzOiT28DMdHd3zygk2rhxY8nntm3bFh/5yEfiK1/5SpS6JNTU1BR/9md/Fh/84Adj0aJFVdcBVG82+sD4sGo6ra2t8f73vz/e9KY3VV0DMHNf/epX433ve1/Z2++zzz5x+eWXx5//+Z/HM57xjCm3rbdrBBYtSbGjjjoqrrvuuvjud78b3/3ud2NwcDAeffTR2G+//eJZz3pWnHHGGXHeeecVHeoHpNtrX/vaOOKII6K/vz/6+/tjaGgoNm/eHI8//nhks9nYd99947DDDosTTzwxzjzzzHjhC1+YdMlAHdhvv/3is5/9bLzpTW+KDRs2xB133BHDw8OxaNGiaG9vj9NOOy3OP/98wTY0mEMPPTR+/OMfR39/f9x+++1x3333Fd43bN26NfbZZ59YtmxZrFy5Ml72spfFq171KhenoYEtXrw4/vZv/zZe//rXxze+8Y245ZZbCiMr29ra4uSTT47zzz8/jj/++GQLBWrupz/9aeE6wt133x2PPfZYPP744/Hkk0/G3nvvHQcccEA8//nPj1NOOSXOPvvseOYzn5l0yTDvve1tb4uXvOQl8dOf/jTuvPPOuO+++2Ljxo2FZUHy7+Wf+9znximnnBKvfvWry562s96uERhZBQAAAAAAQGKslAsAAAAAAEBihFUAAAAAAAAkRlgFAAAAAABAYoRVAAAAAAAAJEZYBQAAAAAAQGKEVQAAAAAAACRGWAUAAAAAAEBihFUAAAAAAAAkRlgFAAAAAABAYoRVAAAAAAAAJEZYBQAAAAAAQGKEVQAAAAAAACRGWAUAAAAAAEBihFUAAAAAAAAkRlgFAAAAAABAYoRVAAAAAAAAJEZYBQAAAAAAQGKEVQAAAAAAACRmYdIFAAAAlOsNb3hD3HLLLRXvt2HDhnjRi140CxVRjzZv3hwDAwNx1113xcDAQPz85z+P4eHhwvN+HgAAoL4IqwAAAOrMu9/97tiwYUNERKxfvz7OO++8hCtKj7POOiv6+/uTLgMAAKiAsAoAAEil448/Po4//viytm1ra5vdYqgb40dQAQAA6SCsAgAAUunlL395dHV1JV0GdWjRokVxzDHHxMqVK+P444+PlStXxite8YqkywIAAEoQVgEAANAwvvzlL8cRRxwRzc3NSZcCAACUSVgFAABAw3juc5+bdAkAAECFhFUAAMC8lc1m4/rrr4/rr78++vv749FHH41t27bF0qVL4/nPf3688pWvjNe97nWxcOH0/3S6//774//8n/8Tt912WwwODsbw8HA8/fTTsd9++8Whhx4aL3zhC+PNb35z/NEf/VHJY5x00knxu9/9bsJjl19+eVx++eWTtr388ssnTIM4ft/e3t447LDDpqz33e9+d2zYsCEiItavXx/nnXdeWduMjo7Ghg0b4vvf/34MDQ3FI488Ejt37oy77747WlpaJuxfy+8vAADQuPyLAAAAmJfuvvvuePe73x2/+tWvJj33P//zP/E///M/8cMf/jD+8R//Mb7whS9MGTK9/e1vj+uuu67oc5s3b47NmzfHz3/+8/jiF78YF110UfzN3/xNPOMZz6jZucyVvr6+uPjii2PTpk3TblvL7y8AANDYhFUAAMC809vbGxdeeGE88cQTERGxaNGiWLlyZTz72c+ORYsWxUMPPRR9fX0xNjYWDz74YJx99tlx7bXXxtFHH130eBs3boyIiIULF8bRRx8dz372s6OlpSUWLFgQjz32WNx1112RyWQim83GF77whdi2bVt84hOfmHScc845Jx5//PG46aab4oEHHoiIiJe85CVx1FFHTdr2+OOPr9F3ozy/+c1v4sMf/nBs2bIl9tlnnzjppJOira0tRkZG4tZbb52wba2/vwAAQGMTVgEAAPPKww8/HG9/+9sLQcob3vCGeN/73hfLli2bsN0jjzwSV1xxRfzgBz+ILVu2xDvf+c744Q9/WHRE1Itf/OJ4+9vfHi996Utj3333nfR8NpuNG264IdauXRuPPfZYfO1rX4s//dM/jRe+8IUTtlu7dm1E5Kbfy4dVr3vd64pO0TfXrrrqqtixY0dceOGF8b73vS/23nvvwnPbt28vfF9m4/sLAAA0NmEVAACQSj/5yU9i8+bN0253ySWXxCGHHFK4/3d/93fx6KOPRkTERRddFB/5yEeK7nfQQQfF5z73uTj//PPjZz/7Wdxzzz1x3XXXxdlnnz1p2yuuuGLKGpqamuIVr3hFfOUrX4nXvOY1ERHxpS99aVJYVc927NgRb3rTm+JjH/vYpOcWLVpUuD0b318AAKCxCasAAIBUuuuuu+Kuu+6adrvzzz+/EFY99thj8e1vfzsiIg4++OB43/veN+W+z3jGM+Kv//qv46yzzoqIiH//93+fUZhy4oknxtFHHx33339/3HTTTVUfJwnNzc3x/ve/f8ptkv7+AgAA6SSsAgAA5o2f/vSnsW3btoiIeNWrXhXNzc3T7nPiiSfGXnvtFU899VT09fVNu/2DDz4YP//5z+M3v/lNPPHEE7Ft27bIZrOF5/PT4z3++OOxcePGWL58eZVnM7dOPfXUaG1tnXKbufj+AgAAjUdYBQAApNLll18eXV1dFe3T399fuH3PPfdMO1JoTyMjI/HUU0/FXnvtNem5H/3oR/GpT30qfvnLX5Z9vMcffzw1YdXzn//8abeZze8vAADQuIRVAADAvJHJZAq3b7vttrjtttsqPsbIyMikMKW7uzvWr19f8bF+//vfV7xPUpYuXTrtNrP1/QUAABqbsAoAAJg38lPwzcTOnTsn3L/xxhsnBFUdHR1x3nnnxcqVK6O9vT323nvvWLJkSeH5N7zhDXHLLbdERMSuXbtmXM9cKWdKv9n4/gIAAI1PWAUAAMwb40fsfOhDH4q//Mu/nPExP/OZzxRuv/GNb4x169ZFU1NTye3rZTTVbARls/H9BQAAGt+CpAsAAACYKwceeGDh9iOPPDLj4+3cuTN6e3sjImLBggVxxRVXTBlURURs3Lhxxl+3mIULd38WcceOHdNuX4tRUHuq9fcXAACYH4RVAADAvHHiiScWbvf19c34eJs3b45t27ZFRC6oGR/WFHPffffF5s2bpz3udIFXMfvuu2/h9uOPPz7t9vfee2/FX2M6tf7+AgAA84OwCgAAmDdOO+20wgik22+/PX71q1/N6HgLFuz+J9XY2Ni023/ta18r67jj17gqZ5RURMRhhx1WuD3deQ0MDMRvf/vbso5biVp/fwEAgPlBWAUAAMwbhxxySLzuda+LiIhsNhv/+3//77Knw9u1a1c89thjEx7bf//9Y7/99ouIiC1btsQtt9xScv++vr6yw6r999+/cDuTyZS1zwknnFC4vWHDhpLb7dixI/7mb/6mrGNWqtbfXwAAYH4QVgEAAPPKX//1X8eyZcsiIuKee+6JV7/61fFf//VfJbfftGlTfP7zn49TTjklrr322gnPLViwIF7+8pcX7l922WVx5513TjrGtddeG295y1ti586dsddee01b47HHHlu4/cMf/rAw1eBUzjrrrMJIr/7+/vj4xz8eO3funHQub3vb2+L222+fMHqrlmr5/QUAAOaHhdNvAgAA0Dja2triS1/6UrzlLW+JzZs3x4MPPhhvetOboq2tLU444YRYunRp7NixIzZv3hyDg4PTTpf3v//3/47rr78+xsbG4qGHHorXvOY10dHREUcccURs3749+vv7C8d485vfHP/93/895QisiIiXvexl0dzcHGNjY/GrX/0qXvrSl8bJJ58c++23X2E9q9NOOy1OO+20wj6HHnpovOUtb4mvfvWrERHxT//0T/Gd73wnTjrppGhubo7f/OY3cfvtt8e2bdvilFNOiYMOOii+/e1vz+RbWVStv7+V+s///M/41Kc+NeU2f/VXfzUpNHzFK14Rf/VXf1XTWgAAgPIIqwAAgHnn+OOPjx/84AfR1dUVN910U0Tkptv7wQ9+UHKfgw46KJ797GdPevyP/uiP4qqrrop3vetdsXXr1shms3H77bfH7bffPmG7N7/5zfHRj3403vzmN09b33777Rcf+tCH4n3ve19ks9kYGhqKoaGhCdvsvffeE8KqiIj/v307VG0siAIwfHZvRWyIqImpTCqiAiWiqlBTfWUeJXmHyMhEhZiK6guVgUBEILpQcqkrJQ+w62q626XdlgPt98lhYA7jhp8ZjUZxf38fVVVFRMR+v38RpC4uLmIymcR4PP7nHO/1kff7Vo+Pj7Hb7V7dc3d392Lt9PT0v88GAADeR6wCAAC+pXa7HYvFItbrddzc3MRqtYq6ruPp6SmKoohmsxknJyfR6/Xi/Pw8BoNBHB39+Ql1eXkZVVXFdDqN29vbqOs6iqKI4+Pj6Pf7UZZlnJ2dvWm+4XAYnU4n5vN5bDabeHh4eI5hf9NoNGI2m8X19XUsl8vYbrdxOByi1WpFt9uNsizj6urq+XfWZ/rI+wUAAL62H79ee+kAAAAAAADAJ/qZPQAAAAAAAADfl1gFAAAAAABAGrEKAAAAAACANGIVAAAAAAAAacQqAAAAAAAA0ohVAAAAAAAApBGrAAAAAAAASCNWAQAAAAAAkEasAgAAAAAAII1YBQAAAAAAQBqxCgAAAAAAgDRiFQAAAAAAAGnEKgAAAAAAANKIVQAAAAAAAKQRqwAAAAAAAEgjVgEAAAAAAJBGrAIAAAAAACCNWAUAAAAAAEAasQoAAAAAAIA0YhUAAAAAAABpxCoAAAAAAADSiFUAAAAAAACkEasAAAAAAABII1YBAAAAAACQRqwCAAAAAAAgzW95X8tjoco2pwAAAABJRU5ErkJggg==;" vertex="1" parent="1">
          <mxGeometry x="30" y="780" width="228.5" height="142.29" as="geometry" />
        </mxCell>
      </root>
    </mxGraphModel>
  </diagram>
</mxfile>
